Harmattan-Bold.ufo
<glyph name="exclam" format="2">
  <advance width="585"/>
  <unicode hex="0021"/>
  <outline>
    <contour>
      <point x="397" y="375" type="line"/>
      <point x="402" y="592"/>
      <point x="398" y="807"/>
      <point x="427" y="1132" type="curve"/>
      <point x="176" y="1132" type="line"/>
      <point x="204" y="807"/>
      <point x="201" y="592"/>
      <point x="206" y="375" type="curve"/>
    </contour>
    <contour>
      <point x="172" y="112" type="curve" smooth="yes"/>
      <point x="172" y="34"/>
      <point x="228" y="-18"/>
      <point x="303" y="-18" type="curve" smooth="yes"/>
      <point x="380" y="-18"/>
      <point x="435" y="34"/>
      <point x="435" y="112" type="curve" smooth="yes"/>
      <point x="435" y="189"/>
      <point x="380" y="243"/>
      <point x="303" y="243" type="curve" smooth="yes"/>
      <point x="228" y="243"/>
      <point x="172" y="189"/>
    </contour>
  </outline>
</glyph>
<glyph name="quotedbl" format="2">
  <advance width="813"/>
  <unicode hex="0022"/>
  <outline>
    <contour>
      <point x="476" y="783" type="curve"/>
      <point x="607" y="783" type="line"/>
      <point x="611" y="889"/>
      <point x="612" y="1004"/>
      <point x="633" y="1188" type="curve"/>
      <point x="450" y="1188" type="line"/>
      <point x="473" y="1004"/>
      <point x="473" y="889"/>
    </contour>
    <contour>
      <point x="206" y="783" type="curve"/>
      <point x="337" y="783" type="line"/>
      <point x="341" y="889"/>
      <point x="342" y="1004"/>
      <point x="363" y="1188" type="curve"/>
      <point x="180" y="1188" type="line"/>
      <point x="203" y="1004"/>
      <point x="203" y="889"/>
    </contour>
  </outline>
</glyph>
<glyph name="numbersign" format="1">
  <advance width="898"/>
  <unicode hex="0023"/>
  <outline>
    <contour>
      <point x="364" y="1092" type="line"/>
      <point x="95" y="149" type="line"/>
      <point x="207" y="149" type="line"/>
      <point x="477" y="1092" type="line"/>
    </contour>
    <contour>
      <point x="19" y="430" type="line"/>
      <point x="835" y="430" type="line"/>
      <point x="835" y="542" type="line"/>
      <point x="19" y="542" type="line"/>
    </contour>
    <contour>
      <point x="63" y="718" type="line"/>
      <point x="879" y="718" type="line"/>
      <point x="879" y="830" type="line"/>
      <point x="63" y="830" type="line"/>
    </contour>
    <contour>
      <point x="682" y="1092" type="line"/>
      <point x="413" y="149" type="line"/>
      <point x="524" y="149" type="line"/>
      <point x="794" y="1092" type="line"/>
    </contour>
  </outline>
</glyph>
<glyph name="dollar" format="2">
  <advance width="930"/>
  <unicode hex="0024"/>
  <outline>
    <contour>
      <point x="769" y="987" type="line"/>
      <point x="679" y="1030"/>
      <point x="588" y="1041"/>
      <point x="482" y="1041" type="curve" smooth="yes"/>
      <point x="252" y="1041"/>
      <point x="127" y="902"/>
      <point x="127" y="762" type="curve" smooth="yes"/>
      <point x="127" y="622"/>
      <point x="221" y="547"/>
      <point x="420" y="467" type="curve" smooth="yes"/>
      <point x="616" y="387"/>
      <point x="653" y="354"/>
      <point x="653" y="289" type="curve" smooth="yes"/>
      <point x="653" y="200"/>
      <point x="573" y="158"/>
      <point x="454" y="158" type="curve" smooth="yes"/>
      <point x="345" y="158"/>
      <point x="237" y="210"/>
      <point x="161" y="287" type="curve"/>
      <point x="107" y="93" type="line"/>
      <point x="177" y="36"/>
      <point x="306" y="0"/>
      <point x="454" y="0" type="curve" smooth="yes"/>
      <point x="650" y="0"/>
      <point x="829" y="110"/>
      <point x="829" y="310" type="curve" smooth="yes"/>
      <point x="829" y="474"/>
      <point x="710" y="542"/>
      <point x="524" y="619" type="curve" smooth="yes"/>
      <point x="338" y="696"/>
      <point x="303" y="726"/>
      <point x="303" y="780" type="curve" smooth="yes"/>
      <point x="303" y="849"/>
      <point x="364" y="891"/>
      <point x="474" y="891" type="curve" smooth="yes"/>
      <point x="570" y="891"/>
      <point x="672" y="865"/>
      <point x="726" y="807" type="curve"/>
    </contour>
    <contour>
      <point x="426" y="1200" type="line"/>
      <point x="426" y="591" type="line"/>
      <point x="403" y="544" type="line"/>
      <point x="403" y="-165" type="line"/>
      <point x="531" y="-165" type="line"/>
      <point x="531" y="501" type="line"/>
      <point x="553" y="550" type="line"/>
      <point x="553" y="1200" type="line"/>
    </contour>
  </outline>
</glyph>
<glyph name="percent" format="2">
  <advance width="1173"/>
  <unicode hex="0025"/>
  <outline>
    <contour>
      <point x="804" y="1110" type="line"/>
      <point x="218" y="-18" type="line"/>
      <point x="374" y="-18" type="line"/>
      <point x="959" y="1110" type="line"/>
    </contour>
    <contour>
      <point x="383" y="807" type="curve" smooth="yes"/>
      <point x="383" y="669"/>
      <point x="352" y="611"/>
      <point x="295" y="611" type="curve" smooth="yes"/>
      <point x="236" y="611"/>
      <point x="209" y="668"/>
      <point x="209" y="818" type="curve" smooth="yes"/>
      <point x="209" y="956"/>
      <point x="237" y="1012"/>
      <point x="295" y="1012" type="curve" smooth="yes"/>
      <point x="356" y="1012"/>
      <point x="383" y="957"/>
    </contour>
    <contour>
      <point x="540" y="816" type="curve" smooth="yes"/>
      <point x="540" y="1021"/>
      <point x="438" y="1110"/>
      <point x="299" y="1110" type="curve" smooth="yes"/>
      <point x="161" y="1110"/>
      <point x="51" y="1020"/>
      <point x="51" y="808" type="curve" smooth="yes"/>
      <point x="51" y="597"/>
      <point x="153" y="513"/>
      <point x="292" y="513" type="curve" smooth="yes"/>
      <point x="431" y="513"/>
      <point x="540" y="595"/>
    </contour>
    <contour>
      <point x="964" y="274" type="curve" smooth="yes"/>
      <point x="964" y="136"/>
      <point x="933" y="78"/>
      <point x="876" y="78" type="curve" smooth="yes"/>
      <point x="817" y="78"/>
      <point x="790" y="135"/>
      <point x="790" y="285" type="curve" smooth="yes"/>
      <point x="790" y="423"/>
      <point x="819" y="480"/>
      <point x="876" y="480" type="curve" smooth="yes"/>
      <point x="937" y="480"/>
      <point x="964" y="424"/>
    </contour>
    <contour>
      <point x="1122" y="284" type="curve" smooth="yes"/>
      <point x="1122" y="489"/>
      <point x="1019" y="577"/>
      <point x="880" y="577" type="curve" smooth="yes"/>
      <point x="742" y="577"/>
      <point x="633" y="487"/>
      <point x="633" y="276" type="curve" smooth="yes"/>
      <point x="633" y="64"/>
      <point x="735" y="-18"/>
      <point x="873" y="-18" type="curve" smooth="yes"/>
      <point x="1012" y="-18"/>
      <point x="1122" y="63"/>
    </contour>
  </outline>
</glyph>
<glyph name="ampersand" format="2">
  <advance width="1016"/>
  <unicode hex="0026"/>
  <outline>
    <contour>
      <point x="393" y="-18" type="curve" smooth="yes"/>
      <point x="606" y="-18"/>
      <point x="837" y="198"/>
      <point x="896" y="318" type="curve"/>
      <point x="795" y="450" type="line"/>
      <point x="747" y="324"/>
      <point x="536" y="142"/>
      <point x="405" y="142" type="curve" smooth="yes"/>
      <point x="318" y="142"/>
      <point x="251" y="192"/>
      <point x="251" y="277" type="curve" smooth="yes"/>
      <point x="251" y="360"/>
      <point x="308" y="410"/>
      <point x="438" y="525" type="curve" smooth="yes"/>
      <point x="574" y="644"/>
      <point x="693" y="786"/>
      <point x="693" y="892" type="curve" smooth="yes"/>
      <point x="693" y="1029"/>
      <point x="582" y="1113"/>
      <point x="431" y="1113" type="curve" smooth="yes"/>
      <point x="274" y="1113"/>
      <point x="142" y="1029"/>
      <point x="142" y="870" type="curve" smooth="yes"/>
      <point x="142" y="750"/>
      <point x="305" y="588"/>
      <point x="442" y="405" type="curve" smooth="yes"/>
      <point x="644" y="134"/>
      <point x="778" y="-18"/>
      <point x="817" y="-18" type="curve" smooth="yes"/>
      <point x="843" y="-18"/>
      <point x="939" y="43"/>
      <point x="967" y="67" type="curve"/>
      <point x="896" y="97"/>
      <point x="795" y="228"/>
      <point x="588" y="510" type="curve" smooth="yes"/>
      <point x="464" y="679"/>
      <point x="315" y="813"/>
      <point x="315" y="877" type="curve" smooth="yes"/>
      <point x="315" y="930"/>
      <point x="362" y="982"/>
      <point x="420" y="982" type="curve" smooth="yes"/>
      <point x="480" y="982"/>
      <point x="521" y="940"/>
      <point x="521" y="881" type="curve" smooth="yes"/>
      <point x="521" y="829"/>
      <point x="471" y="750"/>
      <point x="341" y="630" type="curve" smooth="yes"/>
      <point x="188" y="488"/>
      <point x="67" y="395"/>
      <point x="67" y="258" type="curve" smooth="yes"/>
      <point x="67" y="90"/>
      <point x="181" y="-18"/>
    </contour>
  </outline>
</glyph>
<glyph name="quotesingle" format="2">
  <advance width="468"/>
  <unicode hex="0027"/>
  <outline>
    <contour>
      <point x="300" y="783" type="line"/>
      <point x="303" y="889"/>
      <point x="304" y="1004"/>
      <point x="326" y="1188" type="curve"/>
      <point x="142" y="1188" type="line"/>
      <point x="165" y="1004"/>
      <point x="165" y="889"/>
      <point x="168" y="783" type="curve"/>
    </contour>
  </outline>
</glyph>
<glyph name="parenleft" format="2">
  <advance width="645"/>
  <unicode hex="0028"/>
  <outline>
    <contour>
      <point x="401" y="-307" type="curve"/>
      <point x="514" y="-180" type="line"/>
      <point x="346" y="8"/>
      <point x="282" y="251"/>
      <point x="282" y="476" type="curve" smooth="yes"/>
      <point x="282" y="703"/>
      <point x="349" y="945"/>
      <point x="507" y="1091" type="curve"/>
      <point x="416" y="1230" type="line"/>
      <point x="217" y="1083"/>
      <point x="86" y="796"/>
      <point x="86" y="468" type="curve" smooth="yes"/>
      <point x="86" y="163"/>
      <point x="195" y="-93"/>
    </contour>
  </outline>
</glyph>
<glyph name="asterisk" format="2">
  <advance width="769"/>
  <unicode hex="002A"/>
  <outline>
    <contour>
      <point x="311" y="1197" type="line"/>
      <point x="324" y="1097"/>
      <point x="334" y="1037"/>
      <point x="336" y="973" type="curve"/>
      <point x="281" y="1005"/>
      <point x="232" y="1037"/>
      <point x="149" y="1096" type="curve"/>
      <point x="94" y="1002" type="line"/>
      <point x="186" y="964"/>
      <point x="244" y="943"/>
      <point x="303" y="913" type="curve"/>
      <point x="246" y="881"/>
      <point x="192" y="853"/>
      <point x="101" y="812" type="curve"/>
      <point x="154" y="718" type="line"/>
      <point x="232" y="779"/>
      <point x="282" y="818"/>
      <point x="336" y="853" type="curve"/>
      <point x="335" y="789"/>
      <point x="331" y="728"/>
      <point x="321" y="628" type="curve"/>
      <point x="426" y="628" type="line"/>
      <point x="411" y="728"/>
      <point x="407" y="787"/>
      <point x="404" y="853" type="curve"/>
      <point x="459" y="819"/>
      <point x="510" y="788"/>
      <point x="591" y="730" type="curve"/>
      <point x="647" y="823" type="line"/>
      <point x="553" y="860"/>
      <point x="496" y="882"/>
      <point x="438" y="913" type="curve"/>
      <point x="495" y="943"/>
      <point x="548" y="972"/>
      <point x="639" y="1014" type="curve"/>
      <point x="587" y="1107" type="line"/>
      <point x="508" y="1044"/>
      <point x="459" y="1009"/>
      <point x="404" y="973" type="curve"/>
      <point x="405" y="1037"/>
      <point x="408" y="1097"/>
      <point x="419" y="1197" type="curve"/>
    </contour>
  </outline>
</glyph>
<glyph name="plus" format="2">
  <advance width="900"/>
  <unicode hex="002B"/>
  <outline>
    <contour>
      <point x="371" y="885" type="line"/>
      <point x="371" y="213" type="line"/>
      <point x="528" y="213" type="line"/>
      <point x="528" y="885" type="line"/>
    </contour>
    <contour>
      <point x="116" y="472" type="line"/>
      <point x="783" y="472" type="line"/>
      <point x="783" y="630" type="line"/>
      <point x="116" y="630" type="line"/>
    </contour>
  </outline>
</glyph>
<glyph name="comma" format="2">
  <advance width="498"/>
  <unicode hex="002C"/>
  <outline>
    <contour>
      <point x="138" y="37" type="line"/>
      <point x="251" y="37" type="line"/>
      <point x="251" y="-25"/>
      <point x="225" y="-114"/>
      <point x="146" y="-198" type="curve"/>
      <point x="232" y="-251" type="line"/>
      <point x="325" y="-171"/>
      <point x="405" y="-51"/>
      <point x="405" y="82" type="curve" smooth="yes"/>
      <point x="405" y="175"/>
      <point x="351" y="240"/>
      <point x="266" y="240" type="curve" smooth="yes"/>
      <point x="196" y="240"/>
      <point x="138" y="176"/>
      <point x="138" y="120" type="curve" smooth="yes"/>
    </contour>
  </outline>
</glyph>
<glyph name="hyphen" format="2">
  <advance width="671"/>
  <unicode hex="002D"/>
  <anchor x="337" y="825" name="U"/>
  <outline>
    <contour>
      <point x="60" y="397" type="line"/>
      <point x="611" y="397" type="line"/>
      <point x="611" y="547" type="line"/>
      <point x="60" y="547" type="line"/>
    </contour>
  </outline>
</glyph>
<glyph name="period" format="1">
  <advance width="479"/>
  <unicode hex="002E"/>
  <outline>
    <contour>
      <point x="139" y="27"/>
      <point x="183" y="-19"/>
      <point x="239" y="-19" type="curve" smooth="yes"/>
      <point x="294" y="-19"/>
      <point x="340" y="27"/>
      <point x="340" y="82" type="curve" smooth="yes"/>
      <point x="340" y="138"/>
      <point x="294" y="183"/>
      <point x="239" y="183" type="curve" smooth="yes"/>
      <point x="183" y="183"/>
      <point x="139" y="138"/>
      <point x="139" y="82" type="curve" smooth="yes"/>
    </contour>
  </outline>
</glyph>
<glyph name="slash" format="2">
  <advance width="810"/>
  <unicode hex="002F"/>
  <outline>
    <contour>
      <point x="630" y="1200" type="line"/>
      <point x="7" y="-183" type="line"/>
      <point x="180" y="-183" type="line"/>
      <point x="802" y="1200" type="line"/>
    </contour>
  </outline>
</glyph>
<glyph name="zero" format="2">
  <advance width="930"/>
  <unicode hex="0030"/>
  <anchor x="468" y="-75" name="L"/>
  <anchor x="468" y="1147" name="U"/>
  <outline>
    <contour>
      <point x="652" y="516" type="curve" smooth="yes"/>
      <point x="652" y="276"/>
      <point x="586" y="153"/>
      <point x="465" y="153" type="curve" smooth="yes"/>
      <point x="339" y="153"/>
      <point x="277" y="281"/>
      <point x="277" y="538" type="curve" smooth="yes"/>
      <point x="277" y="789"/>
      <point x="342" y="911"/>
      <point x="465" y="911" type="curve" smooth="yes"/>
      <point x="594" y="911"/>
      <point x="652" y="784"/>
    </contour>
    <contour>
      <point x="866" y="535" type="curve" smooth="yes"/>
      <point x="866" y="934"/>
      <point x="727" y="1083"/>
      <point x="472" y="1083" type="curve" smooth="yes"/>
      <point x="233" y="1083"/>
      <point x="63" y="932"/>
      <point x="63" y="520" type="curve" smooth="yes"/>
      <point x="63" y="123"/>
      <point x="218" y="-18"/>
      <point x="457" y="-18" type="curve" smooth="yes"/>
      <point x="698" y="-18"/>
      <point x="866" y="120"/>
    </contour>
  </outline>
</glyph>
<glyph name="one" format="2">
  <advance width="930"/>
  <unicode hex="0031"/>
  <anchor x="468" y="-75" name="L"/>
  <anchor x="468" y="1147" name="U"/>
  <outline>
    <contour>
      <point x="817" y="0" type="line"/>
      <point x="817" y="176" type="line"/>
      <point x="586" y="176" type="line"/>
      <point x="586" y="1095" type="line"/>
      <point x="380" y="1095" type="line"/>
      <point x="144" y="958" type="line"/>
      <point x="170" y="763" type="line"/>
      <point x="380" y="877" type="line"/>
      <point x="380" y="176" type="line"/>
      <point x="150" y="176" type="line"/>
      <point x="150" y="0" type="line"/>
    </contour>
  </outline>
</glyph>
<glyph name="two" format="2">
  <advance width="930"/>
  <unicode hex="0032"/>
  <anchor x="468" y="-75" name="L"/>
  <anchor x="468" y="1147" name="U"/>
  <outline>
    <contour>
      <point x="99" y="0" type="line"/>
      <point x="834" y="0" type="line"/>
      <point x="834" y="195" type="line"/>
      <point x="774" y="184"/>
      <point x="723" y="183"/>
      <point x="576" y="183" type="curve" smooth="yes"/>
      <point x="377" y="183" type="line"/>
      <point x="541" y="316"/>
      <point x="801" y="554"/>
      <point x="801" y="798" type="curve" smooth="yes"/>
      <point x="801" y="992"/>
      <point x="654" y="1113"/>
      <point x="437" y="1113" type="curve" smooth="yes"/>
      <point x="310" y="1113"/>
      <point x="164" y="1051"/>
      <point x="96" y="967" type="curve"/>
      <point x="144" y="787" type="line"/>
      <point x="211" y="868"/>
      <point x="326" y="926"/>
      <point x="418" y="926" type="curve" smooth="yes"/>
      <point x="533" y="926"/>
      <point x="585" y="849"/>
      <point x="585" y="761" type="curve" smooth="yes"/>
      <point x="585" y="568"/>
      <point x="303" y="311"/>
      <point x="99" y="165" type="curve"/>
    </contour>
  </outline>
</glyph>
<glyph name="four" format="2">
  <advance width="930"/>
  <unicode hex="0034"/>
  <anchor x="468" y="-75" name="L"/>
  <anchor x="468" y="1147" name="U"/>
  <outline>
    <contour>
      <point x="881" y="258" type="line"/>
      <point x="881" y="427" type="line"/>
      <point x="761" y="427" type="line"/>
      <point x="761" y="1095" type="line"/>
      <point x="536" y="1095" type="line"/>
      <point x="60" y="427" type="line"/>
      <point x="60" y="258" type="line"/>
      <point x="562" y="258" type="line"/>
      <point x="562" y="0" type="line"/>
      <point x="761" y="0" type="line"/>
      <point x="761" y="258" type="line"/>
    </contour>
    <contour>
      <point x="562" y="858" type="line"/>
      <point x="562" y="427" type="line"/>
      <point x="243" y="427" type="line"/>
    </contour>
  </outline>
</glyph>
<glyph name="five" format="2">
  <advance width="930"/>
  <unicode hex="0035"/>
  <anchor x="468" y="-75" name="L"/>
  <anchor x="468" y="1147" name="U"/>
  <outline>
    <contour>
      <point x="146" y="483" type="line"/>
      <point x="239" y="519"/>
      <point x="318" y="532"/>
      <point x="397" y="532" type="curve" smooth="yes"/>
      <point x="517" y="532"/>
      <point x="622" y="474"/>
      <point x="622" y="352" type="curve" smooth="yes"/>
      <point x="622" y="238"/>
      <point x="532" y="161"/>
      <point x="412" y="161" type="curve" smooth="yes"/>
      <point x="307" y="161"/>
      <point x="220" y="189"/>
      <point x="120" y="270" type="curve"/>
      <point x="90" y="60" type="line"/>
      <point x="183" y="1"/>
      <point x="288" y="-18"/>
      <point x="405" y="-18" type="curve" smooth="yes"/>
      <point x="639" y="-18"/>
      <point x="832" y="122"/>
      <point x="832" y="356" type="curve" smooth="yes"/>
      <point x="832" y="564"/>
      <point x="676" y="697"/>
      <point x="468" y="697" type="curve" smooth="yes"/>
      <point x="422" y="697"/>
      <point x="366" y="683"/>
      <point x="341" y="671" type="curve"/>
      <point x="341" y="911" type="line"/>
      <point x="588" y="911" type="line" smooth="yes"/>
      <point x="651" y="911"/>
      <point x="731" y="908"/>
      <point x="787" y="896" type="curve"/>
      <point x="787" y="1095" type="line"/>
      <point x="146" y="1095" type="line"/>
    </contour>
  </outline>
</glyph>
<glyph name="six" format="2">
  <advance width="930"/>
  <unicode hex="0036"/>
  <anchor x="468" y="-75" name="L"/>
  <anchor x="468" y="1147" name="U"/>
  <outline>
    <contour>
      <point x="812" y="1046" type="line"/>
      <point x="734" y="1098"/>
      <point x="662" y="1113"/>
      <point x="558" y="1113" type="curve" smooth="yes"/>
      <point x="202" y="1113"/>
      <point x="75" y="801"/>
      <point x="75" y="510" type="curve" smooth="yes"/>
      <point x="75" y="167"/>
      <point x="230" y="-18"/>
      <point x="496" y="-18" type="curve" smooth="yes"/>
      <point x="723" y="-18"/>
      <point x="873" y="134"/>
      <point x="873" y="352" type="curve" smooth="yes"/>
      <point x="873" y="546"/>
      <point x="729" y="693"/>
      <point x="513" y="693" type="curve" smooth="yes"/>
      <point x="370" y="693"/>
      <point x="261" y="607"/>
      <point x="176" y="491" type="curve"/>
      <point x="225" y="405" type="line"/>
      <point x="286" y="482"/>
      <point x="382" y="532"/>
      <point x="498" y="532" type="curve" smooth="yes"/>
      <point x="618" y="532"/>
      <point x="682" y="450"/>
      <point x="682" y="341" type="curve" smooth="yes"/>
      <point x="682" y="246"/>
      <point x="609" y="157"/>
      <point x="499" y="157" type="curve" smooth="yes"/>
      <point x="363" y="157"/>
      <point x="273" y="289"/>
      <point x="273" y="483" type="curve" smooth="yes"/>
      <point x="273" y="849"/>
      <point x="403" y="937"/>
      <point x="551" y="937" type="curve" smooth="yes"/>
      <point x="623" y="937"/>
      <point x="699" y="919"/>
      <point x="764" y="855" type="curve"/>
    </contour>
  </outline>
</glyph>
<glyph name="seven" format="2">
  <advance width="930"/>
  <unicode hex="0037"/>
  <anchor x="468" y="-75" name="L"/>
  <anchor x="468" y="1147" name="U"/>
  <outline>
    <contour>
      <point x="390" y="0" type="line"/>
      <point x="486" y="344"/>
      <point x="625" y="641"/>
      <point x="847" y="945" type="curve"/>
      <point x="847" y="1095" type="line"/>
      <point x="75" y="1095" type="line"/>
      <point x="75" y="896" type="line"/>
      <point x="132" y="908"/>
      <point x="219" y="911"/>
      <point x="360" y="911" type="curve" smooth="yes"/>
      <point x="600" y="911" type="line"/>
      <point x="406" y="631"/>
      <point x="306" y="424"/>
      <point x="176" y="0" type="curve"/>
    </contour>
  </outline>
</glyph>
<glyph name="eight" format="2">
  <advance width="930"/>
  <unicode hex="0038"/>
  <anchor x="468" y="-75" name="L"/>
  <anchor x="468" y="1147" name="U"/>
  <outline>
    <contour>
      <point x="465" y="-18" type="curve" smooth="yes"/>
      <point x="672" y="-18"/>
      <point x="862" y="108"/>
      <point x="862" y="311" type="curve" smooth="yes"/>
      <point x="862" y="480"/>
      <point x="753" y="554"/>
      <point x="671" y="596" type="curve"/>
      <point x="729" y="630"/>
      <point x="810" y="692"/>
      <point x="810" y="828" type="curve" smooth="yes"/>
      <point x="810" y="1012"/>
      <point x="660" y="1113"/>
      <point x="472" y="1113" type="curve" smooth="yes"/>
      <point x="285" y="1113"/>
      <point x="120" y="1012"/>
      <point x="120" y="828" type="curve" smooth="yes"/>
      <point x="120" y="692"/>
      <point x="204" y="628"/>
      <point x="262" y="596" type="curve"/>
      <point x="165" y="543"/>
      <point x="67" y="473"/>
      <point x="67" y="303" type="curve" smooth="yes"/>
      <point x="67" y="100"/>
      <point x="258" y="-18"/>
    </contour>
    <contour>
      <point x="622" y="817" type="curve" smooth="yes"/>
      <point x="622" y="730"/>
      <point x="564" y="671"/>
      <point x="465" y="671" type="curve" smooth="yes"/>
      <point x="365" y="671"/>
      <point x="307" y="730"/>
      <point x="307" y="817" type="curve" smooth="yes"/>
      <point x="307" y="897"/>
      <point x="372" y="952"/>
      <point x="465" y="952" type="curve" smooth="yes"/>
      <point x="572" y="952"/>
      <point x="622" y="890"/>
    </contour>
    <contour>
      <point x="663" y="333" type="curve" smooth="yes"/>
      <point x="663" y="240"/>
      <point x="591" y="153"/>
      <point x="465" y="153" type="curve" smooth="yes"/>
      <point x="345" y="153"/>
      <point x="266" y="240"/>
      <point x="266" y="333" type="curve" smooth="yes"/>
      <point x="266" y="436"/>
      <point x="352" y="510"/>
      <point x="465" y="510" type="curve" smooth="yes"/>
      <point x="576" y="510"/>
      <point x="663" y="436"/>
    </contour>
  </outline>
</glyph>
<glyph name="nine" format="2">
  <advance width="930"/>
  <unicode hex="0039"/>
  <anchor x="468" y="-75" name="L"/>
  <anchor x="468" y="1147" name="U"/>
  <outline>
    <contour>
      <point x="119" y="48" type="line"/>
      <point x="189" y="3"/>
      <point x="276" y="-18"/>
      <point x="372" y="-18" type="curve" smooth="yes"/>
      <point x="729" y="-18"/>
      <point x="855" y="308"/>
      <point x="855" y="585" type="curve" smooth="yes"/>
      <point x="855" y="862"/>
      <point x="736" y="1113"/>
      <point x="445" y="1113" type="curve" smooth="yes"/>
      <point x="236" y="1113"/>
      <point x="56" y="975"/>
      <point x="56" y="751" type="curve" smooth="yes"/>
      <point x="56" y="572"/>
      <point x="207" y="432"/>
      <point x="416" y="432" type="curve" smooth="yes"/>
      <point x="559" y="432"/>
      <point x="688" y="530"/>
      <point x="761" y="651" type="curve"/>
      <point x="708" y="743" type="line"/>
      <point x="652" y="657"/>
      <point x="550" y="592"/>
      <point x="434" y="592" type="curve" smooth="yes"/>
      <point x="322" y="592"/>
      <point x="248" y="667"/>
      <point x="248" y="777" type="curve" smooth="yes"/>
      <point x="248" y="864"/>
      <point x="322" y="937"/>
      <point x="433" y="937" type="curve" smooth="yes"/>
      <point x="583" y="937"/>
      <point x="656" y="826"/>
      <point x="656" y="609" type="curve" smooth="yes"/>
      <point x="656" y="244"/>
      <point x="528" y="157"/>
      <point x="380" y="157" type="curve" smooth="yes"/>
      <point x="308" y="157"/>
      <point x="224" y="175"/>
      <point x="159" y="240" type="curve"/>
    </contour>
  </outline>
</glyph>
<glyph name="semicolon" format="2">
  <advance width="532"/>
  <unicode hex="003B"/>
  <outline>
    <contour>
      <point x="150" y="562" type="curve" smooth="yes"/>
      <point x="150" y="484"/>
      <point x="205" y="431"/>
      <point x="281" y="431" type="curve" smooth="yes"/>
      <point x="357" y="431"/>
      <point x="412" y="484"/>
      <point x="412" y="562" type="curve" smooth="yes"/>
      <point x="412" y="639"/>
      <point x="357" y="693"/>
      <point x="281" y="693" type="curve" smooth="yes"/>
      <point x="205" y="693"/>
      <point x="150" y="639"/>
    </contour>
    <contour>
      <point x="138" y="37" type="line"/>
      <point x="258" y="37" type="line"/>
      <point x="258" y="-25"/>
      <point x="217" y="-114"/>
      <point x="138" y="-198" type="curve"/>
      <point x="247" y="-251" type="line"/>
      <point x="340" y="-171"/>
      <point x="420" y="-36"/>
      <point x="420" y="97" type="curve" smooth="yes"/>
      <point x="420" y="190"/>
      <point x="366" y="255"/>
      <point x="281" y="255" type="curve" smooth="yes"/>
      <point x="196" y="255"/>
      <point x="138" y="191"/>
      <point x="138" y="135" type="curve" smooth="yes"/>
    </contour>
  </outline>
</glyph>
<glyph name="less" format="2">
  <advance width="900"/>
  <unicode hex="003C"/>
  <outline>
    <contour>
      <point x="802" y="356" type="line"/>
      <point x="292" y="547" type="line"/>
      <point x="802" y="738" type="line"/>
      <point x="802" y="911" type="line"/>
      <point x="82" y="618" type="line"/>
      <point x="82" y="476" type="line"/>
      <point x="802" y="183" type="line"/>
    </contour>
  </outline>
</glyph>
<glyph name="equal" format="2">
  <advance width="900"/>
  <unicode hex="003D"/>
  <outline>
    <contour>
      <point x="90" y="337" type="line"/>
      <point x="810" y="337" type="line"/>
      <point x="810" y="487" type="line"/>
      <point x="90" y="487" type="line"/>
    </contour>
    <contour>
      <point x="90" y="600" type="line"/>
      <point x="810" y="600" type="line"/>
      <point x="810" y="750" type="line"/>
      <point x="90" y="750" type="line"/>
    </contour>
  </outline>
</glyph>
<glyph name="greater" format="2">
  <advance width="900"/>
  <unicode hex="003E"/>
  <outline>
    <contour>
      <point x="97" y="183" type="line"/>
      <point x="817" y="476" type="line"/>
      <point x="817" y="618" type="line"/>
      <point x="97" y="911" type="line"/>
      <point x="97" y="738" type="line"/>
      <point x="607" y="547" type="line"/>
      <point x="97" y="356" type="line"/>
    </contour>
  </outline>
</glyph>
<glyph name="at" format="2">
  <advance width="1306"/>
  <unicode hex="0040"/>
  <outline>
    <contour>
      <point x="855" y="7" type="line"/>
      <point x="807" y="-25"/>
      <point x="741" y="-45"/>
      <point x="671" y="-45" type="curve" smooth="yes"/>
      <point x="418" y="-45"/>
      <point x="217" y="153"/>
      <point x="217" y="453" type="curve" smooth="yes"/>
      <point x="217" y="729"/>
      <point x="417" y="930"/>
      <point x="671" y="930" type="curve" smooth="yes"/>
      <point x="958" y="930"/>
      <point x="1095" y="744"/>
      <point x="1095" y="502" type="curve" smooth="yes"/>
      <point x="1095" y="339"/>
      <point x="1022" y="251"/>
      <point x="978" y="251" type="curve" smooth="yes"/>
      <point x="942" y="251"/>
      <point x="915" y="322"/>
      <point x="915" y="487" type="curve" smooth="yes"/>
      <point x="915" y="735" type="line"/>
      <point x="849" y="761"/>
      <point x="739" y="780"/>
      <point x="678" y="780" type="curve" smooth="yes"/>
      <point x="555" y="780"/>
      <point x="464" y="720"/>
      <point x="401" y="618" type="curve" smooth="yes"/>
      <point x="365" y="560"/>
      <point x="345" y="489"/>
      <point x="345" y="397" type="curve" smooth="yes"/>
      <point x="345" y="228"/>
      <point x="454" y="122"/>
      <point x="555" y="122" type="curve" smooth="yes"/>
      <point x="650" y="122"/>
      <point x="759" y="248"/>
      <point x="798" y="341" type="curve"/>
      <point x="806" y="215"/>
      <point x="864" y="120"/>
      <point x="956" y="120" type="curve" smooth="yes"/>
      <point x="1087" y="120"/>
      <point x="1237" y="268"/>
      <point x="1237" y="525" type="curve" smooth="yes"/>
      <point x="1237" y="852"/>
      <point x="1006" y="1068"/>
      <point x="678" y="1068" type="curve" smooth="yes"/>
      <point x="360" y="1068"/>
      <point x="67" y="852"/>
      <point x="67" y="431" type="curve" smooth="yes"/>
      <point x="67" y="28"/>
      <point x="359" y="-183"/>
      <point x="660" y="-183" type="curve" smooth="yes"/>
      <point x="761" y="-183"/>
      <point x="881" y="-148"/>
      <point x="956" y="-96" type="curve"/>
    </contour>
    <contour>
      <point x="765" y="532" type="line"/>
      <point x="741" y="429"/>
      <point x="647" y="262"/>
      <point x="579" y="262" type="curve" smooth="yes"/>
      <point x="525" y="262"/>
      <point x="495" y="321"/>
      <point x="495" y="431" type="curve" smooth="yes"/>
      <point x="495" y="489"/>
      <point x="512" y="552"/>
      <point x="540" y="589" type="curve" smooth="yes"/>
      <point x="566" y="624"/>
      <point x="605" y="641"/>
      <point x="656" y="641" type="curve" smooth="yes"/>
      <point x="711" y="641"/>
      <point x="741" y="627"/>
      <point x="765" y="615" type="curve"/>
    </contour>
  </outline>
</glyph>
<glyph name="B" format="2">
  <advance width="1038"/>
  <unicode hex="0042"/>
  <anchor x="502" y="-75" name="L"/>
  <anchor x="502" y="1147" name="U"/>
  <outline>
    <contour>
      <point x="337" y="936" type="line"/>
      <point x="365" y="937"/>
      <point x="421" y="939"/>
      <point x="473" y="939" type="curve" smooth="yes"/>
      <point x="613" y="939"/>
      <point x="672" y="897"/>
      <point x="672" y="807" type="curve" smooth="yes"/>
      <point x="672" y="713"/>
      <point x="595" y="656"/>
      <point x="453" y="656" type="curve" smooth="yes"/>
      <point x="337" y="656" type="line"/>
    </contour>
    <contour>
      <point x="123" y="341" type="line" smooth="yes"/>
      <point x="123" y="192"/>
      <point x="123" y="60"/>
      <point x="112" y="0" type="curve"/>
      <point x="149" y="-1"/>
      <point x="300" y="-7"/>
      <point x="473" y="-7" type="curve" smooth="yes"/>
      <point x="791" y="-7"/>
      <point x="933" y="135"/>
      <point x="933" y="322" type="curve" smooth="yes"/>
      <point x="933" y="504"/>
      <point x="813" y="570"/>
      <point x="701" y="600" type="curve"/>
      <point x="798" y="637"/>
      <point x="877" y="710"/>
      <point x="877" y="832" type="curve" smooth="yes"/>
      <point x="877" y="1033"/>
      <point x="702" y="1102"/>
      <point x="461" y="1102" type="curve" smooth="yes"/>
      <point x="316" y="1102"/>
      <point x="186" y="1099"/>
      <point x="112" y="1095" type="curve"/>
      <point x="123" y="1035"/>
      <point x="123" y="897"/>
      <point x="123" y="750" type="curve" smooth="yes"/>
    </contour>
    <contour>
      <point x="337" y="493" type="line"/>
      <point x="482" y="493" type="line" smooth="yes"/>
      <point x="639" y="493"/>
      <point x="729" y="440"/>
      <point x="729" y="337" type="curve" smooth="yes"/>
      <point x="729" y="201"/>
      <point x="619" y="161"/>
      <point x="489" y="161" type="curve" smooth="yes"/>
      <point x="414" y="161"/>
      <point x="362" y="163"/>
      <point x="337" y="165" type="curve"/>
    </contour>
  </outline>
</glyph>
<glyph name="C" format="2">
  <advance width="1038"/>
  <unicode hex="0043"/>
  <anchor x="558" y="0" name="H"/>
  <anchor x="558" y="-75" name="L"/>
  <anchor x="558" y="1147" name="U"/>
  <outline>
    <contour>
      <point x="566" y="-18" type="curve" smooth="yes"/>
      <point x="694" y="-18"/>
      <point x="856" y="31"/>
      <point x="948" y="105" type="curve"/>
      <point x="911" y="303" type="line"/>
      <point x="828" y="219"/>
      <point x="705" y="165"/>
      <point x="592" y="165" type="curve" smooth="yes"/>
      <point x="398" y="165"/>
      <point x="281" y="309"/>
      <point x="281" y="551" type="curve" smooth="yes"/>
      <point x="281" y="805"/>
      <point x="417" y="933"/>
      <point x="600" y="933" type="curve" smooth="yes"/>
      <point x="698" y="933"/>
      <point x="789" y="903"/>
      <point x="885" y="828" type="curve"/>
      <point x="937" y="1008" type="line"/>
      <point x="829" y="1086"/>
      <point x="726" y="1113"/>
      <point x="588" y="1113" type="curve" smooth="yes"/>
      <point x="309" y="1113"/>
      <point x="67" y="918"/>
      <point x="67" y="532" type="curve" smooth="yes"/>
      <point x="67" y="195"/>
      <point x="255" y="-18"/>
    </contour>
  </outline>
</glyph>
<glyph name="D" format="2">
  <advance width="1113"/>
  <unicode hex="0044"/>
  <anchor x="577" y="-75" name="L"/>
  <anchor x="577" y="1147" name="U"/>
  <outline>
    <contour>
      <point x="123" y="341" type="line"/>
      <point x="123" y="192"/>
      <point x="123" y="60"/>
      <point x="112" y="0" type="curve"/>
      <point x="112" y="0"/>
      <point x="355" y="-7"/>
      <point x="456" y="-7" type="curve" smooth="yes"/>
      <point x="689" y="-7"/>
      <point x="1027" y="108"/>
      <point x="1027" y="555" type="curve" smooth="yes"/>
      <point x="1027" y="1030"/>
      <point x="679" y="1102"/>
      <point x="472" y="1102" type="curve" smooth="yes"/>
      <point x="365" y="1102"/>
      <point x="179" y="1099"/>
      <point x="112" y="1095" type="curve"/>
      <point x="123" y="1035"/>
      <point x="123" y="897"/>
      <point x="123" y="750" type="curve" smooth="yes"/>
    </contour>
    <contour>
      <point x="337" y="930" type="line"/>
      <point x="369" y="932"/>
      <point x="436" y="934"/>
      <point x="477" y="934" type="curve" smooth="yes"/>
      <point x="672" y="934"/>
      <point x="816" y="838"/>
      <point x="816" y="540" type="curve" smooth="yes"/>
      <point x="816" y="267"/>
      <point x="642" y="165"/>
      <point x="474" y="165" type="curve" smooth="yes"/>
      <point x="415" y="165"/>
      <point x="366" y="170"/>
      <point x="337" y="173" type="curve"/>
    </contour>
  </outline>
</glyph>
<glyph name="E" format="2">
  <advance width="909"/>
  <unicode hex="0045"/>
  <anchor x="457" y="0" name="H"/>
  <anchor x="457" y="-75" name="L"/>
  <anchor x="753" y="0" name="O"/>
  <anchor x="935" y="900" name="R"/>
  <anchor x="457" y="1147" name="U"/>
  <outline>
    <contour>
      <point x="337" y="656" type="line"/>
      <point x="337" y="922" type="line"/>
      <point x="804" y="922" type="line"/>
      <point x="804" y="1095" type="line"/>
      <point x="112" y="1095" type="line"/>
      <point x="123" y="1035"/>
      <point x="123" y="916"/>
      <point x="123" y="768" type="curve" smooth="yes"/>
      <point x="123" y="326" type="line" smooth="yes"/>
      <point x="123" y="178"/>
      <point x="123" y="60"/>
      <point x="112" y="0" type="curve"/>
      <point x="826" y="0" type="line"/>
      <point x="826" y="183" type="line"/>
      <point x="768" y="173"/>
      <point x="674" y="172"/>
      <point x="531" y="172" type="curve" smooth="yes"/>
      <point x="337" y="172" type="line"/>
      <point x="337" y="487" type="line"/>
      <point x="747" y="487" type="line"/>
      <point x="747" y="656" type="line"/>
    </contour>
  </outline>
</glyph>
<glyph name="G" format="2">
  <advance width="1104"/>
  <unicode hex="0047"/>
  <anchor x="605" y="0" name="H"/>
  <anchor x="605" y="-75" name="L"/>
  <anchor x="605" y="1147" name="U"/>
  <outline>
    <contour>
      <point x="1002" y="588" type="line"/>
      <point x="575" y="588" type="line"/>
      <point x="575" y="420" type="line"/>
      <point x="811" y="420" type="line"/>
      <point x="811" y="220" type="line"/>
      <point x="724" y="177"/>
      <point x="662" y="165"/>
      <point x="576" y="165" type="curve" smooth="yes"/>
      <point x="399" y="165"/>
      <point x="281" y="315"/>
      <point x="281" y="558" type="curve" smooth="yes"/>
      <point x="281" y="786"/>
      <point x="408" y="933"/>
      <point x="607" y="933" type="curve" smooth="yes"/>
      <point x="714" y="933"/>
      <point x="822" y="903"/>
      <point x="927" y="830" type="curve"/>
      <point x="991" y="1008" type="line"/>
      <point x="852" y="1096"/>
      <point x="741" y="1113"/>
      <point x="613" y="1113" type="curve" smooth="yes"/>
      <point x="302" y="1113"/>
      <point x="67" y="899"/>
      <point x="67" y="540" type="curve" smooth="yes"/>
      <point x="67" y="180"/>
      <point x="282" y="-18"/>
      <point x="582" y="-18" type="curve" smooth="yes"/>
      <point x="720" y="-18"/>
      <point x="840" y="8"/>
      <point x="1002" y="116" type="curve"/>
    </contour>
  </outline>
</glyph>
<glyph name="H" format="2">
  <advance width="1103"/>
  <unicode hex="0048"/>
  <outline>
    <contour>
      <point x="964" y="0" type="line"/>
      <point x="954" y="60"/>
      <point x="954" y="178"/>
      <point x="954" y="325" type="curve" smooth="yes"/>
      <point x="954" y="767" type="line" smooth="yes"/>
      <point x="954" y="914"/>
      <point x="954" y="1033"/>
      <point x="964" y="1092" type="curve"/>
      <point x="812" y="1092" type="line"/>
      <point x="812" y="624" type="line"/>
      <point x="274" y="624" type="line"/>
      <point x="274" y="1092" type="line"/>
      <point x="120" y="1092" type="line"/>
      <point x="131" y="1033"/>
      <point x="131" y="914"/>
      <point x="131" y="767" type="curve" smooth="yes"/>
      <point x="131" y="325" type="line" smooth="yes"/>
      <point x="131" y="178"/>
      <point x="131" y="60"/>
      <point x="120" y="0" type="curve"/>
      <point x="274" y="0" type="line"/>
      <point x="274" y="504" type="line"/>
      <point x="812" y="504" type="line"/>
      <point x="812" y="0" type="line"/>
    </contour>
  </outline>
</glyph>
<glyph name="I" format="2">
  <advance width="783"/>
  <unicode hex="0049"/>
  <anchor x="390" y="0" name="H"/>
  <anchor x="387" y="-75" name="L"/>
  <anchor x="534" y="0" name="O"/>
  <anchor x="760" y="900" name="R"/>
  <anchor x="390" y="1147" name="U"/>
  <outline>
    <contour>
      <point x="97" y="0" type="line"/>
      <point x="671" y="0" type="line"/>
      <point x="671" y="153" type="line"/>
      <point x="491" y="153" type="line"/>
      <point x="491" y="941" type="line"/>
      <point x="671" y="941" type="line"/>
      <point x="671" y="1095" type="line"/>
      <point x="97" y="1095" type="line"/>
      <point x="97" y="941" type="line"/>
      <point x="277" y="941" type="line"/>
      <point x="277" y="153" type="line"/>
      <point x="97" y="153" type="line"/>
    </contour>
  </outline>
</glyph>
<glyph name="J" format="2">
  <advance width="772"/>
  <unicode hex="004A"/>
  <anchor x="311" y="-75" name="L"/>
  <anchor x="528" y="1147" name="U"/>
  <outline>
    <contour>
      <point x="272" y="-18" type="curve" smooth="yes"/>
      <point x="493" y="-18"/>
      <point x="641" y="96"/>
      <point x="641" y="401" type="curve" smooth="yes"/>
      <point x="641" y="463"/>
      <point x="641" y="1095"/>
      <point x="641" y="1095" type="curve"/>
      <point x="416" y="1095" type="line"/>
      <point x="426" y="1015"/>
      <point x="427" y="881"/>
      <point x="427" y="735" type="curve" smooth="yes"/>
      <point x="427" y="418" type="line" smooth="yes"/>
      <point x="427" y="287"/>
      <point x="405" y="170"/>
      <point x="273" y="170" type="curve" smooth="yes"/>
      <point x="198" y="170"/>
      <point x="114" y="202"/>
      <point x="59" y="260" type="curve"/>
      <point x="22" y="67" type="line"/>
      <point x="81" y="6"/>
      <point x="193" y="-18"/>
    </contour>
  </outline>
</glyph>
<glyph name="K" format="1">
  <advance width="979"/>
  <unicode hex="004B"/>
  <outline>
    <contour>
      <point x="693" y="1092" type="line"/>
      <point x="220" y="525" type="line"/>
      <point x="318" y="558" type="line"/>
      <point x="396" y="554" type="line"/>
      <point x="872" y="1092" type="line"/>
    </contour>
    <contour>
      <point x="261" y="550" type="line"/>
      <point x="737" y="0" type="line"/>
      <point x="920" y="0" type="line"/>
      <point x="363" y="643" type="line"/>
    </contour>
    <contour>
      <point x="274" y="1092" type="line"/>
      <point x="120" y="1092" type="line"/>
      <point x="131" y="1033"/>
      <point x="131" y="914"/>
      <point x="131" y="767" type="curve" smooth="yes"/>
      <point x="131" y="325" type="line" smooth="yes"/>
      <point x="131" y="178"/>
      <point x="131" y="60"/>
      <point x="120" y="0" type="curve"/>
      <point x="274" y="0" type="line"/>
    </contour>
  </outline>
</glyph>
<glyph name="L" format="2">
  <advance width="847"/>
  <unicode hex="004C"/>
  <anchor x="465" y="0" name="H"/>
  <anchor x="465" y="-75" name="L"/>
  <anchor x="487" y="900" name="R"/>
  <anchor x="465" y="1147" name="U"/>
  <outline>
    <contour>
      <point x="337" y="172" type="line"/>
      <point x="337" y="1095" type="line"/>
      <point x="112" y="1095" type="line"/>
      <point x="123" y="1035"/>
      <point x="123" y="916"/>
      <point x="123" y="768" type="curve" smooth="yes"/>
      <point x="123" y="326" type="line" smooth="yes"/>
      <point x="123" y="178"/>
      <point x="123" y="60"/>
      <point x="112" y="0" type="curve"/>
      <point x="813" y="0" type="line"/>
      <point x="813" y="183" type="line"/>
      <point x="756" y="173"/>
      <point x="641" y="172"/>
      <point x="499" y="172" type="curve" smooth="yes"/>
    </contour>
  </outline>
</glyph>
<glyph name="M" format="2">
  <advance width="1342"/>
  <unicode hex="004D"/>
  <outline>
    <contour>
      <point x="662" y="154" type="line"/>
      <point x="340" y="1092" type="line"/>
      <point x="214" y="1092" type="line"/>
      <point x="591" y="0" type="line"/>
      <point x="737" y="0" type="line"/>
      <point x="1112" y="1092" type="line"/>
      <point x="987" y="1092" type="line"/>
    </contour>
    <contour>
      <point x="172" y="1092" type="line"/>
      <point x="172" y="1092"/>
      <point x="139" y="147"/>
      <point x="120" y="0" type="curve"/>
      <point x="258" y="0" type="line"/>
      <point x="282" y="902" type="line"/>
      <point x="303" y="1092" type="line"/>
    </contour>
    <contour>
      <point x="1204" y="0" type="line"/>
      <point x="1183" y="147"/>
      <point x="1152" y="1092"/>
      <point x="1152" y="1092" type="curve"/>
      <point x="1021" y="1092" type="line"/>
      <point x="1045" y="902" type="line"/>
      <point x="1066" y="0" type="line"/>
    </contour>
  </outline>
</glyph>
<glyph name="N" format="2">
  <advance width="1158"/>
  <unicode hex="004E"/>
  <anchor x="930" y="0" name="H"/>
  <anchor x="573" y="-75" name="L"/>
  <anchor x="573" y="1147" name="U"/>
  <outline>
    <contour>
      <point x="821" y="0" type="line"/>
      <point x="972" y="112" type="line"/>
      <point x="318" y="1095" type="line"/>
      <point x="167" y="982" type="line"/>
    </contour>
    <contour>
      <point x="112" y="0" type="curve"/>
      <point x="318" y="0" type="line"/>
      <point x="318" y="1095" type="line"/>
      <point x="112" y="1095" type="line"/>
      <point x="123" y="1035"/>
      <point x="123" y="916"/>
      <point x="123" y="768" type="curve" smooth="yes"/>
      <point x="123" y="326" type="line" smooth="yes"/>
      <point x="123" y="178"/>
      <point x="123" y="60"/>
    </contour>
    <contour>
      <point x="821" y="0" type="line"/>
      <point x="1016" y="0" type="line"/>
      <point x="1016" y="768" type="line" smooth="yes"/>
      <point x="1016" y="916"/>
      <point x="1017" y="1035"/>
      <point x="1027" y="1095" type="curve"/>
      <point x="821" y="1095" type="line"/>
    </contour>
  </outline>
</glyph>
<glyph name="P" format="2">
  <advance width="956"/>
  <unicode hex="0050"/>
  <anchor x="513" y="-75" name="L"/>
  <anchor x="513" y="1147" name="U"/>
  <outline>
    <contour>
      <point x="112" y="0" type="curve"/>
      <point x="348" y="0" type="line"/>
      <point x="338" y="58"/>
      <point x="337" y="177"/>
      <point x="337" y="326" type="curve" smooth="yes"/>
      <point x="337" y="392" type="line"/>
      <point x="386" y="387"/>
      <point x="431" y="384"/>
      <point x="486" y="384" type="curve" smooth="yes"/>
      <point x="732" y="384"/>
      <point x="900" y="526"/>
      <point x="900" y="757" type="curve" smooth="yes"/>
      <point x="900" y="987"/>
      <point x="735" y="1102"/>
      <point x="493" y="1102" type="curve" smooth="yes"/>
      <point x="333" y="1102"/>
      <point x="112" y="1095"/>
      <point x="112" y="1095" type="curve"/>
      <point x="123" y="1035"/>
      <point x="123" y="897"/>
      <point x="123" y="750" type="curve" smooth="yes"/>
      <point x="123" y="326" type="line" smooth="yes"/>
      <point x="123" y="178"/>
      <point x="123" y="60"/>
    </contour>
    <contour>
      <point x="463" y="547" type="curve" smooth="yes"/>
      <point x="417" y="547"/>
      <point x="369" y="549"/>
      <point x="337" y="555" type="curve"/>
      <point x="337" y="930" type="line"/>
      <point x="379" y="932"/>
      <point x="408" y="933"/>
      <point x="466" y="933" type="curve" smooth="yes"/>
      <point x="624" y="933"/>
      <point x="686" y="858"/>
      <point x="686" y="750" type="curve" smooth="yes"/>
      <point x="686" y="615"/>
      <point x="608" y="547"/>
    </contour>
  </outline>
</glyph>
<glyph name="Q" format="2">
  <advance width="1158"/>
  <unicode hex="0051"/>
  <anchor x="560" y="-202" name="L"/>
  <anchor x="560" y="1147" name="U"/>
  <outline>
    <contour>
      <point x="1038" y="555" type="curve" smooth="yes"/>
      <point x="1038" y="914"/>
      <point x="818" y="1113"/>
      <point x="562" y="1113" type="curve" smooth="yes"/>
      <point x="303" y="1113"/>
      <point x="67" y="899"/>
      <point x="67" y="540" type="curve" smooth="yes"/>
      <point x="67" y="180"/>
      <point x="288" y="-18"/>
      <point x="547" y="-18" type="curve" smooth="yes"/>
      <point x="605" y="-18"/>
      <point x="630" y="-17"/>
      <point x="666" y="-11" type="curve"/>
      <point x="718" y="-11"/>
      <point x="949" y="-171"/>
      <point x="1012" y="-171" type="curve" smooth="yes"/>
      <point x="1068" y="-171"/>
      <point x="1126" y="-51"/>
      <point x="1151" y="-11" type="curve"/>
      <point x="1045" y="0"/>
      <point x="957" y="51"/>
      <point x="859" y="106" type="curve"/>
      <point x="970" y="212"/>
      <point x="1038" y="353"/>
    </contour>
    <contour>
      <point x="825" y="536" type="curve" smooth="yes"/>
      <point x="825" y="303"/>
      <point x="707" y="165"/>
      <point x="555" y="165" type="curve" smooth="yes"/>
      <point x="393" y="165"/>
      <point x="281" y="317"/>
      <point x="281" y="558" type="curve" smooth="yes"/>
      <point x="281" y="786"/>
      <point x="396" y="930"/>
      <point x="555" y="930" type="curve" smooth="yes"/>
      <point x="713" y="930"/>
      <point x="825" y="780"/>
    </contour>
  </outline>
</glyph>
<glyph name="S" format="2">
  <advance width="932"/>
  <unicode hex="0053"/>
  <anchor x="462" y="0" name="H"/>
  <anchor x="462" y="-75" name="L"/>
  <anchor x="462" y="1147" name="U"/>
  <outline>
    <contour>
      <point x="806" y="1046" type="line"/>
      <point x="699" y="1093"/>
      <point x="607" y="1113"/>
      <point x="480" y="1113" type="curve" smooth="yes"/>
      <point x="210" y="1113"/>
      <point x="97" y="929"/>
      <point x="97" y="795" type="curve" smooth="yes"/>
      <point x="97" y="661"/>
      <point x="147" y="565"/>
      <point x="382" y="491" type="curve" smooth="yes"/>
      <point x="600" y="422"/>
      <point x="638" y="378"/>
      <point x="638" y="315" type="curve" smooth="yes"/>
      <point x="638" y="219"/>
      <point x="547" y="165"/>
      <point x="450" y="165" type="curve" smooth="yes"/>
      <point x="329" y="165"/>
      <point x="212" y="202"/>
      <point x="105" y="288" type="curve"/>
      <point x="67" y="82" type="line"/>
      <point x="150" y="23"/>
      <point x="293" y="-18"/>
      <point x="450" y="-18" type="curve" smooth="yes"/>
      <point x="671" y="-18"/>
      <point x="853" y="126"/>
      <point x="853" y="341" type="curve" smooth="yes"/>
      <point x="853" y="499"/>
      <point x="745" y="590"/>
      <point x="545" y="652" type="curve" smooth="yes"/>
      <point x="348" y="714"/>
      <point x="312" y="745"/>
      <point x="312" y="810" type="curve" smooth="yes"/>
      <point x="312" y="871"/>
      <point x="379" y="933"/>
      <point x="472" y="933" type="curve" smooth="yes"/>
      <point x="578" y="933"/>
      <point x="654" y="906"/>
      <point x="772" y="847" type="curve"/>
    </contour>
  </outline>
</glyph>
<glyph name="U" format="2">
  <advance width="1117"/>
  <unicode hex="0055"/>
  <anchor x="549" y="0" name="H"/>
  <anchor x="549" y="-75" name="L"/>
  <anchor x="712" y="0" name="O"/>
  <anchor x="1110" y="900" name="R"/>
  <anchor x="549" y="1147" name="U"/>
  <outline>
    <contour>
      <point x="761" y="1095" type="line"/>
      <point x="761" y="420" type="line" smooth="yes"/>
      <point x="761" y="258"/>
      <point x="714" y="153"/>
      <point x="551" y="153" type="curve" smooth="yes"/>
      <point x="384" y="153"/>
      <point x="337" y="258"/>
      <point x="337" y="420" type="curve" smooth="yes"/>
      <point x="337" y="1095" type="line"/>
      <point x="112" y="1095" type="line"/>
      <point x="123" y="1035"/>
      <point x="123" y="916"/>
      <point x="123" y="768" type="curve" smooth="yes"/>
      <point x="123" y="386" type="line" smooth="yes"/>
      <point x="123" y="142"/>
      <point x="267" y="-18"/>
      <point x="551" y="-18" type="curve" smooth="yes"/>
      <point x="832" y="-18"/>
      <point x="975" y="142"/>
      <point x="975" y="386" type="curve" smooth="yes"/>
      <point x="975" y="768" type="line" smooth="yes"/>
      <point x="975" y="924"/>
      <point x="976" y="1035"/>
      <point x="986" y="1095" type="curve"/>
    </contour>
  </outline>
</glyph>
<glyph name="V" format="2">
  <advance width="1098"/>
  <unicode hex="0056"/>
  <anchor x="547" y="0" name="H"/>
  <anchor x="541" y="-75" name="L"/>
  <anchor x="697" y="0" name="O"/>
  <anchor x="541" y="1147" name="U"/>
  <outline>
    <contour>
      <point x="416" y="0" type="line"/>
      <point x="667" y="0" type="line"/>
      <point x="960" y="821" type="line" smooth="yes"/>
      <point x="1011" y="966"/>
      <point x="1038" y="1033"/>
      <point x="1065" y="1095" type="curve"/>
      <point x="836" y="1095" type="line"/>
      <point x="541" y="195" type="line"/>
      <point x="247" y="1095" type="line"/>
      <point x="18" y="1095" type="line"/>
      <point x="43" y="1033"/>
      <point x="72" y="966"/>
      <point x="123" y="821" type="curve" smooth="yes"/>
    </contour>
  </outline>
</glyph>
<glyph name="X" format="2">
  <advance width="1023"/>
  <unicode hex="0058"/>
  <anchor x="502" y="-75" name="L"/>
  <anchor x="502" y="1147" name="U"/>
  <outline>
    <contour>
      <point x="742" y="0" type="line"/>
      <point x="982" y="0" type="line"/>
      <point x="936" y="61"/>
      <point x="908" y="93"/>
      <point x="812" y="252" type="curve" smooth="yes"/>
      <point x="300" y="1095" type="line"/>
      <point x="56" y="1095" type="line"/>
      <point x="104" y="1032"/>
      <point x="141" y="987"/>
      <point x="236" y="832" type="curve"/>
    </contour>
    <contour>
      <point x="22" y="0" type="curve"/>
      <point x="262" y="0" type="line"/>
      <point x="525" y="456" type="line"/>
      <point x="453" y="710" type="line"/>
      <point x="191" y="255" type="line" smooth="yes"/>
      <point x="99" y="96"/>
      <point x="69" y="64"/>
    </contour>
    <contour>
      <point x="562" y="456" type="line"/>
      <point x="780" y="832" type="line" smooth="yes"/>
      <point x="864" y="979"/>
      <point x="908" y="1037"/>
      <point x="956" y="1095" type="curve"/>
      <point x="712" y="1095" type="line"/>
      <point x="491" y="710" type="line"/>
    </contour>
  </outline>
</glyph>
<glyph name="Y" format="1">
  <advance width="987"/>
  <unicode hex="0059"/>
  <outline>
    <contour>
      <point x="26" y="1092" type="line"/>
      <point x="109" y="980"/>
      <point x="160" y="896"/>
      <point x="217" y="797" type="curve" smooth="yes"/>
      <point x="415" y="457" type="line"/>
      <point x="415" y="325" type="line" smooth="yes"/>
      <point x="415" y="178"/>
      <point x="415" y="60"/>
      <point x="404" y="0" type="curve"/>
      <point x="568" y="0" type="line"/>
      <point x="558" y="60"/>
      <point x="558" y="178"/>
      <point x="558" y="325" type="curve" smooth="yes"/>
      <point x="558" y="451" type="line"/>
      <point x="759" y="797" type="line" smooth="yes"/>
      <point x="816" y="894"/>
      <point x="858" y="965"/>
      <point x="946" y="1092" type="curve"/>
      <point x="774" y="1092" type="line"/>
      <point x="494" y="598" type="line"/>
      <point x="199" y="1092" type="line"/>
    </contour>
    <contour>
      <point x="490" y="1150" type="move" name="above"/>
    </contour>
  </outline>
</glyph>
<glyph name="Z" format="2">
  <advance width="937"/>
  <unicode hex="005A"/>
  <anchor x="476" y="-75" name="L"/>
  <anchor x="476" y="1147" name="U"/>
  <outline>
    <contour>
      <point x="851" y="1095" type="line"/>
      <point x="93" y="1095" type="line"/>
      <point x="93" y="907" type="line"/>
      <point x="159" y="920"/>
      <point x="257" y="922"/>
      <point x="420" y="922" type="curve" smooth="yes"/>
      <point x="594" y="922" type="line"/>
      <point x="48" y="120" type="line"/>
      <point x="48" y="0" type="line"/>
      <point x="873" y="0" type="line"/>
      <point x="873" y="187" type="line"/>
      <point x="813" y="177"/>
      <point x="694" y="172"/>
      <point x="547" y="172" type="curve" smooth="yes"/>
      <point x="311" y="172" type="line"/>
      <point x="851" y="963" type="line"/>
    </contour>
  </outline>
</glyph>
<glyph name="bracketleft" format="2">
  <advance width="637"/>
  <unicode hex="005B"/>
  <outline>
    <contour>
      <point x="532" y="-307" type="line"/>
      <point x="532" y="-150" type="line"/>
      <point x="352" y="-150" type="line"/>
      <point x="352" y="1042" type="line"/>
      <point x="532" y="1042" type="line"/>
      <point x="532" y="1200" type="line"/>
      <point x="142" y="1200" type="line"/>
      <point x="142" y="-307" type="line"/>
    </contour>
  </outline>
</glyph>
<glyph name="bracketright" format="2">
  <advance width="637"/>
  <unicode hex="005D"/>
  <outline>
    <contour>
      <point x="105" y="-307" type="line"/>
      <point x="495" y="-307" type="line"/>
      <point x="495" y="1200" type="line"/>
      <point x="105" y="1200" type="line"/>
      <point x="105" y="1042" type="line"/>
      <point x="285" y="1042" type="line"/>
      <point x="285" y="-150" type="line"/>
      <point x="105" y="-150" type="line"/>
    </contour>
  </outline>
</glyph>
<glyph name="asciicircum" format="2">
  <advance width="636"/>
  <unicode hex="005E"/>
  <anchor x="318" y="1223" name="U"/>
  <outline>
    <contour>
      <point x="112" y="875" type="line"/>
      <point x="318" y="1084" type="line"/>
      <point x="523" y="875" type="line"/>
      <point x="636" y="875" type="line"/>
      <point x="381" y="1197" type="line"/>
      <point x="255" y="1197" type="line"/>
      <point x="0" y="875" type="line"/>
    </contour>
  </outline>
</glyph>
<glyph name="underscore" format="2">
  <advance width="970"/>
  <unicode hex="005F"/>
  <outline>
    <contour>
      <point x="0" y="-277" type="line"/>
      <point x="970" y="-277" type="line"/>
      <point x="970" y="-127" type="line"/>
      <point x="0" y="-127" type="line"/>
    </contour>
  </outline>
</glyph>
<glyph name="grave" format="2">
  <advance width="434"/>
  <unicode hex="0060"/>
  <anchor x="269" y="850" name="_above"/>
  <outline>
    <contour>
      <point x="0" y="1197" type="line"/>
      <point x="314" y="875" type="line"/>
      <point x="434" y="875" type="line"/>
      <point x="172" y="1197" type="line"/>
    </contour>
  </outline>
</glyph>
<glyph name="a" format="2">
  <advance width="903"/>
  <unicode hex="0061"/>
  <anchor x="457" y="0" name="H"/>
  <anchor x="457" y="-75" name="L"/>
  <anchor x="888" y="0" name="O"/>
  <anchor x="903" y="750" name="R"/>
  <anchor x="457" y="825" name="U"/>
  <outline>
    <contour>
      <point x="333" y="-18" type="curve" smooth="yes"/>
      <point x="421" y="-18"/>
      <point x="516" y="17"/>
      <point x="600" y="101" type="curve"/>
      <point x="610" y="59"/>
      <point x="628" y="21"/>
      <point x="637" y="0" type="curve"/>
      <point x="840" y="0" type="line"/>
      <point x="808" y="84"/>
      <point x="787" y="169"/>
      <point x="787" y="277" type="curve" smooth="yes"/>
      <point x="787" y="570" type="line" smooth="yes"/>
      <point x="787" y="689"/>
      <point x="657" y="780"/>
      <point x="461" y="780" type="curve" smooth="yes"/>
      <point x="334" y="780"/>
      <point x="246" y="745"/>
      <point x="161" y="712" type="curve"/>
      <point x="156" y="651"/>
      <point x="154" y="551"/>
      <point x="153" y="518" type="curve"/>
      <point x="241" y="579"/>
      <point x="318" y="612"/>
      <point x="397" y="612" type="curve" smooth="yes"/>
      <point x="510" y="612"/>
      <point x="577" y="588"/>
      <point x="577" y="532" type="curve" smooth="yes"/>
      <point x="577" y="495" type="line"/>
      <point x="546" y="494"/>
      <point x="426" y="486"/>
      <point x="375" y="481" type="curve" smooth="yes"/>
      <point x="143" y="459"/>
      <point x="75" y="328"/>
      <point x="75" y="213" type="curve" smooth="yes"/>
      <point x="75" y="90"/>
      <point x="183" y="-18"/>
    </contour>
    <contour>
      <point x="388" y="153" type="curve" smooth="yes"/>
      <point x="327" y="153"/>
      <point x="285" y="192"/>
      <point x="285" y="240" type="curve" smooth="yes"/>
      <point x="285" y="289"/>
      <point x="316" y="331"/>
      <point x="420" y="342" type="curve" smooth="yes"/>
      <point x="458" y="347"/>
      <point x="547" y="355"/>
      <point x="577" y="356" type="curve"/>
      <point x="577" y="266" type="line"/>
      <point x="505" y="168"/>
      <point x="450" y="153"/>
    </contour>
  </outline>
</glyph>
<glyph name="b" format="2">
  <advance width="911"/>
  <unicode hex="0062"/>
  <anchor x="457" y="0" name="H"/>
  <anchor x="457" y="-75" name="L"/>
  <anchor x="911" y="750" name="R"/>
  <anchor x="457" y="1226" name="U"/>
  <outline>
    <contour>
      <point x="90" y="1200" type="line"/>
      <point x="101" y="1116"/>
      <point x="101" y="954"/>
      <point x="101" y="847" type="curve" smooth="yes"/>
      <point x="101" y="48" type="line"/>
      <point x="214" y="19"/>
      <point x="342" y="-18"/>
      <point x="487" y="-18" type="curve" smooth="yes"/>
      <point x="704" y="-18"/>
      <point x="843" y="147"/>
      <point x="843" y="405" type="curve" smooth="yes"/>
      <point x="843" y="624"/>
      <point x="739" y="780"/>
      <point x="591" y="780" type="curve" smooth="yes"/>
      <point x="469" y="780"/>
      <point x="378" y="717"/>
      <point x="311" y="633" type="curve"/>
      <point x="311" y="700"/>
      <point x="311" y="1200"/>
      <point x="311" y="1200" type="curve"/>
    </contour>
    <contour>
      <point x="311" y="438" type="line"/>
      <point x="353" y="531"/>
      <point x="435" y="596"/>
      <point x="512" y="596" type="curve" smooth="yes"/>
      <point x="594" y="596"/>
      <point x="641" y="513"/>
      <point x="641" y="378" type="curve" smooth="yes"/>
      <point x="641" y="237"/>
      <point x="562" y="142"/>
      <point x="453" y="142" type="curve" smooth="yes"/>
      <point x="403" y="142"/>
      <point x="369" y="153"/>
      <point x="311" y="180" type="curve"/>
    </contour>
  </outline>
</glyph>
<glyph name="c" format="2">
  <advance width="766"/>
  <unicode hex="0063"/>
  <anchor x="416" y="0" name="H"/>
  <anchor x="431" y="-74" name="L"/>
  <anchor x="765" y="750" name="R"/>
  <anchor x="431" y="825" name="U"/>
  <outline>
    <contour>
      <point x="691" y="726" type="line"/>
      <point x="636" y="755"/>
      <point x="558" y="780"/>
      <point x="459" y="780" type="curve" smooth="yes"/>
      <point x="221" y="780"/>
      <point x="67" y="601"/>
      <point x="67" y="367" type="curve" smooth="yes"/>
      <point x="67" y="120"/>
      <point x="231" y="-18"/>
      <point x="433" y="-18" type="curve" smooth="yes"/>
      <point x="545" y="-18"/>
      <point x="630" y="6"/>
      <point x="699" y="52" type="curve"/>
      <point x="676" y="232" type="line"/>
      <point x="611" y="180"/>
      <point x="552" y="150"/>
      <point x="462" y="150" type="curve" smooth="yes"/>
      <point x="342" y="150"/>
      <point x="277" y="243"/>
      <point x="277" y="375" type="curve" smooth="yes"/>
      <point x="277" y="520"/>
      <point x="351" y="615"/>
      <point x="462" y="615" type="curve" smooth="yes"/>
      <point x="547" y="615"/>
      <point x="606" y="591"/>
      <point x="658" y="545" type="curve"/>
    </contour>
  </outline>
</glyph>
<glyph name="d" format="1">
  <advance width="890"/>
  <unicode hex="0064"/>
  <outline>
    <contour>
      <point x="770" y="1197" type="line"/>
      <point x="614" y="1197" type="line"/>
      <point x="627" y="1134"/>
      <point x="633" y="1043"/>
      <point x="633" y="923" type="curve"/>
      <point x="633" y="714" type="line"/>
      <point x="574" y="747"/>
      <point x="498" y="778"/>
      <point x="434" y="778" type="curve" smooth="yes"/>
      <point x="234" y="778"/>
      <point x="79" y="608"/>
      <point x="79" y="344" type="curve" smooth="yes"/>
      <point x="79" y="124"/>
      <point x="196" y="-19"/>
      <point x="378" y="-19" type="curve" smooth="yes"/>
      <point x="487" y="-19"/>
      <point x="579" y="37"/>
      <point x="651" y="139" type="curve"/>
      <point x="663" y="83"/>
      <point x="680" y="25"/>
      <point x="693" y="0" type="curve"/>
      <point x="826" y="0" type="line"/>
      <point x="794" y="84"/>
      <point x="770" y="207"/>
      <point x="770" y="396" type="curve"/>
    </contour>
    <contour>
      <point x="633" y="299" type="line"/>
      <point x="591" y="200"/>
      <point x="495" y="101"/>
      <point x="404" y="101" type="curve" smooth="yes"/>
      <point x="274" y="101"/>
      <point x="217" y="193"/>
      <point x="217" y="366" type="curve" smooth="yes"/>
      <point x="217" y="543"/>
      <point x="321" y="651"/>
      <point x="434" y="651" type="curve" smooth="yes"/>
      <point x="510" y="651"/>
      <point x="558" y="635"/>
      <point x="633" y="595" type="curve"/>
    </contour>
  </outline>
</glyph>
<glyph name="e" format="2">
  <advance width="832"/>
  <unicode hex="0065"/>
  <anchor x="426" y="0" name="H"/>
  <anchor x="441" y="-75" name="L"/>
  <anchor x="675" y="0" name="O"/>
  <anchor x="847" y="750" name="R"/>
  <anchor x="435" y="825" name="U"/>
  <outline>
    <contour>
      <point x="757" y="337" type="line"/>
      <point x="757" y="351"/>
      <point x="756" y="384"/>
      <point x="756" y="399" type="curve" smooth="yes"/>
      <point x="756" y="586"/>
      <point x="693" y="780"/>
      <point x="441" y="780" type="curve" smooth="yes"/>
      <point x="210" y="780"/>
      <point x="67" y="619"/>
      <point x="67" y="371" type="curve" smooth="yes"/>
      <point x="67" y="116"/>
      <point x="243" y="-18"/>
      <point x="441" y="-18" type="curve" smooth="yes"/>
      <point x="558" y="-18"/>
      <point x="653" y="1"/>
      <point x="761" y="56" type="curve"/>
      <point x="745" y="225" type="line"/>
      <point x="652" y="170"/>
      <point x="558" y="150"/>
      <point x="460" y="150" type="curve" smooth="yes"/>
      <point x="336" y="150"/>
      <point x="271" y="219"/>
      <point x="271" y="378" type="curve" smooth="yes"/>
      <point x="271" y="554"/>
      <point x="323" y="622"/>
      <point x="431" y="622" type="curve" smooth="yes"/>
      <point x="519" y="622"/>
      <point x="566" y="577"/>
      <point x="566" y="472" type="curve"/>
      <point x="181" y="472" type="line"/>
      <point x="181" y="337" type="line"/>
    </contour>
  </outline>
</glyph>
<glyph name="i" format="2">
  <advance width="480"/>
  <unicode hex="0069"/>
  <anchor x="247" y="0" name="H"/>
  <anchor x="240" y="-75" name="L"/>
  <anchor x="435" y="0" name="O"/>
  <anchor x="480" y="750" name="R"/>
  <anchor x="240" y="825" name="U"/>
  <outline>
    <contour>
      <point x="123" y="765" type="line"/>
      <point x="133" y="686"/>
      <point x="135" y="543"/>
      <point x="135" y="397" type="curve" smooth="yes"/>
      <point x="135" y="252"/>
      <point x="135" y="0"/>
      <point x="135" y="0" type="curve"/>
      <point x="360" y="0" type="line"/>
      <point x="350" y="80"/>
      <point x="345" y="259"/>
      <point x="345" y="356" type="curve" smooth="yes"/>
      <point x="345" y="418"/>
      <point x="345" y="765"/>
      <point x="345" y="765" type="curve"/>
    </contour>
    <contour>
      <point x="108" y="1038" type="curve" smooth="yes"/>
      <point x="108" y="960"/>
      <point x="164" y="907"/>
      <point x="240" y="907" type="curve" smooth="yes"/>
      <point x="316" y="907"/>
      <point x="371" y="960"/>
      <point x="371" y="1038" type="curve" smooth="yes"/>
      <point x="371" y="1115"/>
      <point x="316" y="1170"/>
      <point x="240" y="1170" type="curve" smooth="yes"/>
      <point x="164" y="1170"/>
      <point x="108" y="1115"/>
    </contour>
  </outline>
</glyph>
<glyph name="k" format="2">
  <advance width="853"/>
  <unicode hex="006B"/>
  <anchor x="705" y="0" name="H"/>
  <anchor x="438" y="-75" name="L"/>
  <anchor x="855" y="750" name="R"/>
  <anchor x="446" y="1226" name="U"/>
  <outline>
    <contour>
      <point x="311" y="0" type="line"/>
      <point x="311" y="1200" type="line"/>
      <point x="90" y="1200" type="line"/>
      <point x="101" y="1135"/>
      <point x="101" y="1008"/>
      <point x="101" y="847" type="curve" smooth="yes"/>
      <point x="101" y="700"/>
      <point x="101" y="0"/>
      <point x="101" y="0" type="curve"/>
    </contour>
    <contour>
      <point x="542" y="765" type="line"/>
      <point x="264" y="427" type="line"/>
      <point x="429" y="396" type="line"/>
      <point x="823" y="765" type="line"/>
    </contour>
    <contour>
      <point x="262" y="427" type="line"/>
      <point x="570" y="0" type="line"/>
      <point x="846" y="0" type="line"/>
      <point x="405" y="498" type="line"/>
    </contour>
  </outline>
</glyph>
<glyph name="l" format="2">
  <advance width="423"/>
  <unicode hex="006C"/>
  <outline>
    <contour>
      <point x="280" y="1197" type="line"/>
      <point x="126" y="1197" type="line"/>
      <point x="137" y="1111"/>
      <point x="142" y="991"/>
      <point x="142" y="845" type="curve"/>
      <point x="142" y="0" type="line"/>
      <point x="295" y="0" type="line"/>
      <point x="285" y="82"/>
      <point x="280" y="258"/>
      <point x="280" y="355" type="curve" smooth="yes"/>
    </contour>
  </outline>
</glyph>
<glyph name="m" format="2">
  <advance width="1320"/>
  <unicode hex="006D"/>
  <anchor x="667" y="0" name="H"/>
  <anchor x="667" y="-75" name="L"/>
  <anchor x="667" y="825" name="U"/>
  <outline>
    <contour>
      <point x="86" y="765" type="line"/>
      <point x="102" y="713"/>
      <point x="123" y="608"/>
      <point x="123" y="461" type="curve" smooth="yes"/>
      <point x="123" y="0" type="line"/>
      <point x="333" y="0" type="line"/>
      <point x="333" y="480" type="line"/>
      <point x="363" y="548"/>
      <point x="420" y="596"/>
      <point x="476" y="596" type="curve" smooth="yes"/>
      <point x="542" y="596"/>
      <point x="562" y="569"/>
      <point x="562" y="427" type="curve" smooth="yes"/>
      <point x="562" y="0" type="line"/>
      <point x="772" y="0" type="line"/>
      <point x="772" y="495" type="line"/>
      <point x="804" y="556"/>
      <point x="860" y="596"/>
      <point x="915" y="596" type="curve" smooth="yes"/>
      <point x="982" y="596"/>
      <point x="1001" y="563"/>
      <point x="1001" y="412" type="curve" smooth="yes"/>
      <point x="1001" y="0" type="line"/>
      <point x="1211" y="0" type="line"/>
      <point x="1211" y="495" type="line" smooth="yes"/>
      <point x="1211" y="680"/>
      <point x="1161" y="780"/>
      <point x="1008" y="780" type="curve" smooth="yes"/>
      <point x="930" y="780"/>
      <point x="848" y="755"/>
      <point x="754" y="654" type="curve"/>
      <point x="729" y="720"/>
      <point x="668" y="780"/>
      <point x="570" y="780" type="curve" smooth="yes"/>
      <point x="483" y="780"/>
      <point x="408" y="756"/>
      <point x="316" y="656" type="curve"/>
      <point x="309" y="690"/>
      <point x="297" y="735"/>
      <point x="281" y="765" type="curve"/>
    </contour>
  </outline>
</glyph>
<glyph name="n" format="2">
  <advance width="933"/>
  <unicode hex="006E"/>
  <anchor x="465" y="0" name="H"/>
  <anchor x="465" y="-75" name="L"/>
  <anchor x="465" y="825" name="U"/>
  <outline>
    <contour>
      <point x="840" y="0" type="line"/>
      <point x="840" y="0"/>
      <point x="840" y="344"/>
      <point x="840" y="468" type="curve" smooth="yes"/>
      <point x="840" y="675"/>
      <point x="748" y="780"/>
      <point x="596" y="780" type="curve" smooth="yes"/>
      <point x="490" y="780"/>
      <point x="402" y="735"/>
      <point x="307" y="626" type="curve"/>
      <point x="302" y="660"/>
      <point x="288" y="735"/>
      <point x="277" y="765" type="curve"/>
      <point x="71" y="765" type="line"/>
      <point x="87" y="713"/>
      <point x="108" y="608"/>
      <point x="108" y="461" type="curve" smooth="yes"/>
      <point x="108" y="315"/>
      <point x="108" y="0"/>
      <point x="108" y="0" type="curve"/>
      <point x="318" y="0" type="line"/>
      <point x="318" y="435" type="line"/>
      <point x="345" y="512"/>
      <point x="427" y="596"/>
      <point x="513" y="596" type="curve" smooth="yes"/>
      <point x="594" y="596"/>
      <point x="630" y="550"/>
      <point x="630" y="412" type="curve" smooth="yes"/>
      <point x="630" y="309"/>
      <point x="630" y="0"/>
      <point x="630" y="0" type="curve"/>
    </contour>
  </outline>
</glyph>
<glyph name="o" format="2">
  <advance width="870"/>
  <unicode hex="006F"/>
  <anchor x="433" y="0" name="H"/>
  <anchor x="435" y="-75" name="L"/>
  <anchor x="592" y="0" name="O"/>
  <anchor x="870" y="750" name="R"/>
  <anchor x="435" y="825" name="U"/>
  <outline>
    <contour>
      <point x="427" y="-18" type="curve" smooth="yes"/>
      <point x="630" y="-18"/>
      <point x="802" y="122"/>
      <point x="802" y="380" type="curve" smooth="yes"/>
      <point x="802" y="638"/>
      <point x="654" y="780"/>
      <point x="442" y="780" type="curve" smooth="yes"/>
      <point x="240" y="780"/>
      <point x="67" y="638"/>
      <point x="67" y="380" type="curve" smooth="yes"/>
      <point x="67" y="122"/>
      <point x="216" y="-18"/>
    </contour>
    <contour>
      <point x="435" y="150" type="curve" smooth="yes"/>
      <point x="332" y="150"/>
      <point x="277" y="237"/>
      <point x="277" y="380" type="curve" smooth="yes"/>
      <point x="277" y="524"/>
      <point x="338" y="611"/>
      <point x="435" y="611" type="curve" smooth="yes"/>
      <point x="537" y="611"/>
      <point x="592" y="524"/>
      <point x="592" y="380" type="curve" smooth="yes"/>
      <point x="592" y="237"/>
      <point x="531" y="150"/>
    </contour>
  </outline>
</glyph>
<glyph name="q" format="1">
  <advance width="845"/>
  <unicode hex="0071"/>
  <outline>
    <contour>
      <point x="595" y="-367" type="line"/>
      <point x="752" y="-367" type="line"/>
      <point x="739" y="-303"/>
      <point x="733" y="-233"/>
      <point x="733" y="-113" type="curve" smooth="yes"/>
      <point x="733" y="-20"/>
      <point x="733" y="722"/>
      <point x="733" y="722" type="curve"/>
      <point x="653" y="750"/>
      <point x="558" y="778"/>
      <point x="467" y="778" type="curve" smooth="yes"/>
      <point x="195" y="778"/>
      <point x="79" y="555"/>
      <point x="79" y="325" type="curve" smooth="yes"/>
      <point x="79" y="87"/>
      <point x="240" y="-19"/>
      <point x="378" y="-19" type="curve" smooth="yes"/>
      <point x="446" y="-19"/>
      <point x="517" y="14"/>
      <point x="595" y="104" type="curve"/>
    </contour>
    <contour>
      <point x="595" y="274" type="line"/>
      <point x="534" y="163"/>
      <point x="458" y="108"/>
      <point x="389" y="108" type="curve" smooth="yes"/>
      <point x="308" y="108"/>
      <point x="217" y="178"/>
      <point x="217" y="363" type="curve" smooth="yes"/>
      <point x="217" y="503"/>
      <point x="281" y="651"/>
      <point x="445" y="651" type="curve" smooth="yes"/>
      <point x="491" y="651"/>
      <point x="550" y="638"/>
      <point x="595" y="620" type="curve"/>
    </contour>
  </outline>
</glyph>
<glyph name="r" format="2">
  <advance width="746"/>
  <unicode hex="0072"/>
  <anchor x="213" y="0" name="H"/>
  <anchor x="206" y="-75" name="L"/>
  <anchor x="412" y="825" name="U"/>
  <outline>
    <contour>
      <point x="318" y="0" type="line"/>
      <point x="318" y="397" type="line"/>
      <point x="345" y="490"/>
      <point x="427" y="585"/>
      <point x="477" y="585" type="curve" smooth="yes"/>
      <point x="541" y="585"/>
      <point x="566" y="540"/>
      <point x="571" y="472" type="curve"/>
      <point x="738" y="498" type="line"/>
      <point x="738" y="651"/>
      <point x="684" y="780"/>
      <point x="543" y="780" type="curve" smooth="yes"/>
      <point x="475" y="780"/>
      <point x="380" y="723"/>
      <point x="307" y="618" type="curve"/>
      <point x="302" y="654"/>
      <point x="288" y="733"/>
      <point x="277" y="765" type="curve"/>
      <point x="71" y="765" type="line"/>
      <point x="87" y="713"/>
      <point x="108" y="608"/>
      <point x="108" y="461" type="curve" smooth="yes"/>
      <point x="108" y="0" type="line"/>
    </contour>
  </outline>
</glyph>
<glyph name="s" format="2">
  <advance width="776"/>
  <unicode hex="0073"/>
  <anchor x="386" y="0" name="H"/>
  <anchor x="386" y="-75" name="L"/>
  <anchor x="397" y="825" name="U"/>
  <outline>
    <contour>
      <point x="393" y="-18" type="curve" smooth="yes"/>
      <point x="576" y="-18"/>
      <point x="720" y="92"/>
      <point x="720" y="236" type="curve" smooth="yes"/>
      <point x="720" y="378"/>
      <point x="591" y="438"/>
      <point x="435" y="468" type="curve" smooth="yes"/>
      <point x="303" y="495"/>
      <point x="285" y="510"/>
      <point x="285" y="547" type="curve" smooth="yes"/>
      <point x="285" y="577"/>
      <point x="313" y="615"/>
      <point x="401" y="615" type="curve" smooth="yes"/>
      <point x="505" y="615"/>
      <point x="593" y="573"/>
      <point x="649" y="543" type="curve"/>
      <point x="678" y="720" type="line"/>
      <point x="620" y="748"/>
      <point x="531" y="780"/>
      <point x="408" y="780" type="curve" smooth="yes"/>
      <point x="151" y="780"/>
      <point x="82" y="613"/>
      <point x="82" y="540" type="curve" smooth="yes"/>
      <point x="82" y="445"/>
      <point x="128" y="369"/>
      <point x="341" y="324" type="curve" smooth="yes"/>
      <point x="484" y="293"/>
      <point x="517" y="261"/>
      <point x="517" y="217" type="curve" smooth="yes"/>
      <point x="517" y="182"/>
      <point x="468" y="150"/>
      <point x="397" y="150" type="curve" smooth="yes"/>
      <point x="309" y="150"/>
      <point x="190" y="190"/>
      <point x="116" y="251" type="curve"/>
      <point x="75" y="67" type="line"/>
      <point x="140" y="21"/>
      <point x="259" y="-18"/>
    </contour>
  </outline>
</glyph>
<glyph name="t" format="2">
  <advance width="663"/>
  <unicode hex="0074"/>
  <anchor x="397" y="0" name="H"/>
  <anchor x="397" y="-75" name="L"/>
  <anchor x="663" y="750" name="R"/>
  <anchor x="270" y="1020" name="U"/>
  <outline>
    <contour>
      <point x="165" y="202" type="line"/>
      <point x="165" y="29"/>
      <point x="280" y="-18"/>
      <point x="422" y="-18" type="curve" smooth="yes"/>
      <point x="476" y="-18"/>
      <point x="543" y="-2"/>
      <point x="615" y="42" type="curve"/>
      <point x="615" y="210" type="line"/>
      <point x="555" y="174"/>
      <point x="508" y="154"/>
      <point x="470" y="154" type="curve" smooth="yes"/>
      <point x="402" y="154"/>
      <point x="375" y="176"/>
      <point x="375" y="346" type="curve" smooth="yes"/>
      <point x="375" y="990" type="line"/>
      <point x="165" y="990" type="line"/>
    </contour>
    <contour>
      <point x="603" y="603" type="line"/>
      <point x="603" y="753" type="line"/>
      <point x="22" y="753" type="line"/>
      <point x="22" y="603" type="line"/>
    </contour>
  </outline>
</glyph>
<glyph name="u" format="2">
  <advance width="933"/>
  <unicode hex="0075"/>
  <anchor x="386" y="0" name="H"/>
  <anchor x="461" y="-75" name="L"/>
  <anchor x="517" y="0" name="O"/>
  <anchor x="943" y="750" name="R"/>
  <anchor x="461" y="825" name="U"/>
  <outline>
    <contour>
      <point x="870" y="0" type="line"/>
      <point x="838" y="84"/>
      <point x="821" y="192"/>
      <point x="821" y="337" type="curve" smooth="yes"/>
      <point x="821" y="484"/>
      <point x="821" y="765"/>
      <point x="821" y="765" type="curve"/>
      <point x="596" y="765" type="line"/>
      <point x="609" y="673"/>
      <point x="611" y="624"/>
      <point x="611" y="525" type="curve" smooth="yes"/>
      <point x="611" y="313" type="line"/>
      <point x="580" y="244"/>
      <point x="488" y="154"/>
      <point x="420" y="154" type="curve" smooth="yes"/>
      <point x="343" y="154"/>
      <point x="318" y="213"/>
      <point x="318" y="348" type="curve" smooth="yes"/>
      <point x="318" y="452"/>
      <point x="318" y="765"/>
      <point x="318" y="765" type="curve"/>
      <point x="93" y="765" type="line"/>
      <point x="107" y="675"/>
      <point x="108" y="620"/>
      <point x="108" y="525" type="curve" smooth="yes"/>
      <point x="108" y="510"/>
      <point x="108" y="318"/>
      <point x="108" y="303" type="curve" smooth="yes"/>
      <point x="108" y="90"/>
      <point x="187" y="-18"/>
      <point x="343" y="-18" type="curve" smooth="yes"/>
      <point x="446" y="-18"/>
      <point x="541" y="36"/>
      <point x="630" y="138" type="curve"/>
      <point x="637" y="87"/>
      <point x="657" y="32"/>
      <point x="671" y="0" type="curve"/>
    </contour>
  </outline>
</glyph>
<glyph name="y" format="2">
  <advance width="825"/>
  <unicode hex="0079"/>
  <anchor x="633" y="-75" name="L"/>
  <anchor x="866" y="750" name="R"/>
  <anchor x="423" y="825" name="U"/>
  <outline>
    <contour>
      <point x="708" y="498" type="line" smooth="yes"/>
      <point x="733" y="568"/>
      <point x="765" y="648"/>
      <point x="817" y="765" type="curve"/>
      <point x="582" y="765" type="line"/>
      <point x="582" y="765"/>
      <point x="484" y="411"/>
      <point x="429" y="219" type="curve"/>
      <point x="249" y="765" type="line"/>
      <point x="15" y="765" type="line"/>
      <point x="72" y="648"/>
      <point x="108" y="567"/>
      <point x="135" y="498" type="curve" smooth="yes"/>
      <point x="333" y="-13" type="line"/>
      <point x="274" y="-156"/>
      <point x="228" y="-181"/>
      <point x="183" y="-181" type="curve" smooth="yes"/>
      <point x="134" y="-181"/>
      <point x="76" y="-151"/>
      <point x="45" y="-125" type="curve"/>
      <point x="-7" y="-288" type="line"/>
      <point x="47" y="-329"/>
      <point x="115" y="-352"/>
      <point x="183" y="-352" type="curve" smooth="yes"/>
      <point x="320" y="-352"/>
      <point x="423" y="-290"/>
      <point x="528" y="0" type="curve" smooth="yes"/>
    </contour>
  </outline>
</glyph>
<glyph name="z" format="2">
  <advance width="795"/>
  <unicode hex="007A"/>
  <anchor x="405" y="0" name="H"/>
  <anchor x="405" y="-75" name="L"/>
  <anchor x="405" y="825" name="U"/>
  <outline>
    <contour>
      <point x="93" y="765" type="line"/>
      <point x="93" y="592" type="line"/>
      <point x="121" y="603"/>
      <point x="165" y="603"/>
      <point x="210" y="603" type="curve" smooth="yes"/>
      <point x="461" y="603" type="line"/>
      <point x="71" y="119" type="line"/>
      <point x="71" y="0" type="line"/>
      <point x="731" y="0" type="line"/>
      <point x="731" y="172" type="line"/>
      <point x="676" y="161"/>
      <point x="619" y="161"/>
      <point x="566" y="161" type="curve" smooth="yes"/>
      <point x="322" y="161" type="line"/>
      <point x="720" y="657" type="line"/>
      <point x="720" y="765" type="line"/>
    </contour>
  </outline>
</glyph>
<glyph name="braceleft" format="2">
  <advance width="780"/>
  <unicode hex="007B"/>
  <outline>
    <contour>
      <point x="671" y="-134" type="line"/>
      <point x="621" y="-120"/>
      <point x="528" y="-91"/>
      <point x="513" y="-75" type="curve" smooth="yes"/>
      <point x="487" y="-45"/>
      <point x="497" y="308"/>
      <point x="483" y="333" type="curve" smooth="yes"/>
      <point x="465" y="368"/>
      <point x="362" y="435"/>
      <point x="362" y="461" type="curve" smooth="yes"/>
      <point x="362" y="487"/>
      <point x="465" y="555"/>
      <point x="482" y="588" type="curve" smooth="yes"/>
      <point x="495" y="615"/>
      <point x="487" y="966"/>
      <point x="513" y="997" type="curve" smooth="yes"/>
      <point x="526" y="1013"/>
      <point x="605" y="1042"/>
      <point x="652" y="1056" type="curve"/>
      <point x="615" y="1230" type="line"/>
      <point x="519" y="1209"/>
      <point x="376" y="1171"/>
      <point x="341" y="1136" type="curve" smooth="yes"/>
      <point x="285" y="1081"/>
      <point x="294" y="639"/>
      <point x="277" y="615" type="curve" smooth="yes"/>
      <point x="255" y="582"/>
      <point x="127" y="502"/>
      <point x="127" y="461" type="curve" smooth="yes"/>
      <point x="127" y="420"/>
      <point x="255" y="339"/>
      <point x="277" y="307" type="curve" smooth="yes"/>
      <point x="294" y="283"/>
      <point x="285" y="-159"/>
      <point x="341" y="-213" type="curve" smooth="yes"/>
      <point x="378" y="-249"/>
      <point x="531" y="-287"/>
      <point x="633" y="-307" type="curve"/>
    </contour>
  </outline>
</glyph>
<glyph name="bar" format="2">
  <advance width="517"/>
  <unicode hex="007C"/>
  <outline>
    <contour>
      <point x="180" y="1200" type="line"/>
      <point x="180" y="-292" type="line"/>
      <point x="337" y="-292" type="line"/>
      <point x="337" y="1200" type="line"/>
    </contour>
  </outline>
</glyph>
<glyph name="braceright" format="2">
  <advance width="780"/>
  <unicode hex="007D"/>
  <outline>
    <contour>
      <point x="135" y="-307" type="line"/>
      <point x="237" y="-287"/>
      <point x="390" y="-249"/>
      <point x="427" y="-213" type="curve" smooth="yes"/>
      <point x="483" y="-159"/>
      <point x="474" y="283"/>
      <point x="491" y="307" type="curve" smooth="yes"/>
      <point x="513" y="339"/>
      <point x="641" y="420"/>
      <point x="641" y="461" type="curve" smooth="yes"/>
      <point x="641" y="502"/>
      <point x="513" y="582"/>
      <point x="491" y="615" type="curve" smooth="yes"/>
      <point x="474" y="639"/>
      <point x="483" y="1081"/>
      <point x="427" y="1136" type="curve" smooth="yes"/>
      <point x="392" y="1171"/>
      <point x="249" y="1209"/>
      <point x="153" y="1230" type="curve"/>
      <point x="116" y="1056" type="line"/>
      <point x="163" y="1042"/>
      <point x="242" y="1013"/>
      <point x="255" y="997" type="curve" smooth="yes"/>
      <point x="281" y="966"/>
      <point x="273" y="615"/>
      <point x="286" y="588" type="curve" smooth="yes"/>
      <point x="303" y="555"/>
      <point x="406" y="487"/>
      <point x="406" y="461" type="curve" smooth="yes"/>
      <point x="406" y="435"/>
      <point x="303" y="368"/>
      <point x="285" y="333" type="curve" smooth="yes"/>
      <point x="271" y="308"/>
      <point x="281" y="-45"/>
      <point x="255" y="-75" type="curve" smooth="yes"/>
      <point x="240" y="-91"/>
      <point x="147" y="-120"/>
      <point x="97" y="-134" type="curve"/>
    </contour>
  </outline>
</glyph>
<glyph name="asciitilde" format="2">
  <advance width="836"/>
  <unicode hex="007E"/>
  <outline>
    <contour>
      <point x="618" y="247" type="curve" smooth="yes"/>
      <point x="738" y="247"/>
      <point x="810" y="384"/>
      <point x="810" y="480" type="curve"/>
      <point x="701" y="480" type="line"/>
      <point x="696" y="445"/>
      <point x="673" y="405"/>
      <point x="611" y="405" type="curve" smooth="yes"/>
      <point x="449" y="405"/>
      <point x="345" y="483"/>
      <point x="195" y="483" type="curve" smooth="yes"/>
      <point x="78" y="483"/>
      <point x="15" y="350"/>
      <point x="15" y="258" type="curve"/>
      <point x="123" y="258" type="line"/>
      <point x="127" y="295"/>
      <point x="151" y="326"/>
      <point x="210" y="326" type="curve" smooth="yes"/>
      <point x="326" y="326"/>
      <point x="461" y="247"/>
    </contour>
  </outline>
</glyph>
<glyph name="nbspace" format="1">
  <advance width="453"/>
  <unicode hex="00A0"/>
  <outline>
    <contour>
      <point x="168" y="139" type="move" name="alef"/>
    </contour>
    <contour>
      <point x="168" y="485" type="move" name="diaA"/>
    </contour>
    <contour>
      <point x="168" y="-523" type="move" name="diaB"/>
    </contour>
  </outline>
</glyph>
<glyph name="exclamdown" format="2">
  <advance width="585"/>
  <unicode hex="00A1"/>
  <outline>
    <contour>
      <point x="153" y="-318" type="curve"/>
      <point x="405" y="-318" type="line"/>
      <point x="375" y="6"/>
      <point x="379" y="221"/>
      <point x="375" y="438" type="curve"/>
      <point x="183" y="438" type="line"/>
      <point x="178" y="221"/>
      <point x="182" y="6"/>
    </contour>
    <contour>
      <point x="281" y="570" type="curve" smooth="yes"/>
      <point x="357" y="570"/>
      <point x="412" y="624"/>
      <point x="412" y="701" type="curve" smooth="yes"/>
      <point x="412" y="779"/>
      <point x="357" y="832"/>
      <point x="281" y="832" type="curve" smooth="yes"/>
      <point x="205" y="832"/>
      <point x="150" y="779"/>
      <point x="150" y="701" type="curve" smooth="yes"/>
      <point x="150" y="624"/>
      <point x="205" y="570"/>
    </contour>
  </outline>
</glyph>
<glyph name="cent" format="2">
  <advance width="898"/>
  <unicode hex="00A2"/>
  <outline>
    <contour>
      <point x="297" y="794"/>
      <point x="154" y="617"/>
      <point x="154" y="404" type="curve" smooth="yes"/>
      <point x="154" y="177"/>
      <point x="307" y="37"/>
      <point x="498" y="37" type="curve" smooth="yes"/>
      <point x="604" y="37"/>
      <point x="672" y="62"/>
      <point x="743" y="116" type="curve"/>
      <point x="730" y="240" type="line"/>
      <point x="667" y="185"/>
      <point x="598" y="155"/>
      <point x="513" y="155" type="curve" smooth="yes"/>
      <point x="375" y="155"/>
      <point x="288" y="258"/>
      <point x="288" y="411" type="curve" smooth="yes"/>
      <point x="288" y="579"/>
      <point x="386" y="677"/>
      <point x="513" y="677" type="curve" smooth="yes"/>
      <point x="585" y="677"/>
      <point x="647" y="654"/>
      <point x="712" y="605" type="curve"/>
      <point x="736" y="734" type="line"/>
      <point x="684" y="770"/>
      <point x="617" y="794"/>
      <point x="522" y="794" type="curve" smooth="yes"/>
    </contour>
    <contour>
      <point x="453" y="987" type="line"/>
      <point x="453" y="-158" type="line"/>
      <point x="550" y="-158" type="line"/>
      <point x="550" y="987" type="line"/>
    </contour>
  </outline>
</glyph>
<glyph name="sterling" format="2">
  <advance width="930"/>
  <unicode hex="00A3"/>
  <outline>
    <contour>
      <point x="639" y="652" type="line"/>
      <point x="112" y="652" type="line"/>
      <point x="112" y="502" type="line"/>
      <point x="639" y="502" type="line"/>
    </contour>
    <contour>
      <point x="805" y="183" type="line"/>
      <point x="750" y="173"/>
      <point x="641" y="172"/>
      <point x="506" y="172" type="curve" smooth="yes"/>
      <point x="359" y="172" type="line"/>
      <point x="417" y="242"/>
      <point x="434" y="323"/>
      <point x="434" y="431" type="curve" smooth="yes"/>
      <point x="434" y="543"/>
      <point x="405" y="674"/>
      <point x="405" y="791" type="curve" smooth="yes"/>
      <point x="405" y="899"/>
      <point x="456" y="941"/>
      <point x="533" y="941" type="curve" smooth="yes"/>
      <point x="581" y="941"/>
      <point x="658" y="924"/>
      <point x="699" y="896" type="curve"/>
      <point x="734" y="1061" type="line"/>
      <point x="684" y="1094"/>
      <point x="596" y="1113"/>
      <point x="533" y="1113" type="curve" smooth="yes"/>
      <point x="321" y="1113"/>
      <point x="192" y="999"/>
      <point x="192" y="768" type="curve" smooth="yes"/>
      <point x="192" y="642"/>
      <point x="224" y="514"/>
      <point x="224" y="376" type="curve" smooth="yes"/>
      <point x="224" y="277"/>
      <point x="172" y="193"/>
      <point x="112" y="142" type="curve"/>
      <point x="112" y="0" type="line"/>
      <point x="805" y="0" type="line"/>
    </contour>
  </outline>
</glyph>
<glyph name="currency" format="2">
  <advance width="930"/>
  <unicode hex="00A4"/>
  <outline>
    <contour>
      <point x="900" y="315" type="line"/>
      <point x="743" y="473" type="line"/>
      <point x="784" y="528"/>
      <point x="800" y="585"/>
      <point x="800" y="657" type="curve" smooth="yes"/>
      <point x="800" y="729"/>
      <point x="780" y="792"/>
      <point x="741" y="846" type="curve"/>
      <point x="900" y="1006" type="line"/>
      <point x="811" y="1096" type="line"/>
      <point x="648" y="933" type="line"/>
      <point x="596" y="974"/>
      <point x="538" y="993"/>
      <point x="468" y="993" type="curve" smooth="yes"/>
      <point x="396" y="993"/>
      <point x="335" y="975"/>
      <point x="280" y="935" type="curve"/>
      <point x="119" y="1096" type="line"/>
      <point x="29" y="1007" type="line"/>
      <point x="190" y="846" type="line"/>
      <point x="145" y="792"/>
      <point x="129" y="726"/>
      <point x="129" y="655" type="curve" smooth="yes"/>
      <point x="129" y="583"/>
      <point x="146" y="528"/>
      <point x="187" y="472" type="curve"/>
      <point x="29" y="314" type="line"/>
      <point x="119" y="225" type="line"/>
      <point x="277" y="383" type="line"/>
      <point x="334" y="337"/>
      <point x="391" y="320"/>
      <point x="468" y="320" type="curve" smooth="yes"/>
      <point x="538" y="320"/>
      <point x="597" y="339"/>
      <point x="652" y="384" type="curve"/>
      <point x="811" y="225" type="line"/>
    </contour>
    <contour>
      <point x="678" y="657" type="curve" smooth="yes"/>
      <point x="678" y="536"/>
      <point x="590" y="441"/>
      <point x="468" y="441" type="curve" smooth="yes"/>
      <point x="343" y="441"/>
      <point x="251" y="531"/>
      <point x="251" y="655" type="curve" smooth="yes"/>
      <point x="251" y="782"/>
      <point x="342" y="871"/>
      <point x="468" y="871" type="curve" smooth="yes"/>
      <point x="589" y="871"/>
      <point x="678" y="777"/>
    </contour>
  </outline>
</glyph>
<glyph name="yen" format="2">
  <advance width="898"/>
  <unicode hex="00A5"/>
  <outline>
    <contour>
      <point x="406" y="398" type="line"/>
      <point x="503" y="480" type="line"/>
      <point x="199" y="1037" type="line"/>
      <point x="47" y="1037" type="line"/>
      <point x="121" y="932"/>
      <point x="164" y="851"/>
      <point x="214" y="757" type="curve" smooth="yes"/>
    </contour>
    <contour>
      <point x="494" y="398" type="line"/>
      <point x="686" y="757" type="line" smooth="yes"/>
      <point x="735" y="849"/>
      <point x="772" y="917"/>
      <point x="849" y="1037" type="curve"/>
      <point x="698" y="1037" type="line"/>
      <point x="408" y="480" type="line"/>
    </contour>
    <contour>
      <point x="387" y="494" type="line"/>
      <point x="387" y="309" type="line" smooth="yes"/>
      <point x="387" y="168"/>
      <point x="387" y="57"/>
      <point x="377" y="0" type="curve"/>
      <point x="520" y="0" type="line"/>
      <point x="510" y="57"/>
      <point x="510" y="168"/>
      <point x="510" y="309" type="curve" smooth="yes"/>
      <point x="510" y="494" type="line"/>
    </contour>
    <contour>
      <point x="149" y="239" type="line"/>
      <point x="754" y="239" type="line"/>
      <point x="754" y="348" type="line"/>
      <point x="149" y="348" type="line"/>
    </contour>
    <contour>
      <point x="149" y="426" type="line"/>
      <point x="754" y="426" type="line"/>
      <point x="754" y="535" type="line"/>
      <point x="149" y="535" type="line"/>
    </contour>
  </outline>
</glyph>
<glyph name="brokenbar" format="2">
  <advance width="798"/>
  <unicode hex="00A6"/>
  <outline>
    <contour>
      <point x="322" y="-292" type="line"/>
      <point x="480" y="-292" type="line"/>
      <point x="480" y="333" type="line"/>
      <point x="322" y="333" type="line"/>
    </contour>
    <contour>
      <point x="322" y="581" type="line"/>
      <point x="480" y="581" type="line"/>
      <point x="480" y="1200" type="line"/>
      <point x="322" y="1200" type="line"/>
    </contour>
  </outline>
</glyph>
<glyph name="section" format="2">
  <advance width="821"/>
  <unicode hex="00A7"/>
  <outline>
    <contour>
      <point x="75" y="-266" type="line"/>
      <point x="140" y="-312"/>
      <point x="259" y="-352"/>
      <point x="393" y="-352" type="curve" smooth="yes"/>
      <point x="576" y="-352"/>
      <point x="720" y="-228"/>
      <point x="720" y="-69" type="curve" smooth="yes"/>
      <point x="720" y="72"/>
      <point x="644" y="144"/>
      <point x="502" y="240" type="curve" smooth="yes"/>
      <point x="386" y="319"/>
      <point x="276" y="393"/>
      <point x="276" y="450" type="curve" smooth="yes"/>
      <point x="276" y="508"/>
      <point x="323" y="541"/>
      <point x="429" y="541" type="curve"/>
      <point x="429" y="713" type="line"/>
      <point x="170" y="713"/>
      <point x="82" y="556"/>
      <point x="82" y="442" type="curve" smooth="yes"/>
      <point x="82" y="345"/>
      <point x="156" y="251"/>
      <point x="324" y="143" type="curve" smooth="yes"/>
      <point x="460" y="54"/>
      <point x="520" y="-8"/>
      <point x="520" y="-73" type="curve" smooth="yes"/>
      <point x="520" y="-150"/>
      <point x="458" y="-184"/>
      <point x="397" y="-184" type="curve" smooth="yes"/>
      <point x="309" y="-184"/>
      <point x="190" y="-144"/>
      <point x="116" y="-83" type="curve"/>
    </contour>
    <contour>
      <point x="678" y="1053" type="line"/>
      <point x="620" y="1082"/>
      <point x="531" y="1113"/>
      <point x="408" y="1113" type="curve" smooth="yes"/>
      <point x="151" y="1113"/>
      <point x="82" y="939"/>
      <point x="82" y="866" type="curve" smooth="yes"/>
      <point x="82" y="759"/>
      <point x="168" y="671"/>
      <point x="339" y="574" type="curve" smooth="yes"/>
      <point x="483" y="493"/>
      <point x="525" y="452"/>
      <point x="525" y="408" type="curve" smooth="yes"/>
      <point x="525" y="343"/>
      <point x="468" y="310"/>
      <point x="366" y="310" type="curve"/>
      <point x="366" y="142" type="line"/>
      <point x="623" y="142"/>
      <point x="720" y="276"/>
      <point x="720" y="420" type="curve" smooth="yes"/>
      <point x="720" y="519"/>
      <point x="654" y="591"/>
      <point x="501" y="685" type="curve" smooth="yes"/>
      <point x="351" y="778"/>
      <point x="281" y="822"/>
      <point x="281" y="873" type="curve" smooth="yes"/>
      <point x="281" y="903"/>
      <point x="313" y="945"/>
      <point x="401" y="945" type="curve" smooth="yes"/>
      <point x="505" y="945"/>
      <point x="593" y="903"/>
      <point x="649" y="874" type="curve"/>
    </contour>
  </outline>
</glyph>
<glyph name="dieresis" format="2">
  <advance width="508"/>
  <unicode hex="00A8"/>
  <anchor x="256" y="850" name="_above"/>
  <outline>
    <contour>
      <point x="314" y="951"/>
      <point x="356" y="904"/>
      <point x="411" y="904" type="curve" smooth="yes"/>
      <point x="467" y="904"/>
      <point x="508" y="951"/>
      <point x="508" y="1006" type="curve" smooth="yes"/>
      <point x="508" y="1061"/>
      <point x="467" y="1107"/>
      <point x="411" y="1107" type="curve" smooth="yes"/>
      <point x="356" y="1107"/>
      <point x="314" y="1061"/>
      <point x="314" y="1006" type="curve" smooth="yes"/>
    </contour>
    <contour>
      <point x="0" y="951"/>
      <point x="42" y="904"/>
      <point x="97" y="904" type="curve" smooth="yes"/>
      <point x="154" y="904"/>
      <point x="195" y="951"/>
      <point x="195" y="1006" type="curve" smooth="yes"/>
      <point x="195" y="1061"/>
      <point x="154" y="1107"/>
      <point x="97" y="1107" type="curve" smooth="yes"/>
      <point x="42" y="1107"/>
      <point x="0" y="1061"/>
      <point x="0" y="1006" type="curve" smooth="yes"/>
    </contour>
  </outline>
</glyph>
<glyph name="copyright" format="2">
  <advance width="1133"/>
  <unicode hex="00A9"/>
  <outline>
    <contour>
      <point x="788" y="1021"/>
      <point x="1002" y="857"/>
      <point x="1002" y="545" type="curve" smooth="yes"/>
      <point x="1002" y="236"/>
      <point x="788" y="71"/>
      <point x="564" y="71" type="curve" smooth="yes"/>
      <point x="341" y="71"/>
      <point x="131" y="236"/>
      <point x="131" y="545" type="curve" smooth="yes"/>
      <point x="131" y="857"/>
      <point x="341" y="1021"/>
      <point x="564" y="1021" type="curve" smooth="yes"/>
    </contour>
    <contour>
      <point x="297" y="1111"/>
      <point x="37" y="920"/>
      <point x="37" y="545" type="curve" smooth="yes"/>
      <point x="37" y="164"/>
      <point x="297" y="-19"/>
      <point x="564" y="-19" type="curve" smooth="yes"/>
      <point x="825" y="-19"/>
      <point x="1096" y="164"/>
      <point x="1096" y="545" type="curve" smooth="yes"/>
      <point x="1096" y="920"/>
      <point x="825" y="1111"/>
      <point x="564" y="1111" type="curve" smooth="yes"/>
    </contour>
    <contour>
      <point x="755" y="378" type="line"/>
      <point x="703" y="324"/>
      <point x="638" y="288"/>
      <point x="568" y="288" type="curve" smooth="yes"/>
      <point x="441" y="288"/>
      <point x="359" y="417"/>
      <point x="359" y="550" type="curve" smooth="yes"/>
      <point x="359" y="719"/>
      <point x="456" y="812"/>
      <point x="573" y="812" type="curve" smooth="yes"/>
      <point x="630" y="812"/>
      <point x="680" y="791"/>
      <point x="740" y="737" type="curve"/>
      <point x="770" y="826" type="line"/>
      <point x="702" y="878"/>
      <point x="640" y="894"/>
      <point x="573" y="894" type="curve" smooth="yes"/>
      <point x="420" y="894"/>
      <point x="265" y="769"/>
      <point x="265" y="539" type="curve" smooth="yes"/>
      <point x="265" y="338"/>
      <point x="384" y="201"/>
      <point x="560" y="201" type="curve" smooth="yes"/>
      <point x="634" y="201"/>
      <point x="719" y="228"/>
      <point x="774" y="280" type="curve"/>
    </contour>
  </outline>
</glyph>
<glyph name="ordfeminine" format="2">
  <advance width="607"/>
  <unicode hex="00AA"/>
  <outline>
    <contour>
      <point x="419" y="659" type="line"/>
      <point x="419" y="624"/>
      <point x="431" y="540"/>
      <point x="445" y="516" type="curve"/>
      <point x="575" y="516" type="line"/>
      <point x="556" y="570"/>
      <point x="544" y="652"/>
      <point x="544" y="776" type="curve" smooth="yes"/>
      <point x="544" y="1002" type="line"/>
      <point x="489" y="1014"/>
      <point x="414" y="1023"/>
      <point x="345" y="1023" type="curve" smooth="yes"/>
      <point x="142" y="1023"/>
      <point x="53" y="872"/>
      <point x="53" y="716" type="curve" smooth="yes"/>
      <point x="53" y="579"/>
      <point x="117" y="504"/>
      <point x="200" y="504" type="curve" smooth="yes"/>
      <point x="294" y="504"/>
      <point x="378" y="615"/>
      <point x="419" y="710" type="curve"/>
    </contour>
    <contour>
      <point x="404" y="888" type="line" smooth="yes"/>
      <point x="404" y="829"/>
      <point x="316" y="621"/>
      <point x="243" y="621" type="curve" smooth="yes"/>
      <point x="215" y="621"/>
      <point x="190" y="659"/>
      <point x="190" y="716" type="curve" smooth="yes"/>
      <point x="190" y="817"/>
      <point x="222" y="914"/>
      <point x="324" y="914" type="curve" smooth="yes"/>
      <point x="365" y="914"/>
      <point x="390" y="909"/>
      <point x="404" y="905" type="curve"/>
    </contour>
    <contour>
      <point x="60" y="338" type="line"/>
      <point x="577" y="338" type="line"/>
      <point x="577" y="450" type="line"/>
      <point x="60" y="450" type="line"/>
    </contour>
  </outline>
</glyph>
<glyph name="guillemetleft" format="2">
  <advance width="932"/>
  <unicode hex="00AB"/>
  <outline>
    <contour>
      <point x="439" y="46" type="line"/>
      <point x="358" y="154"/>
      <point x="309" y="233"/>
      <point x="309" y="385" type="curve" smooth="yes"/>
      <point x="309" y="532"/>
      <point x="358" y="633"/>
      <point x="435" y="722" type="curve"/>
      <point x="382" y="778" type="line"/>
      <point x="314" y="734"/>
      <point x="113" y="607"/>
      <point x="113" y="385" type="curve" smooth="yes"/>
      <point x="113" y="165"/>
      <point x="318" y="37"/>
      <point x="382" y="-10" type="curve"/>
    </contour>
    <contour>
      <point x="819" y="46" type="line"/>
      <point x="738" y="154"/>
      <point x="689" y="233"/>
      <point x="689" y="385" type="curve" smooth="yes"/>
      <point x="689" y="532"/>
      <point x="738" y="633"/>
      <point x="815" y="722" type="curve"/>
      <point x="762" y="778" type="line"/>
      <point x="694" y="734"/>
      <point x="493" y="607"/>
      <point x="493" y="385" type="curve" smooth="yes"/>
      <point x="493" y="165"/>
      <point x="698" y="37"/>
      <point x="762" y="-10" type="curve"/>
    </contour>
  </outline>
</glyph>
<glyph name="logicalnot" format="2">
  <advance width="900"/>
  <unicode hex="00AC"/>
  <outline>
    <contour>
      <point x="652" y="255" type="line"/>
      <point x="810" y="255" type="line"/>
      <point x="810" y="622" type="line"/>
      <point x="71" y="622" type="line"/>
      <point x="71" y="465" type="line"/>
      <point x="652" y="465" type="line"/>
    </contour>
  </outline>
</glyph>
<glyph name="registered" format="2">
  <advance width="1158"/>
  <unicode hex="00AE"/>
  <outline>
    <contour>
      <point x="581" y="-18" type="curve" smooth="yes"/>
      <point x="847" y="-18"/>
      <point x="1125" y="165"/>
      <point x="1125" y="547" type="curve" smooth="yes"/>
      <point x="1125" y="922"/>
      <point x="847" y="1113"/>
      <point x="581" y="1113" type="curve" smooth="yes"/>
      <point x="303" y="1113"/>
      <point x="33" y="922"/>
      <point x="33" y="547" type="curve" smooth="yes"/>
      <point x="33" y="165"/>
      <point x="303" y="-18"/>
    </contour>
    <contour>
      <point x="581" y="102" type="curve" smooth="yes"/>
      <point x="363" y="102"/>
      <point x="159" y="256"/>
      <point x="159" y="547" type="curve" smooth="yes"/>
      <point x="159" y="838"/>
      <point x="363" y="993"/>
      <point x="581" y="993" type="curve" smooth="yes"/>
      <point x="795" y="993"/>
      <point x="999" y="838"/>
      <point x="999" y="547" type="curve" smooth="yes"/>
      <point x="999" y="256"/>
      <point x="795" y="102"/>
    </contour>
    <contour>
      <point x="332" y="225" type="curve"/>
      <point x="472" y="225" type="line"/>
      <point x="466" y="260"/>
      <point x="466" y="331"/>
      <point x="466" y="419" type="curve" smooth="yes"/>
      <point x="466" y="486" type="line"/>
      <point x="528" y="486" type="line"/>
      <point x="692" y="225" type="line"/>
      <point x="849" y="225" type="line"/>
      <point x="825" y="252"/>
      <point x="702" y="434"/>
      <point x="653" y="503" type="curve"/>
      <point x="731" y="531"/>
      <point x="788" y="582"/>
      <point x="788" y="687" type="curve" smooth="yes"/>
      <point x="788" y="824"/>
      <point x="693" y="880"/>
      <point x="555" y="880" type="curve" smooth="yes"/>
      <point x="451" y="880"/>
      <point x="332" y="876"/>
      <point x="332" y="876" type="curve"/>
      <point x="339" y="840"/>
      <point x="339" y="757"/>
      <point x="339" y="670" type="curve" smooth="yes"/>
      <point x="339" y="419" type="line" smooth="yes"/>
      <point x="339" y="331"/>
      <point x="339" y="261"/>
    </contour>
    <contour>
      <point x="468" y="585" type="line"/>
      <point x="468" y="774" type="line"/>
      <point x="492" y="775"/>
      <point x="505" y="776"/>
      <point x="538" y="776" type="curve" smooth="yes"/>
      <point x="615" y="776"/>
      <point x="657" y="751"/>
      <point x="657" y="685" type="curve" smooth="yes"/>
      <point x="657" y="609"/>
      <point x="609" y="585"/>
      <point x="535" y="585" type="curve" smooth="yes"/>
    </contour>
  </outline>
</glyph>
<glyph name="macron" format="2">
  <advance width="622"/>
  <unicode hex="00AF"/>
  <outline>
    <contour>
      <point x="0" y="930" type="line"/>
      <point x="622" y="930" type="line"/>
      <point x="622" y="1080" type="line"/>
      <point x="0" y="1080" type="line"/>
    </contour>
  </outline>
</glyph>
<glyph name="degree" format="2">
  <advance width="536"/>
  <unicode hex="00B0"/>
  <outline>
    <contour>
      <point x="270" y="667" type="curve" smooth="yes"/>
      <point x="396" y="667"/>
      <point x="491" y="765"/>
      <point x="491" y="892" type="curve" smooth="yes"/>
      <point x="491" y="1019"/>
      <point x="396" y="1113"/>
      <point x="270" y="1113" type="curve" smooth="yes"/>
      <point x="143" y="1113"/>
      <point x="45" y="1019"/>
      <point x="45" y="892" type="curve" smooth="yes"/>
      <point x="45" y="765"/>
      <point x="143" y="667"/>
    </contour>
    <contour>
      <point x="270" y="780" type="curve" smooth="yes"/>
      <point x="209" y="780"/>
      <point x="157" y="831"/>
      <point x="157" y="892" type="curve" smooth="yes"/>
      <point x="157" y="954"/>
      <point x="209" y="1001"/>
      <point x="270" y="1001" type="curve" smooth="yes"/>
      <point x="330" y="1001"/>
      <point x="378" y="954"/>
      <point x="378" y="892" type="curve" smooth="yes"/>
      <point x="378" y="831"/>
      <point x="330" y="780"/>
    </contour>
  </outline>
</glyph>
<glyph name="twosuperior" format="2">
  <advance width="630"/>
  <unicode hex="00B2"/>
  <anchor x="315" y="461" name="L"/>
  <anchor x="315" y="1256" name="U"/>
  <outline>
    <contour>
      <point x="576" y="636" type="line"/>
      <point x="534" y="630"/>
      <point x="498" y="629"/>
      <point x="394" y="629" type="curve" smooth="yes"/>
      <point x="255" y="629" type="line"/>
      <point x="370" y="715"/>
      <point x="552" y="870"/>
      <point x="552" y="1029" type="curve" smooth="yes"/>
      <point x="552" y="1155"/>
      <point x="450" y="1233"/>
      <point x="297" y="1233" type="curve" smooth="yes"/>
      <point x="209" y="1233"/>
      <point x="106" y="1193"/>
      <point x="58" y="1138" type="curve"/>
      <point x="93" y="1021" type="line"/>
      <point x="139" y="1074"/>
      <point x="219" y="1112"/>
      <point x="285" y="1112" type="curve" smooth="yes"/>
      <point x="365" y="1112"/>
      <point x="402" y="1062"/>
      <point x="402" y="1005" type="curve" smooth="yes"/>
      <point x="402" y="879"/>
      <point x="204" y="712"/>
      <point x="61" y="617" type="curve"/>
      <point x="61" y="510" type="line"/>
      <point x="576" y="510" type="line"/>
    </contour>
  </outline>
</glyph>
<glyph name="threesuperior" format="2">
  <advance width="630"/>
  <unicode hex="00B3"/>
  <anchor x="315" y="461" name="L"/>
  <anchor x="315" y="1256" name="U"/>
  <outline>
    <contour>
      <point x="208" y="941" type="line"/>
      <point x="208" y="824" type="line"/>
      <point x="255" y="824" type="line" smooth="yes"/>
      <point x="374" y="824"/>
      <point x="441" y="777"/>
      <point x="441" y="717" type="curve" smooth="yes"/>
      <point x="441" y="651"/>
      <point x="375" y="612"/>
      <point x="300" y="612" type="curve" smooth="yes"/>
      <point x="216" y="612"/>
      <point x="132" y="647"/>
      <point x="75" y="707" type="curve"/>
      <point x="56" y="573" type="line"/>
      <point x="111" y="525"/>
      <point x="197" y="498"/>
      <point x="290" y="498" type="curve" smooth="yes"/>
      <point x="462" y="498"/>
      <point x="591" y="592"/>
      <point x="591" y="707" type="curve" smooth="yes"/>
      <point x="591" y="837"/>
      <point x="471" y="878"/>
      <point x="397" y="890" type="curve"/>
      <point x="471" y="904"/>
      <point x="565" y="976"/>
      <point x="565" y="1065" type="curve" smooth="yes"/>
      <point x="565" y="1170"/>
      <point x="459" y="1233"/>
      <point x="308" y="1233" type="curve" smooth="yes"/>
      <point x="220" y="1233"/>
      <point x="129" y="1200"/>
      <point x="87" y="1155" type="curve"/>
      <point x="105" y="1044" type="line"/>
      <point x="165" y="1100"/>
      <point x="232" y="1119"/>
      <point x="313" y="1119" type="curve" smooth="yes"/>
      <point x="365" y="1119"/>
      <point x="419" y="1091"/>
      <point x="419" y="1047" type="curve" smooth="yes"/>
      <point x="419" y="994"/>
      <point x="351" y="941"/>
      <point x="255" y="941" type="curve" smooth="yes"/>
    </contour>
  </outline>
</glyph>
<glyph name="acute" format="2">
  <advance width="480"/>
  <unicode hex="00B4"/>
  <anchor x="142" y="1226" name="U"/>
  <outline>
    <contour>
      <point x="0" y="900" type="line"/>
      <point x="180" y="900" type="line"/>
      <point x="480" y="1200" type="line"/>
      <point x="217" y="1200" type="line"/>
    </contour>
  </outline>
</glyph>
<glyph name="micro" format="2">
  <advance width="933"/>
  <unicode hex="00B5"/>
  <outline>
    <contour>
      <point x="870" y="0" type="line"/>
      <point x="838" y="84"/>
      <point x="821" y="192"/>
      <point x="821" y="337" type="curve" smooth="yes"/>
      <point x="821" y="474"/>
      <point x="821" y="765"/>
      <point x="821" y="765" type="curve"/>
      <point x="596" y="765" type="line"/>
      <point x="609" y="673"/>
      <point x="611" y="624"/>
      <point x="611" y="525" type="curve" smooth="yes"/>
      <point x="611" y="313" type="line"/>
      <point x="586" y="244"/>
      <point x="506" y="154"/>
      <point x="450" y="154" type="curve" smooth="yes"/>
      <point x="349" y="154"/>
      <point x="318" y="213"/>
      <point x="318" y="348" type="curve" smooth="yes"/>
      <point x="318" y="464"/>
      <point x="318" y="765"/>
      <point x="318" y="765" type="curve"/>
      <point x="93" y="765" type="line"/>
      <point x="107" y="675"/>
      <point x="108" y="620"/>
      <point x="108" y="525" type="curve" smooth="yes"/>
      <point x="108" y="-367" type="line"/>
      <point x="337" y="-367" type="line"/>
      <point x="324" y="-303"/>
      <point x="318" y="-232"/>
      <point x="318" y="-112" type="curve"/>
      <point x="318" y="18" type="line"/>
      <point x="353" y="-14"/>
      <point x="390" y="-18"/>
      <point x="433" y="-18" type="curve" smooth="yes"/>
      <point x="491" y="-18"/>
      <point x="568" y="36"/>
      <point x="630" y="138" type="curve"/>
      <point x="637" y="87"/>
      <point x="657" y="32"/>
      <point x="671" y="0" type="curve"/>
    </contour>
  </outline>
</glyph>
<glyph name="paragraph" format="2">
  <advance width="828"/>
  <unicode hex="00B6"/>
  <outline>
    <contour>
      <point x="330" y="0" type="line"/>
      <point x="453" y="0" type="line"/>
      <point x="453" y="986" type="line"/>
      <point x="573" y="986" type="line"/>
      <point x="573" y="0" type="line"/>
      <point x="697" y="0" type="line"/>
      <point x="697" y="986" type="line"/>
      <point x="783" y="986" type="line"/>
      <point x="783" y="1095" type="line"/>
      <point x="345" y="1095" type="line" smooth="yes"/>
      <point x="211" y="1095"/>
      <point x="37" y="1036"/>
      <point x="37" y="827" type="curve" smooth="yes"/>
      <point x="37" y="618"/>
      <point x="212" y="558"/>
      <point x="330" y="558" type="curve"/>
    </contour>
  </outline>
</glyph>
<glyph name="periodcentered" format="2">
  <advance width="562"/>
  <unicode hex="00B7"/>
  <outline>
    <contour>
      <point x="281" y="401" type="curve" smooth="yes"/>
      <point x="357" y="401"/>
      <point x="412" y="454"/>
      <point x="412" y="532" type="curve" smooth="yes"/>
      <point x="412" y="609"/>
      <point x="357" y="663"/>
      <point x="281" y="663" type="curve" smooth="yes"/>
      <point x="205" y="663"/>
      <point x="150" y="609"/>
      <point x="150" y="532" type="curve" smooth="yes"/>
      <point x="150" y="454"/>
      <point x="205" y="401"/>
    </contour>
  </outline>
</glyph>
<glyph name="cedilla" format="2">
  <advance width="315"/>
  <unicode hex="00B8"/>
  <anchor x="97" y="-397" name="L"/>
  <outline>
    <contour>
      <point x="45" y="0" type="line"/>
      <point x="45" y="-161" type="line"/>
      <point x="60" y="-153"/>
      <point x="92" y="-146"/>
      <point x="120" y="-146" type="curve" smooth="yes"/>
      <point x="156" y="-146"/>
      <point x="187" y="-171"/>
      <point x="187" y="-202" type="curve" smooth="yes"/>
      <point x="187" y="-243"/>
      <point x="142" y="-266"/>
      <point x="97" y="-266" type="curve" smooth="yes"/>
      <point x="62" y="-266"/>
      <point x="29" y="-257"/>
      <point x="7" y="-240" type="curve"/>
      <point x="0" y="-337" type="line"/>
      <point x="30" y="-354"/>
      <point x="77" y="-367"/>
      <point x="116" y="-367" type="curve" smooth="yes"/>
      <point x="213" y="-367"/>
      <point x="315" y="-304"/>
      <point x="315" y="-202" type="curve" smooth="yes"/>
      <point x="315" y="-128"/>
      <point x="265" y="-75"/>
      <point x="189" y="-75" type="curve" smooth="yes"/>
      <point x="173" y="-75"/>
      <point x="163" y="-76"/>
      <point x="153" y="-78" type="curve"/>
      <point x="153" y="0" type="line"/>
    </contour>
  </outline>
</glyph>
<glyph name="onesuperior" format="2">
  <advance width="630"/>
  <unicode hex="00B9"/>
  <anchor x="315" y="461" name="L"/>
  <anchor x="315" y="1256" name="U"/>
  <outline>
    <contour>
      <point x="551" y="510" type="line"/>
      <point x="551" y="624" type="line"/>
      <point x="389" y="624" type="line"/>
      <point x="389" y="1221" type="line"/>
      <point x="244" y="1221" type="line"/>
      <point x="79" y="1133" type="line"/>
      <point x="97" y="1006" type="line"/>
      <point x="244" y="1080" type="line"/>
      <point x="244" y="624" type="line"/>
      <point x="83" y="624" type="line"/>
      <point x="83" y="510" type="line"/>
    </contour>
  </outline>
</glyph>
<glyph name="ordmasculine" format="2">
  <advance width="600"/>
  <unicode hex="00BA"/>
  <outline>
    <contour>
      <point x="49" y="756" type="curve" smooth="yes"/>
      <point x="49" y="589"/>
      <point x="153" y="498"/>
      <point x="299" y="498" type="curve" smooth="yes"/>
      <point x="439" y="498"/>
      <point x="559" y="589"/>
      <point x="559" y="756" type="curve" smooth="yes"/>
      <point x="559" y="924"/>
      <point x="456" y="1017"/>
      <point x="309" y="1017" type="curve" smooth="yes"/>
      <point x="169" y="1017"/>
      <point x="49" y="924"/>
    </contour>
    <contour>
      <point x="195" y="756" type="curve" smooth="yes"/>
      <point x="195" y="851"/>
      <point x="237" y="906"/>
      <point x="305" y="906" type="curve" smooth="yes"/>
      <point x="375" y="906"/>
      <point x="414" y="851"/>
      <point x="414" y="756" type="curve" smooth="yes"/>
      <point x="414" y="664"/>
      <point x="372" y="607"/>
      <point x="305" y="607" type="curve" smooth="yes"/>
      <point x="233" y="607"/>
      <point x="195" y="664"/>
    </contour>
    <contour>
      <point x="51" y="338" type="line"/>
      <point x="557" y="338" type="line"/>
      <point x="557" y="450" type="line"/>
      <point x="51" y="450" type="line"/>
    </contour>
  </outline>
</glyph>
<glyph name="guillemetright" format="2">
  <advance width="932"/>
  <unicode hex="00BB"/>
  <outline>
    <contour>
      <point x="493" y="46" type="curve"/>
      <point x="550" y="-10" type="line"/>
      <point x="614" y="37"/>
      <point x="819" y="165"/>
      <point x="819" y="385" type="curve" smooth="yes"/>
      <point x="819" y="607"/>
      <point x="618" y="734"/>
      <point x="550" y="778" type="curve"/>
      <point x="497" y="722" type="line"/>
      <point x="574" y="633"/>
      <point x="623" y="532"/>
      <point x="623" y="385" type="curve" smooth="yes"/>
      <point x="623" y="233"/>
      <point x="574" y="154"/>
    </contour>
    <contour>
      <point x="113" y="46" type="curve"/>
      <point x="170" y="-10" type="line"/>
      <point x="234" y="37"/>
      <point x="439" y="165"/>
      <point x="439" y="385" type="curve" smooth="yes"/>
      <point x="439" y="607"/>
      <point x="238" y="734"/>
      <point x="170" y="778" type="curve"/>
      <point x="117" y="722" type="line"/>
      <point x="194" y="633"/>
      <point x="243" y="532"/>
      <point x="243" y="385" type="curve" smooth="yes"/>
      <point x="243" y="233"/>
      <point x="194" y="154"/>
    </contour>
  </outline>
</glyph>
<glyph name="onequarter" format="2">
  <advance width="1294"/>
  <unicode hex="00BC"/>
  <outline>
    <contour>
      <point x="1018" y="1200" type="line"/>
      <point x="215" y="-37" type="line"/>
      <point x="342" y="-37" type="line"/>
      <point x="1146" y="1200" type="line"/>
    </contour>
    <contour>
      <point x="191" y="615" type="line"/>
      <point x="45" y="615" type="line"/>
      <point x="45" y="502" type="line"/>
      <point x="447" y="502" type="line"/>
      <point x="447" y="615" type="line"/>
      <point x="315" y="615" type="line"/>
      <point x="315" y="1192" type="line"/>
      <point x="191" y="1192" type="line"/>
      <point x="37" y="1105" type="line"/>
      <point x="57" y="981" type="line"/>
      <point x="191" y="1053" type="line"/>
    </contour>
    <contour>
      <point x="1257" y="165" type="line"/>
      <point x="1257" y="272" type="line"/>
      <point x="1180" y="272" type="line"/>
      <point x="1180" y="699" type="line"/>
      <point x="1037" y="699" type="line"/>
      <point x="734" y="272" type="line"/>
      <point x="734" y="165" type="line"/>
      <point x="1053" y="165" type="line"/>
      <point x="1053" y="0" type="line"/>
      <point x="1180" y="0" type="line"/>
      <point x="1180" y="165" type="line"/>
    </contour>
    <contour>
      <point x="1053" y="272" type="line"/>
      <point x="851" y="272" type="line"/>
      <point x="1053" y="548" type="line"/>
    </contour>
  </outline>
</glyph>
<glyph name="onehalf" format="2">
  <advance width="1294"/>
  <unicode hex="00BD"/>
  <outline>
    <contour>
      <point x="973" y="1200" type="line"/>
      <point x="170" y="-37" type="line"/>
      <point x="297" y="-37" type="line"/>
      <point x="1101" y="1200" type="line"/>
    </contour>
    <contour>
      <point x="191" y="615" type="line"/>
      <point x="45" y="615" type="line"/>
      <point x="45" y="502" type="line"/>
      <point x="447" y="502" type="line"/>
      <point x="447" y="615" type="line"/>
      <point x="315" y="615" type="line"/>
      <point x="315" y="1192" type="line"/>
      <point x="191" y="1192" type="line"/>
      <point x="37" y="1105" type="line"/>
      <point x="57" y="981" type="line"/>
      <point x="191" y="1053" type="line"/>
    </contour>
    <contour>
      <point x="1257" y="123" type="line"/>
      <point x="1218" y="117"/>
      <point x="1185" y="116"/>
      <point x="1092" y="116" type="curve" smooth="yes"/>
      <point x="965" y="116" type="line"/>
      <point x="1070" y="201"/>
      <point x="1236" y="352"/>
      <point x="1236" y="508" type="curve" smooth="yes"/>
      <point x="1236" y="631"/>
      <point x="1142" y="708"/>
      <point x="1003" y="708" type="curve" smooth="yes"/>
      <point x="930" y="708"/>
      <point x="845" y="669"/>
      <point x="801" y="623" type="curve"/>
      <point x="832" y="508" type="line"/>
      <point x="875" y="552"/>
      <point x="940" y="589"/>
      <point x="991" y="589" type="curve" smooth="yes"/>
      <point x="1065" y="589"/>
      <point x="1098" y="540"/>
      <point x="1098" y="484" type="curve" smooth="yes"/>
      <point x="1098" y="361"/>
      <point x="918" y="198"/>
      <point x="789" y="105" type="curve"/>
      <point x="789" y="0" type="line"/>
      <point x="1257" y="0" type="line"/>
    </contour>
  </outline>
</glyph>
<glyph name="threequarters" format="2">
  <advance width="1294"/>
  <unicode hex="00BE"/>
  <outline>
    <contour>
      <point x="211" y="-37" type="line"/>
      <point x="339" y="-37" type="line"/>
      <point x="1143" y="1200" type="line"/>
      <point x="1014" y="1200" type="line"/>
    </contour>
    <contour>
      <point x="249" y="483" type="curve" smooth="yes"/>
      <point x="406" y="483"/>
      <point x="524" y="576"/>
      <point x="524" y="688" type="curve" smooth="yes"/>
      <point x="524" y="816"/>
      <point x="415" y="855"/>
      <point x="347" y="867" type="curve"/>
      <point x="415" y="881"/>
      <point x="500" y="951"/>
      <point x="500" y="1038" type="curve" smooth="yes"/>
      <point x="500" y="1141"/>
      <point x="403" y="1203"/>
      <point x="266" y="1203" type="curve" smooth="yes"/>
      <point x="186" y="1203"/>
      <point x="104" y="1170"/>
      <point x="66" y="1127" type="curve"/>
      <point x="82" y="1017" type="line"/>
      <point x="136" y="1073"/>
      <point x="197" y="1091"/>
      <point x="270" y="1091" type="curve" smooth="yes"/>
      <point x="318" y="1091"/>
      <point x="366" y="1064"/>
      <point x="366" y="1020" type="curve" smooth="yes"/>
      <point x="366" y="969"/>
      <point x="305" y="917"/>
      <point x="218" y="917" type="curve" smooth="yes"/>
      <point x="175" y="917" type="line"/>
      <point x="175" y="802" type="line"/>
      <point x="218" y="802" type="line" smooth="yes"/>
      <point x="326" y="802"/>
      <point x="387" y="756"/>
      <point x="387" y="697" type="curve" smooth="yes"/>
      <point x="387" y="633"/>
      <point x="327" y="595"/>
      <point x="259" y="595" type="curve" smooth="yes"/>
      <point x="183" y="595"/>
      <point x="105" y="629"/>
      <point x="54" y="688" type="curve"/>
      <point x="37" y="557" type="line"/>
      <point x="87" y="510"/>
      <point x="165" y="483"/>
    </contour>
    <contour>
      <point x="1053" y="0" type="line"/>
      <point x="1180" y="0" type="line"/>
      <point x="1180" y="165" type="line"/>
      <point x="1257" y="165" type="line"/>
      <point x="1257" y="272" type="line"/>
      <point x="1180" y="272" type="line"/>
      <point x="1180" y="699" type="line"/>
      <point x="1037" y="699" type="line"/>
      <point x="734" y="272" type="line"/>
      <point x="734" y="165" type="line"/>
      <point x="1053" y="165" type="line"/>
    </contour>
    <contour>
      <point x="851" y="272" type="line"/>
      <point x="1053" y="548" type="line"/>
      <point x="1053" y="272" type="line"/>
    </contour>
  </outline>
</glyph>
<glyph name="questiondown" format="2">
  <advance width="785"/>
  <unicode hex="00BF"/>
  <outline>
    <contour>
      <point x="587" y="-91" type="line"/>
      <point x="531" y="-150"/>
      <point x="462" y="-176"/>
      <point x="402" y="-176" type="curve" smooth="yes"/>
      <point x="293" y="-176"/>
      <point x="258" y="-119"/>
      <point x="258" y="-75" type="curve" smooth="yes"/>
      <point x="258" y="-31"/>
      <point x="267" y="11"/>
      <point x="363" y="112" type="curve" smooth="yes"/>
      <point x="444" y="199"/>
      <point x="456" y="271"/>
      <point x="456" y="516" type="curve"/>
      <point x="325" y="516" type="line"/>
      <point x="325" y="285"/>
      <point x="313" y="248"/>
      <point x="221" y="142" type="curve" smooth="yes"/>
      <point x="136" y="42"/>
      <point x="104" y="-5"/>
      <point x="104" y="-83" type="curve" smooth="yes"/>
      <point x="104" y="-234"/>
      <point x="222" y="-307"/>
      <point x="381" y="-307" type="curve" smooth="yes"/>
      <point x="475" y="-307"/>
      <point x="572" y="-272"/>
      <point x="620" y="-224" type="curve"/>
    </contour>
    <contour>
      <point x="495" y="788"/>
      <point x="450" y="833"/>
      <point x="395" y="833" type="curve" smooth="yes"/>
      <point x="339" y="833"/>
      <point x="294" y="788"/>
      <point x="294" y="732" type="curve" smooth="yes"/>
      <point x="294" y="677"/>
      <point x="339" y="633"/>
      <point x="395" y="633" type="curve" smooth="yes"/>
      <point x="450" y="633"/>
      <point x="495" y="677"/>
      <point x="495" y="732" type="curve" smooth="yes"/>
    </contour>
  </outline>
</glyph>
<glyph name="multiply" format="2">
  <advance width="900"/>
  <unicode hex="00D7"/>
  <outline>
    <contour>
      <point x="642" y="246" type="line"/>
      <point x="753" y="357" type="line"/>
      <point x="561" y="549" type="line"/>
      <point x="753" y="740" type="line"/>
      <point x="642" y="851" type="line"/>
      <point x="450" y="660" type="line"/>
      <point x="258" y="853" type="line"/>
      <point x="146" y="742" type="line"/>
      <point x="339" y="549" type="line"/>
      <point x="149" y="358" type="line"/>
      <point x="260" y="247" type="line"/>
      <point x="450" y="438" type="line"/>
    </contour>
  </outline>
</glyph>
<glyph name="Oslash" format="2">
  <advance width="1125"/>
  <unicode hex="00D8"/>
  <anchor x="552" y="-75" name="L"/>
  <anchor x="552" y="1147" name="U"/>
  <outline>
    <contour>
      <point x="547" y="-18" type="curve" smooth="yes"/>
      <point x="804" y="-18"/>
      <point x="1038" y="195"/>
      <point x="1038" y="555" type="curve" smooth="yes"/>
      <point x="1038" y="914"/>
      <point x="818" y="1113"/>
      <point x="562" y="1113" type="curve" smooth="yes"/>
      <point x="303" y="1113"/>
      <point x="67" y="899"/>
      <point x="67" y="540" type="curve" smooth="yes"/>
      <point x="67" y="180"/>
      <point x="288" y="-18"/>
    </contour>
    <contour>
      <point x="128" y="-60" type="line"/>
      <point x="300" y="-60" type="line"/>
      <point x="975" y="1149" type="line"/>
      <point x="803" y="1149" type="line"/>
    </contour>
    <contour>
      <point x="555" y="165" type="curve" smooth="yes"/>
      <point x="393" y="165"/>
      <point x="281" y="317"/>
      <point x="281" y="558" type="curve" smooth="yes"/>
      <point x="281" y="786"/>
      <point x="396" y="930"/>
      <point x="555" y="930" type="curve" smooth="yes"/>
      <point x="713" y="930"/>
      <point x="825" y="780"/>
      <point x="825" y="536" type="curve" smooth="yes"/>
      <point x="825" y="303"/>
      <point x="705" y="165"/>
    </contour>
  </outline>
</glyph>
<glyph name="Thorn" format="2">
  <advance width="956"/>
  <unicode hex="00DE"/>
  <anchor x="525" y="-75" name="L"/>
  <anchor x="502" y="1147" name="U"/>
  <outline>
    <contour>
      <point x="337" y="1091" type="line"/>
      <point x="112" y="1091" type="line"/>
      <point x="123" y="1031"/>
      <point x="123" y="897"/>
      <point x="123" y="750" type="curve" smooth="yes"/>
      <point x="123" y="326" type="line" smooth="yes"/>
      <point x="123" y="178"/>
      <point x="123" y="60"/>
      <point x="112" y="0" type="curve"/>
      <point x="348" y="0" type="line"/>
      <point x="338" y="58"/>
      <point x="337" y="90"/>
      <point x="337" y="238" type="curve"/>
      <point x="386" y="233"/>
      <point x="431" y="231"/>
      <point x="486" y="231" type="curve" smooth="yes"/>
      <point x="732" y="231"/>
      <point x="900" y="372"/>
      <point x="900" y="603" type="curve" smooth="yes"/>
      <point x="900" y="833"/>
      <point x="735" y="948"/>
      <point x="493" y="948" type="curve" smooth="yes"/>
      <point x="444" y="948"/>
      <point x="390" y="947"/>
      <point x="337" y="947" type="curve"/>
    </contour>
    <contour>
      <point x="337" y="776" type="line"/>
      <point x="379" y="778"/>
      <point x="408" y="780"/>
      <point x="466" y="780" type="curve" smooth="yes"/>
      <point x="624" y="780"/>
      <point x="686" y="705"/>
      <point x="686" y="596" type="curve" smooth="yes"/>
      <point x="686" y="461"/>
      <point x="608" y="393"/>
      <point x="463" y="393" type="curve" smooth="yes"/>
      <point x="417" y="393"/>
      <point x="369" y="396"/>
      <point x="337" y="401" type="curve"/>
    </contour>
  </outline>
</glyph>
<glyph name="germandbls" format="2">
  <advance width="1065"/>
  <unicode hex="00DF"/>
  <anchor x="531" y="-75" name="L"/>
  <anchor x="547" y="1226" name="U"/>
  <outline>
    <contour>
      <point x="464" y="51" type="line"/>
      <point x="507" y="15"/>
      <point x="605" y="-18"/>
      <point x="687" y="-18" type="curve" smooth="yes"/>
      <point x="881" y="-18"/>
      <point x="1020" y="79"/>
      <point x="1020" y="246" type="curve" smooth="yes"/>
      <point x="1020" y="382"/>
      <point x="931" y="442"/>
      <point x="846" y="492" type="curve" smooth="yes"/>
      <point x="771" y="537"/>
      <point x="698" y="571"/>
      <point x="698" y="641" type="curve" smooth="yes"/>
      <point x="698" y="756"/>
      <point x="933" y="731"/>
      <point x="933" y="948" type="curve" smooth="yes"/>
      <point x="933" y="1083"/>
      <point x="803" y="1215"/>
      <point x="547" y="1215" type="curve" smooth="yes"/>
      <point x="339" y="1215"/>
      <point x="135" y="1110"/>
      <point x="135" y="840" type="curve" smooth="yes"/>
      <point x="135" y="370" type="line" smooth="yes"/>
      <point x="135" y="225"/>
      <point x="129" y="78"/>
      <point x="112" y="0" type="curve"/>
      <point x="345" y="0" type="line"/>
      <point x="345" y="855" type="line" smooth="yes"/>
      <point x="345" y="966"/>
      <point x="425" y="1047"/>
      <point x="568" y="1047" type="curve" smooth="yes"/>
      <point x="642" y="1047"/>
      <point x="730" y="1003"/>
      <point x="730" y="940" type="curve" smooth="yes"/>
      <point x="730" y="819"/>
      <point x="495" y="816"/>
      <point x="495" y="633" type="curve" smooth="yes"/>
      <point x="495" y="522"/>
      <point x="560" y="462"/>
      <point x="632" y="417" type="curve" smooth="yes"/>
      <point x="720" y="360"/>
      <point x="818" y="325"/>
      <point x="818" y="239" type="curve" smooth="yes"/>
      <point x="818" y="182"/>
      <point x="763" y="150"/>
      <point x="690" y="150" type="curve" smooth="yes"/>
      <point x="621" y="150"/>
      <point x="543" y="183"/>
      <point x="501" y="219" type="curve"/>
    </contour>
  </outline>
</glyph>
<glyph name="eth" format="2">
  <advance width="872"/>
  <unicode hex="00F0"/>
  <anchor x="435" y="-75" name="L"/>
  <anchor x="435" y="1226" name="U"/>
  <outline>
    <contour>
      <point x="426" y="-18" type="curve" smooth="yes"/>
      <point x="661" y="-18"/>
      <point x="801" y="138"/>
      <point x="801" y="454" type="curve" smooth="yes"/>
      <point x="801" y="772"/>
      <point x="587" y="1089"/>
      <point x="376" y="1215" type="curve"/>
      <point x="193" y="1149" type="line"/>
      <point x="357" y="1070"/>
      <point x="534" y="853"/>
      <point x="593" y="651" type="curve"/>
      <point x="541" y="715"/>
      <point x="484" y="750"/>
      <point x="393" y="750" type="curve" smooth="yes"/>
      <point x="249" y="750"/>
      <point x="67" y="608"/>
      <point x="67" y="365" type="curve" smooth="yes"/>
      <point x="67" y="114"/>
      <point x="215" y="-18"/>
    </contour>
    <contour>
      <point x="434" y="143" type="curve" smooth="yes"/>
      <point x="342" y="143"/>
      <point x="278" y="224"/>
      <point x="278" y="365" type="curve" smooth="yes"/>
      <point x="278" y="499"/>
      <point x="336" y="586"/>
      <point x="434" y="586" type="curve" smooth="yes"/>
      <point x="528" y="586"/>
      <point x="592" y="505"/>
      <point x="592" y="365" type="curve" smooth="yes"/>
      <point x="592" y="231"/>
      <point x="533" y="143"/>
    </contour>
    <contour>
      <point x="306" y="807" type="line"/>
      <point x="754" y="1085" type="line"/>
      <point x="666" y="1191" type="line"/>
      <point x="224" y="918" type="line"/>
    </contour>
  </outline>
</glyph>
<glyph name="divide" format="2">
  <advance width="898"/>
  <unicode hex="00F7"/>
  <outline>
    <contour>
      <point x="342" y="247"/>
      <point x="392" y="199"/>
      <point x="448" y="199" type="curve" smooth="yes"/>
      <point x="505" y="199"/>
      <point x="552" y="247"/>
      <point x="552" y="304" type="curve" smooth="yes"/>
      <point x="552" y="361"/>
      <point x="505" y="408"/>
      <point x="448" y="408" type="curve" smooth="yes"/>
      <point x="392" y="408"/>
      <point x="342" y="361"/>
      <point x="342" y="304" type="curve" smooth="yes"/>
    </contour>
    <contour>
      <point x="342" y="725"/>
      <point x="392" y="677"/>
      <point x="448" y="677" type="curve" smooth="yes"/>
      <point x="505" y="677"/>
      <point x="552" y="725"/>
      <point x="552" y="782" type="curve" smooth="yes"/>
      <point x="552" y="839"/>
      <point x="505" y="885"/>
      <point x="448" y="885" type="curve" smooth="yes"/>
      <point x="392" y="885"/>
      <point x="342" y="839"/>
      <point x="342" y="782" type="curve" smooth="yes"/>
    </contour>
    <contour>
      <point x="116" y="485" type="line"/>
      <point x="782" y="485" type="line"/>
      <point x="782" y="598" type="line"/>
      <point x="116" y="598" type="line"/>
    </contour>
  </outline>
</glyph>
<glyph name="oslash" format="2">
  <advance width="870"/>
  <unicode hex="00F8"/>
  <anchor x="435" y="0" name="H"/>
  <anchor x="435" y="-75" name="L"/>
  <anchor x="622" y="0" name="O"/>
  <anchor x="885" y="750" name="R"/>
  <anchor x="435" y="825" name="U"/>
  <outline>
    <contour>
      <point x="67" y="380" type="curve" smooth="yes"/>
      <point x="67" y="122"/>
      <point x="216" y="-18"/>
      <point x="427" y="-18" type="curve" smooth="yes"/>
      <point x="630" y="-18"/>
      <point x="802" y="122"/>
      <point x="802" y="380" type="curve" smooth="yes"/>
      <point x="802" y="638"/>
      <point x="654" y="780"/>
      <point x="442" y="780" type="curve" smooth="yes"/>
      <point x="240" y="780"/>
      <point x="67" y="638"/>
    </contour>
    <contour>
      <point x="273" y="380" type="curve" smooth="yes"/>
      <point x="273" y="524"/>
      <point x="338" y="611"/>
      <point x="435" y="611" type="curve" smooth="yes"/>
      <point x="537" y="611"/>
      <point x="596" y="524"/>
      <point x="596" y="380" type="curve" smooth="yes"/>
      <point x="596" y="237"/>
      <point x="531" y="150"/>
      <point x="435" y="150" type="curve" smooth="yes"/>
      <point x="332" y="150"/>
      <point x="273" y="237"/>
    </contour>
    <contour>
      <point x="597" y="830" type="line"/>
      <point x="119" y="-57" type="line"/>
      <point x="276" y="-57" type="line"/>
      <point x="755" y="830" type="line"/>
    </contour>
  </outline>
</glyph>
<glyph name="thorn" format="2">
  <advance width="919"/>
  <unicode hex="00FE"/>
  <anchor x="426" y="-375" name="L"/>
  <anchor x="449" y="1226" name="U"/>
  <outline>
    <contour>
      <point x="90" y="1200" type="line"/>
      <point x="101" y="1116"/>
      <point x="101" y="954"/>
      <point x="101" y="847" type="curve" smooth="yes"/>
      <point x="101" y="-367" type="line"/>
      <point x="330" y="-367" type="line"/>
      <point x="318" y="-303"/>
      <point x="312" y="-232"/>
      <point x="312" y="-112" type="curve" smooth="yes"/>
      <point x="312" y="48" type="line"/>
      <point x="381" y="7"/>
      <point x="438" y="-18"/>
      <point x="517" y="-18" type="curve" smooth="yes"/>
      <point x="702" y="-18"/>
      <point x="852" y="144"/>
      <point x="852" y="401" type="curve" smooth="yes"/>
      <point x="852" y="621"/>
      <point x="740" y="780"/>
      <point x="573" y="780" type="curve" smooth="yes"/>
      <point x="469" y="780"/>
      <point x="378" y="726"/>
      <point x="311" y="649" type="curve"/>
      <point x="311" y="1200" type="line"/>
    </contour>
    <contour>
      <point x="312" y="438" type="line"/>
      <point x="354" y="544"/>
      <point x="430" y="601"/>
      <point x="497" y="601" type="curve" smooth="yes"/>
      <point x="588" y="601"/>
      <point x="642" y="514"/>
      <point x="642" y="378" type="curve" smooth="yes"/>
      <point x="642" y="240"/>
      <point x="559" y="154"/>
      <point x="468" y="154" type="curve" smooth="yes"/>
      <point x="416" y="154"/>
      <point x="388" y="168"/>
      <point x="312" y="225" type="curve"/>
    </contour>
  </outline>
</glyph>
<glyph name="idotless" format="1">
  <advance width="423"/>
  <unicode hex="0131"/>
  <outline>
    <contour>
      <point x="280" y="763" type="line"/>
      <point x="131" y="763" type="line"/>
      <point x="141" y="684"/>
      <point x="142" y="542"/>
      <point x="142" y="396" type="curve" smooth="yes"/>
      <point x="142" y="252"/>
      <point x="142" y="0"/>
      <point x="142" y="0" type="curve"/>
      <point x="295" y="0" type="line"/>
      <point x="285" y="80"/>
      <point x="280" y="258"/>
      <point x="280" y="355" type="curve" smooth="yes"/>
    </contour>
    <contour>
      <point x="203" y="850" type="move" name="above"/>
    </contour>
  </outline>
</glyph>
<glyph name="OE" format="2">
  <advance width="1492"/>
  <unicode hex="0152"/>
  <anchor x="758" y="-75" name="L"/>
  <anchor x="758" y="1147" name="U"/>
  <outline>
    <contour>
      <point x="1406" y="0" type="line"/>
      <point x="1406" y="183" type="line"/>
      <point x="1347" y="173"/>
      <point x="1246" y="172"/>
      <point x="1103" y="172" type="curve" smooth="yes"/>
      <point x="984" y="172" type="line"/>
      <point x="984" y="487" type="line"/>
      <point x="1327" y="487" type="line"/>
      <point x="1327" y="656" type="line"/>
      <point x="984" y="656" type="line"/>
      <point x="984" y="922" type="line"/>
      <point x="1383" y="922" type="line"/>
      <point x="1383" y="1095" type="line"/>
      <point x="759" y="1095" type="line"/>
      <point x="759" y="1029" type="line"/>
      <point x="702" y="1080"/>
      <point x="618" y="1113"/>
      <point x="539" y="1113" type="curve" smooth="yes"/>
      <point x="294" y="1113"/>
      <point x="71" y="899"/>
      <point x="71" y="540" type="curve" smooth="yes"/>
      <point x="71" y="180"/>
      <point x="280" y="-18"/>
      <point x="525" y="-18" type="curve" smooth="yes"/>
      <point x="609" y="-18"/>
      <point x="698" y="18"/>
      <point x="759" y="76" type="curve"/>
      <point x="759" y="0" type="line"/>
    </contour>
    <contour>
      <point x="776" y="536" type="curve" smooth="yes"/>
      <point x="776" y="303"/>
      <point x="667" y="165"/>
      <point x="532" y="165" type="curve" smooth="yes"/>
      <point x="386" y="165"/>
      <point x="285" y="317"/>
      <point x="285" y="558" type="curve" smooth="yes"/>
      <point x="285" y="786"/>
      <point x="389" y="930"/>
      <point x="532" y="930" type="curve" smooth="yes"/>
      <point x="675" y="930"/>
      <point x="776" y="780"/>
    </contour>
  </outline>
</glyph>
<glyph name="florin" format="2">
  <advance width="600"/>
  <unicode hex="0192"/>
  <anchor x="230" y="-375" name="L"/>
  <anchor x="450" y="1226" name="U"/>
  <outline>
    <contour>
      <point x="22" y="603" type="line"/>
      <point x="573" y="603" type="line"/>
      <point x="573" y="753" type="line"/>
      <point x="22" y="753" type="line"/>
    </contour>
    <contour>
      <point x="648" y="1162" type="line"/>
      <point x="604" y="1191"/>
      <point x="524" y="1215"/>
      <point x="468" y="1215" type="curve" smooth="yes"/>
      <point x="283" y="1215"/>
      <point x="172" y="1103"/>
      <point x="172" y="877" type="curve" smooth="yes"/>
      <point x="172" y="839"/>
      <point x="172" y="56"/>
      <point x="172" y="-30" type="curve" smooth="yes"/>
      <point x="172" y="-113"/>
      <point x="148" y="-169"/>
      <point x="58" y="-169" type="curve" smooth="yes"/>
      <point x="4" y="-169"/>
      <point x="-41" y="-139"/>
      <point x="-73" y="-117" type="curve"/>
      <point x="-120" y="-291" type="line"/>
      <point x="-88" y="-315"/>
      <point x="-5" y="-352"/>
      <point x="64" y="-352" type="curve" smooth="yes"/>
      <point x="282" y="-352"/>
      <point x="382" y="-222"/>
      <point x="382" y="11" type="curve" smooth="yes"/>
      <point x="382" y="97"/>
      <point x="382" y="789"/>
      <point x="382" y="869" type="curve" smooth="yes"/>
      <point x="382" y="991"/>
      <point x="414" y="1040"/>
      <point x="486" y="1040" type="curve" smooth="yes"/>
      <point x="522" y="1040"/>
      <point x="573" y="1021"/>
      <point x="606" y="991" type="curve"/>
    </contour>
  </outline>
</glyph>
<glyph name="circumflex" format="2">
  <advance width="660"/>
  <unicode hex="02C6"/>
  <outline>
    <contour>
      <point x="0" y="900" type="line"/>
      <point x="180" y="900" type="line"/>
      <point x="330" y="1072" type="line"/>
      <point x="480" y="900" type="line"/>
      <point x="660" y="900" type="line"/>
      <point x="442" y="1200" type="line"/>
      <point x="217" y="1200" type="line"/>
    </contour>
  </outline>
</glyph>
<glyph name="caron" format="2">
  <advance width="660"/>
  <unicode hex="02C7"/>
  <anchor x="330" y="1226" name="U"/>
  <outline>
    <contour>
      <point x="480" y="1200" type="line"/>
      <point x="330" y="1027" type="line"/>
      <point x="180" y="1200" type="line"/>
      <point x="0" y="1200" type="line"/>
      <point x="217" y="900" type="line"/>
      <point x="442" y="900" type="line"/>
      <point x="660" y="1200" type="line"/>
    </contour>
  </outline>
</glyph>
<glyph name="firsttonechinese" format="2">
  <advance width="636"/>
  <unicode hex="02C9"/>
  <anchor x="318" y="1084" name="U"/>
  <outline>
    <contour>
      <point x="37" y="927" type="line"/>
      <point x="598" y="927" type="line"/>
      <point x="598" y="1039" type="line"/>
      <point x="37" y="1039" type="line"/>
    </contour>
  </outline>
</glyph>
<glyph name="colontriangularmod" format="2">
  <advance width="348"/>
  <unicode hex="02D0"/>
  <anchor x="174" y="-75" name="L"/>
  <anchor x="174" y="818" name="U"/>
  <outline>
    <contour>
      <point x="116" y="521" type="line"/>
      <point x="232" y="521" type="line"/>
      <point x="292" y="765" type="line"/>
      <point x="56" y="765" type="line"/>
    </contour>
    <contour>
      <point x="56" y="0" type="line"/>
      <point x="292" y="0" type="line"/>
      <point x="232" y="243" type="line"/>
      <point x="116" y="243" type="line"/>
    </contour>
  </outline>
</glyph>
<glyph name="breve" format="2">
  <advance width="607"/>
  <unicode hex="02D8"/>
  <anchor x="303" y="1222" name="U"/>
  <outline>
    <contour>
      <point x="465" y="1162" type="line"/>
      <point x="447" y="1071"/>
      <point x="379" y="1005"/>
      <point x="296" y="1005" type="curve" smooth="yes"/>
      <point x="213" y="1005"/>
      <point x="142" y="1071"/>
      <point x="127" y="1162" type="curve"/>
      <point x="-7" y="1162" type="line"/>
      <point x="-7" y="1017"/>
      <point x="112" y="855"/>
      <point x="296" y="855" type="curve" smooth="yes"/>
      <point x="478" y="855"/>
      <point x="600" y="1017"/>
      <point x="600" y="1162" type="curve"/>
    </contour>
  </outline>
</glyph>
<glyph name="dotaccent" format="2">
  <advance width="262"/>
  <unicode hex="02D9"/>
  <outline>
    <contour>
      <point x="0" y="1038" type="curve" smooth="yes"/>
      <point x="0" y="960"/>
      <point x="55" y="907"/>
      <point x="131" y="907" type="curve" smooth="yes"/>
      <point x="207" y="907"/>
      <point x="262" y="960"/>
      <point x="262" y="1038" type="curve" smooth="yes"/>
      <point x="262" y="1115"/>
      <point x="207" y="1170"/>
      <point x="131" y="1170" type="curve" smooth="yes"/>
      <point x="55" y="1170"/>
      <point x="0" y="1115"/>
    </contour>
  </outline>
</glyph>
<glyph name="ring" format="2">
  <advance width="367"/>
  <unicode hex="02DA"/>
  <outline>
    <contour>
      <point x="258" y="1050" type="curve" smooth="yes"/>
      <point x="258" y="1005"/>
      <point x="228" y="978"/>
      <point x="183" y="978" type="curve" smooth="yes"/>
      <point x="138" y="978"/>
      <point x="108" y="1005"/>
      <point x="108" y="1050" type="curve" smooth="yes"/>
      <point x="108" y="1095"/>
      <point x="138" y="1121"/>
      <point x="183" y="1121" type="curve" smooth="yes"/>
      <point x="228" y="1121"/>
      <point x="258" y="1095"/>
    </contour>
    <contour>
      <point x="0" y="1050" type="curve" smooth="yes"/>
      <point x="0" y="945"/>
      <point x="78" y="870"/>
      <point x="183" y="870" type="curve" smooth="yes"/>
      <point x="288" y="870"/>
      <point x="367" y="945"/>
      <point x="367" y="1050" type="curve" smooth="yes"/>
      <point x="367" y="1155"/>
      <point x="288" y="1230"/>
      <point x="183" y="1230" type="curve" smooth="yes"/>
      <point x="78" y="1230"/>
      <point x="0" y="1155"/>
    </contour>
  </outline>
</glyph>
<glyph name="tilde" format="2">
  <advance width="622"/>
  <unicode hex="02DC"/>
  <outline>
    <contour>
      <point x="116" y="892" type="line"/>
      <point x="120" y="924"/>
      <point x="136" y="960"/>
      <point x="174" y="960" type="curve" smooth="yes"/>
      <point x="206" y="960"/>
      <point x="249" y="948"/>
      <point x="311" y="921" type="curve" smooth="yes"/>
      <point x="363" y="899"/>
      <point x="402" y="885"/>
      <point x="449" y="885" type="curve" smooth="yes"/>
      <point x="551" y="885"/>
      <point x="622" y="980"/>
      <point x="622" y="1110" type="curve"/>
      <point x="506" y="1110" type="line"/>
      <point x="500" y="1078"/>
      <point x="483" y="1042"/>
      <point x="448" y="1042" type="curve" smooth="yes"/>
      <point x="412" y="1042"/>
      <point x="384" y="1056"/>
      <point x="326" y="1077" type="curve" smooth="yes"/>
      <point x="267" y="1099"/>
      <point x="217" y="1117"/>
      <point x="168" y="1117" type="curve" smooth="yes"/>
      <point x="69" y="1117"/>
      <point x="0" y="1011"/>
      <point x="0" y="892" type="curve"/>
    </contour>
  </outline>
</glyph>
<glyph name="hungarumlaut" format="2">
  <advance width="690"/>
  <unicode hex="02DD"/>
  <outline>
    <contour>
      <point x="157" y="1200" type="line"/>
      <point x="0" y="900" type="line"/>
      <point x="157" y="900" type="line"/>
      <point x="382" y="1200" type="line"/>
    </contour>
    <contour>
      <point x="465" y="1200" type="line"/>
      <point x="307" y="900" type="line"/>
      <point x="465" y="900" type="line"/>
      <point x="690" y="1200" type="line"/>
    </contour>
  </outline>
</glyph>
<glyph name="pi" format="2">
  <advance width="1051"/>
  <unicode hex="03C0"/>
  <anchor x="522" y="-75" name="L"/>
  <anchor x="522" y="825" name="U"/>
  <outline>
    <contour>
      <point x="195" y="0" type="line"/>
      <point x="405" y="0" type="line"/>
      <point x="405" y="615" type="line"/>
      <point x="635" y="615" type="line"/>
      <point x="635" y="439" type="line"/>
      <point x="635" y="334"/>
      <point x="636" y="231"/>
      <point x="639" y="166" type="curve" smooth="yes"/>
      <point x="642" y="96"/>
      <point x="650" y="42"/>
      <point x="669" y="0" type="curve"/>
      <point x="886" y="0" type="line"/>
      <point x="855" y="78"/>
      <point x="845" y="144"/>
      <point x="845" y="281" type="curve"/>
      <point x="845" y="615" type="line"/>
      <point x="999" y="615" type="line"/>
      <point x="999" y="765" type="line"/>
      <point x="41" y="765" type="line"/>
      <point x="41" y="615" type="line"/>
      <point x="195" y="615" type="line"/>
    </contour>
  </outline>
</glyph>
<glyph name="number-ar" format="2">
  <advance width="1765"/>
  <unicode hex="0600"/>
  <anchor x="140" y="47" name="digitR"/>
  <outline>
    <contour>
      <point x="721" y="-125" type="curve" smooth="yes"/>
      <point x="1142" y="-125"/>
      <point x="1572" y="-91"/>
      <point x="1640" y="-63" type="curve"/>
      <point x="1664" y="-32"/>
      <point x="1680" y="42"/>
      <point x="1680" y="114" type="curve"/>
      <point x="1404" y="56"/>
      <point x="998" y="43"/>
      <point x="701" y="43" type="curve" smooth="yes"/>
      <point x="498" y="43"/>
      <point x="292" y="51"/>
      <point x="85" y="72" type="curve"/>
      <point x="86" y="-17"/>
      <point x="114" y="-74"/>
      <point x="157" y="-113" type="curve"/>
      <point x="227" y="-118"/>
      <point x="505" y="-125"/>
    </contour>
    <contour>
      <point x="1420" y="-60" type="line"/>
      <point x="1451" y="-30"/>
      <point x="1471" y="34"/>
      <point x="1471" y="81" type="curve"/>
      <point x="1456" y="80"/>
      <point x="1442" y="79"/>
      <point x="1429" y="79" type="curve" smooth="yes"/>
      <point x="1249" y="76"/>
      <point x="1169" y="173"/>
      <point x="1169" y="257" type="curve" smooth="yes"/>
      <point x="1169" y="321"/>
      <point x="1219" y="377"/>
      <point x="1311" y="377" type="curve" smooth="yes"/>
      <point x="1375" y="377"/>
      <point x="1433" y="346"/>
      <point x="1487" y="275" type="curve"/>
      <point x="1538" y="293"/>
      <point x="1585" y="333"/>
      <point x="1615" y="394" type="curve"/>
      <point x="1534" y="493"/>
      <point x="1431" y="548"/>
      <point x="1319" y="548" type="curve" smooth="yes"/>
      <point x="1113" y="548"/>
      <point x="993" y="402"/>
      <point x="993" y="254" type="curve" smooth="yes"/>
      <point x="993" y="179"/>
      <point x="1022" y="103"/>
      <point x="1085" y="46" type="curve"/>
    </contour>
  </outline>
</glyph>
<glyph name="footnotemarker-ar" format="2">
  <advance width="1452"/>
  <unicode hex="0602"/>
  <anchor x="485" y="0" name="digitR"/>
  <outline>
    <contour>
      <point x="684" y="-165" type="curve" smooth="yes"/>
      <point x="978" y="-165"/>
      <point x="1178" y="-161"/>
      <point x="1346" y="-149" type="curve"/>
      <point x="1378" y="-97"/>
      <point x="1399" y="-31"/>
      <point x="1412" y="32" type="curve"/>
      <point x="1280" y="17"/>
      <point x="1014" y="10"/>
      <point x="551" y="10" type="curve" smooth="yes"/>
      <point x="271" y="10"/>
      <point x="209" y="70"/>
      <point x="209" y="138" type="curve" smooth="yes"/>
      <point x="209" y="188"/>
      <point x="243" y="214"/>
      <point x="279" y="214" type="curve" smooth="yes"/>
      <point x="316" y="214"/>
      <point x="354" y="185"/>
      <point x="354" y="122" type="curve" smooth="yes"/>
      <point x="354" y="80"/>
      <point x="340" y="27"/>
      <point x="302" y="-16" type="curve"/>
      <point x="434" y="-71" type="line"/>
      <point x="497" y="-14"/>
      <point x="525" y="60"/>
      <point x="525" y="132" type="curve" smooth="yes"/>
      <point x="525" y="261"/>
      <point x="433" y="382"/>
      <point x="282" y="382" type="curve" smooth="yes"/>
      <point x="151" y="382"/>
      <point x="40" y="293"/>
      <point x="40" y="140" type="curve" smooth="yes"/>
      <point x="40" y="-96"/>
      <point x="274" y="-165"/>
    </contour>
  </outline>
</glyph>
<glyph name="pagenumber-ar" format="2">
  <advance width="2079"/>
  <unicode hex="0603"/>
  <anchor x="235" y="0" name="digit"/>
  <outline>
    <contour>
      <point x="1154" y="58"/>
      <point x="1410" y="-45"/>
      <point x="1631" y="-45" type="curve" smooth="yes"/>
      <point x="2183" y="-45"/>
      <point x="2198" y="559"/>
      <point x="1750" y="559" type="curve" smooth="yes"/>
      <point x="1276" y="559"/>
      <point x="1280" y="43"/>
      <point x="669" y="43" type="curve" smooth="yes"/>
      <point x="336" y="43"/>
      <point x="124" y="56"/>
      <point x="40" y="65" type="curve"/>
      <point x="43" y="-9"/>
      <point x="79" y="-87"/>
      <point x="102" y="-109" type="curve"/>
      <point x="192" y="-117"/>
      <point x="360" y="-125"/>
      <point x="647" y="-125" type="curve" smooth="yes"/>
      <point x="1321" y="-125"/>
      <point x="1376" y="392"/>
      <point x="1739" y="392" type="curve" smooth="yes"/>
      <point x="1952" y="392"/>
      <point x="1940" y="124"/>
      <point x="1646" y="124" type="curve" smooth="yes"/>
      <point x="1460" y="124"/>
      <point x="1236" y="218"/>
      <point x="1179" y="403" type="curve"/>
      <point x="1132" y="382"/>
      <point x="1073" y="342"/>
      <point x="1044" y="291" type="curve"/>
    </contour>
  </outline>
</glyph>
<glyph name="samvat-ar" format="2">
  <advance width="1933"/>
  <unicode hex="0604"/>
  <anchor x="196" y="0" name="digit"/>
  <outline>
    <contour>
      <point x="1041" y="150" type="line"/>
      <point x="933" y="73"/>
      <point x="877" y="50"/>
      <point x="553" y="50" type="curve" smooth="yes"/>
      <point x="324" y="50"/>
      <point x="145" y="59"/>
      <point x="40" y="72" type="curve"/>
      <point x="40" y="-2"/>
      <point x="66" y="-87"/>
      <point x="91" y="-109" type="curve"/>
      <point x="181" y="-118"/>
      <point x="394" y="-125"/>
      <point x="531" y="-125" type="curve" smooth="yes"/>
      <point x="802" y="-125"/>
      <point x="1007" y="-97"/>
      <point x="1183" y="12" type="curve"/>
    </contour>
    <contour>
      <point x="1866" y="668" type="curve"/>
      <point x="1801" y="664"/>
      <point x="1733" y="645"/>
      <point x="1696" y="622" type="curve"/>
      <point x="1715" y="568"/>
      <point x="1724" y="512"/>
      <point x="1724" y="467" type="curve" smooth="yes"/>
      <point x="1724" y="413"/>
      <point x="1711" y="375"/>
      <point x="1684" y="375" type="curve" smooth="yes"/>
      <point x="1647" y="375"/>
      <point x="1622" y="460"/>
      <point x="1594" y="608" type="curve"/>
      <point x="1538" y="607"/>
      <point x="1455" y="587"/>
      <point x="1426" y="569" type="curve"/>
      <point x="1429" y="544"/>
      <point x="1430" y="518"/>
      <point x="1430" y="494" type="curve" smooth="yes"/>
      <point x="1430" y="379"/>
      <point x="1403" y="286"/>
      <point x="1367" y="286" type="curve" smooth="yes"/>
      <point x="1313" y="286"/>
      <point x="1307" y="470"/>
      <point x="1130" y="470" type="curve" smooth="yes"/>
      <point x="985" y="470"/>
      <point x="897" y="354"/>
      <point x="897" y="227" type="curve" smooth="yes"/>
      <point x="897" y="88"/>
      <point x="1003" y="-64"/>
      <point x="1256" y="-90" type="curve"/>
      <point x="1257" y="-46"/>
      <point x="1254" y="45"/>
      <point x="1238" y="85" type="curve"/>
      <point x="1114" y="105"/>
      <point x="1072" y="172"/>
      <point x="1072" y="226" type="curve" smooth="yes"/>
      <point x="1072" y="265"/>
      <point x="1095" y="297"/>
      <point x="1125" y="297" type="curve" smooth="yes"/>
      <point x="1198" y="297"/>
      <point x="1198" y="113"/>
      <point x="1364" y="113" type="curve" smooth="yes"/>
      <point x="1447" y="113"/>
      <point x="1540" y="164"/>
      <point x="1574" y="361" type="curve"/>
      <point x="1506" y="311" type="line"/>
      <point x="1540" y="240"/>
      <point x="1600" y="200"/>
      <point x="1672" y="200" type="curve" smooth="yes"/>
      <point x="1826" y="200"/>
      <point x="1893" y="335"/>
      <point x="1893" y="491" type="curve" smooth="yes"/>
      <point x="1893" y="549"/>
      <point x="1884" y="610"/>
    </contour>
  </outline>
</glyph>
<glyph name="numbermark-ar" format="2">
  <advance width="1000"/>
  <unicode hex="0605"/>
  <anchor x="0" y="0" name="digitR"/>
  <outline>
    <contour>
      <point x="491" y="1155" type="curve" smooth="yes"/>
      <point x="677" y="1155"/>
      <point x="906" y="1249"/>
      <point x="1073" y="1386" type="curve"/>
      <point x="1059" y="1431"/>
      <point x="1017" y="1470"/>
      <point x="977" y="1485" type="curve"/>
      <point x="835" y="1391"/>
      <point x="666" y="1329"/>
      <point x="508" y="1329" type="curve" smooth="yes"/>
      <point x="393" y="1329"/>
      <point x="330" y="1377"/>
      <point x="284" y="1480" type="curve"/>
      <point x="181" y="1472"/>
      <point x="24" y="1398"/>
      <point x="-88" y="1319" type="curve"/>
      <point x="-70" y="1284"/>
      <point x="-7" y="1208"/>
      <point x="41" y="1189" type="curve"/>
      <point x="102" y="1235"/>
      <point x="192" y="1292"/>
      <point x="284" y="1328" type="curve"/>
      <point x="172" y="1351" type="line"/>
      <point x="220" y="1225"/>
      <point x="342" y="1155"/>
    </contour>
  </outline>
</glyph>
<glyph name="ray-ar" format="2">
  <advance width="1700"/>
  <unicode hex="0608"/>
  <outline>
    <contour>
      <point x="1033" y="723" type="curve" smooth="yes"/>
      <point x="859" y="723"/>
      <point x="756" y="604"/>
      <point x="756" y="456" type="curve" smooth="yes"/>
      <point x="756" y="303"/>
      <point x="858" y="168"/>
      <point x="1117" y="168" type="curve" smooth="yes"/>
      <point x="1386" y="168"/>
      <point x="1617" y="290"/>
      <point x="1617" y="482" type="curve" smooth="yes"/>
      <point x="1617" y="587"/>
      <point x="1598" y="691"/>
      <point x="1565" y="786" type="curve"/>
      <point x="1506" y="781"/>
      <point x="1435" y="754"/>
      <point x="1398" y="718" type="curve"/>
      <point x="1426" y="641"/>
      <point x="1446" y="573"/>
      <point x="1446" y="487" type="curve" smooth="yes"/>
      <point x="1446" y="412"/>
      <point x="1336" y="343"/>
      <point x="1104" y="343" type="curve" smooth="yes"/>
      <point x="896" y="343"/>
      <point x="894" y="554"/>
      <point x="1031" y="554" type="curve" smooth="yes"/>
      <point x="1125" y="554"/>
      <point x="1164" y="459"/>
      <point x="1164" y="301" type="curve" smooth="yes"/>
      <point x="1164" y="52"/>
      <point x="975" y="-104"/>
      <point x="734" y="-104" type="curve" smooth="yes"/>
      <point x="515" y="-104"/>
      <point x="417" y="22"/>
      <point x="417" y="180" type="curve" smooth="yes"/>
      <point x="417" y="277"/>
      <point x="463" y="405"/>
      <point x="530" y="504" type="curve"/>
      <point x="511" y="534"/>
      <point x="464" y="564"/>
      <point x="435" y="574" type="curve"/>
      <point x="314" y="459"/>
      <point x="243" y="283"/>
      <point x="243" y="154" type="curve" smooth="yes"/>
      <point x="243" y="-87"/>
      <point x="425" y="-279"/>
      <point x="745" y="-279" type="curve" smooth="yes"/>
      <point x="1058" y="-279"/>
      <point x="1341" y="-67"/>
      <point x="1341" y="337" type="curve" smooth="yes"/>
      <point x="1341" y="571"/>
      <point x="1228" y="723"/>
    </contour>
    <contour>
      <point x="35" y="498" type="curve"/>
      <point x="45" y="460"/>
      <point x="72" y="409"/>
      <point x="105" y="381" type="curve"/>
      <point x="270" y="402"/>
      <point x="370" y="439"/>
      <point x="530" y="504" type="curve"/>
      <point x="521" y="527"/>
      <point x="473" y="572"/>
      <point x="437" y="582" type="curve"/>
      <point x="328" y="546"/>
      <point x="199" y="513"/>
    </contour>
  </outline>
</glyph>
<glyph name="afghani-ar" format="2">
  <advance width="898"/>
  <unicode hex="060B"/>
  <outline>
    <contour>
      <point x="566" y="-119" type="curve" smooth="yes"/>
      <point x="567" y="-64"/>
      <point x="558" y="-43"/>
      <point x="555" y="-23" type="curve"/>
      <point x="508" y="-32"/>
      <point x="451" y="-64"/>
      <point x="423" y="-95" type="curve"/>
      <point x="451" y="-503" type="line"/>
      <point x="477" y="-503"/>
      <point x="551" y="-472"/>
      <point x="561" y="-452" type="curve"/>
      <point x="568" y="-342"/>
      <point x="565" y="-188"/>
    </contour>
    <contour>
      <point x="644" y="481" type="curve"/>
      <point x="598" y="464"/>
      <point x="560" y="460"/>
      <point x="504" y="460" type="curve" smooth="yes"/>
      <point x="402" y="460"/>
      <point x="356" y="523"/>
      <point x="356" y="584" type="curve" smooth="yes"/>
      <point x="356" y="641"/>
      <point x="397" y="697"/>
      <point x="471" y="697" type="curve" smooth="yes"/>
      <point x="555" y="697"/>
      <point x="630" y="629"/>
    </contour>
    <contour>
      <point x="91" y="201" type="curve"/>
      <point x="95" y="123"/>
      <point x="117" y="76"/>
      <point x="172" y="29" type="curve"/>
      <point x="609" y="29"/>
      <point x="802" y="61"/>
      <point x="820" y="357" type="curve"/>
      <point x="866" y="376" type="line"/>
      <point x="875" y="397"/>
      <point x="879" y="426"/>
      <point x="879" y="460" type="curve" smooth="yes"/>
      <point x="879" y="496"/>
      <point x="875" y="531"/>
      <point x="867" y="550" type="curve"/>
      <point x="814" y="534" type="line"/>
      <point x="770" y="753"/>
      <point x="656" y="864"/>
      <point x="483" y="864" type="curve" smooth="yes"/>
      <point x="292" y="864"/>
      <point x="182" y="718"/>
      <point x="182" y="579" type="curve" smooth="yes"/>
      <point x="182" y="428"/>
      <point x="283" y="289"/>
      <point x="493" y="289" type="curve" smooth="yes"/>
      <point x="525" y="289"/>
      <point x="596" y="293"/>
      <point x="639" y="314" type="curve"/>
      <point x="631" y="207"/>
      <point x="471" y="201"/>
    </contour>
    <component base="_dot1" xOffset="474" yOffset="1070"/>
  </outline>
</glyph>
<glyph name="comma-ar" format="2">
  <advance width="555"/>
  <unicode hex="060C"/>
  <anchor x="280" y="608" name="diaA"/>
  <anchor x="255" y="-249" name="diaB"/>
  <outline>
    <contour>
      <point x="435" y="-71" type="curve"/>
      <point x="435" y="65" type="line"/>
      <point x="275" y="65" type="line"/>
      <point x="275" y="205"/>
      <point x="333" y="333"/>
      <point x="408" y="427" type="curve"/>
      <point x="323" y="491" type="line"/>
      <point x="156" y="308"/>
      <point x="105" y="145"/>
      <point x="105" y="5" type="curve" smooth="yes"/>
      <point x="105" y="-133"/>
      <point x="201" y="-199"/>
      <point x="279" y="-199" type="curve" smooth="yes"/>
      <point x="352" y="-199"/>
      <point x="418" y="-153"/>
    </contour>
  </outline>
</glyph>
<glyph name="dateseparator-ar" format="2">
  <advance width="631"/>
  <unicode hex="060D"/>
  <outline>
    <contour>
      <point x="240" y="415"/>
      <point x="85" y="156"/>
      <point x="32" y="8" type="curve"/>
      <point x="46" y="-7"/>
      <point x="132" y="-32"/>
      <point x="150" y="-35" type="curve"/>
      <point x="226" y="106"/>
      <point x="380" y="273"/>
      <point x="599" y="374" type="curve"/>
      <point x="589" y="397"/>
      <point x="478" y="520"/>
      <point x="452" y="511" type="curve"/>
    </contour>
  </outline>
</glyph>
<glyph name="verseComma-ar" format="2">
  <advance width="1276"/>
  <unicode hex="060E"/>
  <anchor x="785" y="418" name="diaA"/>
  <outline>
    <contour>
      <point x="549" y="154" type="curve" smooth="yes"/>
      <point x="762" y="154"/>
      <point x="992" y="192"/>
      <point x="1177" y="251" type="curve"/>
      <point x="1200" y="307"/>
      <point x="1212" y="376"/>
      <point x="1211" y="434" type="curve"/>
      <point x="1052" y="361"/>
      <point x="792" y="314"/>
      <point x="580" y="314" type="curve" smooth="yes"/>
      <point x="387" y="314"/>
      <point x="234" y="354"/>
      <point x="234" y="448" type="curve" smooth="yes"/>
      <point x="234" y="498"/>
      <point x="268" y="524"/>
      <point x="304" y="524" type="curve" smooth="yes"/>
      <point x="341" y="524"/>
      <point x="379" y="495"/>
      <point x="379" y="432" type="curve" smooth="yes"/>
      <point x="379" y="390"/>
      <point x="365" y="337"/>
      <point x="327" y="294" type="curve"/>
      <point x="459" y="239" type="line"/>
      <point x="522" y="296"/>
      <point x="550" y="370"/>
      <point x="550" y="442" type="curve" smooth="yes"/>
      <point x="550" y="571"/>
      <point x="458" y="692"/>
      <point x="307" y="692" type="curve" smooth="yes"/>
      <point x="176" y="692"/>
      <point x="65" y="603"/>
      <point x="65" y="450" type="curve" smooth="yes"/>
      <point x="65" y="236"/>
      <point x="284" y="154"/>
    </contour>
  </outline>
</glyph>
<glyph name="misraComma-ar" format="2">
  <advance width="898"/>
  <unicode hex="060F"/>
  <outline>
    <contour>
      <point x="35" y="-292" type="curve" smooth="yes"/>
      <point x="35" y="-492"/>
      <point x="213" y="-680"/>
      <point x="472" y="-680" type="curve" smooth="yes"/>
      <point x="700" y="-680"/>
      <point x="817" y="-532"/>
      <point x="817" y="-392" type="curve" smooth="yes"/>
      <point x="817" y="-271"/>
      <point x="727" y="-156"/>
      <point x="544" y="-154" type="curve" smooth="yes"/>
      <point x="210" y="-151"/>
      <point x="68" y="-502"/>
      <point x="19" y="-635" type="curve"/>
      <point x="45" y="-678"/>
      <point x="109" y="-729"/>
      <point x="155" y="-748" type="curve"/>
      <point x="202" y="-568"/>
      <point x="331" y="-323"/>
      <point x="523" y="-323" type="curve" smooth="yes"/>
      <point x="600" y="-323"/>
      <point x="636" y="-362"/>
      <point x="636" y="-404" type="curve" smooth="yes"/>
      <point x="636" y="-454"/>
      <point x="584" y="-510"/>
      <point x="486" y="-510" type="curve" smooth="yes"/>
      <point x="298" y="-510"/>
      <point x="207" y="-418"/>
      <point x="207" y="-276" type="curve" smooth="yes"/>
      <point x="207" y="-140"/>
      <point x="310" y="-10"/>
      <point x="519" y="-10" type="curve" smooth="yes"/>
      <point x="557" y="-10"/>
      <point x="607" y="-15"/>
      <point x="653" y="-27" type="curve"/>
      <point x="684" y="13"/>
      <point x="714" y="90"/>
      <point x="714" y="136" type="curve"/>
      <point x="511" y="162"/>
      <point x="410" y="216"/>
      <point x="410" y="315" type="curve" smooth="yes"/>
      <point x="410" y="382"/>
      <point x="467" y="431"/>
      <point x="546" y="431" type="curve" smooth="yes"/>
      <point x="624" y="431"/>
      <point x="673" y="389"/>
      <point x="730" y="318" type="curve"/>
      <point x="781" y="336"/>
      <point x="838" y="396"/>
      <point x="858" y="437" type="curve"/>
      <point x="777" y="552"/>
      <point x="664" y="597"/>
      <point x="553" y="597" type="curve" smooth="yes"/>
      <point x="353" y="597"/>
      <point x="225" y="461"/>
      <point x="225" y="316" type="curve" smooth="yes"/>
      <point x="225" y="242"/>
      <point x="258" y="166"/>
      <point x="326" y="116" type="curve"/>
      <point x="132" y="42"/>
      <point x="35" y="-131"/>
    </contour>
  </outline>
</glyph>
<glyph name="sadabove-ar" format="2">
  <unicode hex="0610"/>
  <outline>
    <contour>
      <point x="495" y="1389" type="curve" smooth="yes"/>
      <point x="757" y="1389"/>
      <point x="763" y="1670"/>
      <point x="541" y="1670" type="curve" smooth="yes"/>
      <point x="459" y="1670"/>
      <point x="359" y="1629"/>
      <point x="278" y="1540" type="curve"/>
      <point x="343" y="1486" type="line"/>
      <point x="400" y="1550"/>
      <point x="474" y="1585"/>
      <point x="535" y="1585" type="curve" smooth="yes"/>
      <point x="632" y="1585"/>
      <point x="627" y="1475"/>
      <point x="502" y="1475" type="curve" smooth="yes"/>
      <point x="397" y="1475"/>
      <point x="331" y="1520"/>
      <point x="275" y="1584" type="curve"/>
      <point x="252" y="1582"/>
      <point x="215" y="1569"/>
      <point x="198" y="1555" type="curve"/>
      <point x="200" y="1538"/>
      <point x="201" y="1507"/>
      <point x="201" y="1490" type="curve" smooth="yes"/>
      <point x="201" y="1436"/>
      <point x="194" y="1365"/>
      <point x="154" y="1296" type="curve"/>
      <point x="162" y="1295"/>
      <point x="170" y="1292"/>
      <point x="178" y="1292" type="curve" smooth="yes"/>
      <point x="199" y="1292"/>
      <point x="222" y="1295"/>
      <point x="253" y="1311" type="curve"/>
      <point x="273" y="1353"/>
      <point x="283" y="1417"/>
      <point x="287" y="1451" type="curve"/>
      <point x="350" y="1408"/>
      <point x="426" y="1389"/>
    </contour>
  </outline>
</glyph>
<glyph name="ainabove-ar" format="2">
  <unicode hex="0611"/>
  <anchor x="351" y="1355" name="_diaA"/>
  <outline>
    <contour>
      <point x="59" y="1292" type="curve" smooth="yes"/>
      <point x="80" y="1292"/>
      <point x="123" y="1300"/>
      <point x="144" y="1315" type="curve"/>
      <point x="167" y="1357"/>
      <point x="180" y="1398"/>
      <point x="186" y="1441" type="curve"/>
      <point x="223" y="1406"/>
      <point x="301" y="1393"/>
      <point x="366" y="1393" type="curve" smooth="yes"/>
      <point x="411" y="1393"/>
      <point x="455" y="1399"/>
      <point x="504" y="1406" type="curve"/>
      <point x="520" y="1419"/>
      <point x="547" y="1464"/>
      <point x="548" y="1490" type="curve"/>
      <point x="419" y="1520"/>
      <point x="365" y="1544"/>
      <point x="365" y="1587" type="curve" smooth="yes"/>
      <point x="365" y="1613"/>
      <point x="387" y="1627"/>
      <point x="415" y="1627" type="curve" smooth="yes"/>
      <point x="443" y="1627"/>
      <point x="478" y="1614"/>
      <point x="507" y="1587" type="curve"/>
      <point x="525" y="1597"/>
      <point x="559" y="1633"/>
      <point x="561" y="1657" type="curve"/>
      <point x="524" y="1698"/>
      <point x="470" y="1717"/>
      <point x="417" y="1717" type="curve" smooth="yes"/>
      <point x="337" y="1717"/>
      <point x="262" y="1673"/>
      <point x="262" y="1590" type="curve" smooth="yes"/>
      <point x="262" y="1553"/>
      <point x="280" y="1513"/>
      <point x="341" y="1481" type="curve"/>
      <point x="289" y="1480"/>
      <point x="215" y="1513"/>
      <point x="167" y="1581" type="curve"/>
      <point x="144" y="1576"/>
      <point x="108" y="1558"/>
      <point x="91" y="1545" type="curve"/>
      <point x="93" y="1528"/>
      <point x="94" y="1507"/>
      <point x="94" y="1490" type="curve" smooth="yes"/>
      <point x="94" y="1436"/>
      <point x="80" y="1364"/>
      <point x="40" y="1295" type="curve"/>
      <point x="46" y="1293"/>
      <point x="52" y="1292"/>
    </contour>
  </outline>
</glyph>
<glyph name="rehDadabove-ar" format="2">
  <unicode hex="0613"/>
  <anchor x="327" y="1204" name="_diaA"/>
  <outline>
    <contour>
      <point x="315" y="1389" type="curve" smooth="yes"/>
      <point x="577" y="1389"/>
      <point x="583" y="1670"/>
      <point x="361" y="1670" type="curve" smooth="yes"/>
      <point x="279" y="1670"/>
      <point x="179" y="1629"/>
      <point x="98" y="1540" type="curve"/>
      <point x="163" y="1486" type="line"/>
      <point x="220" y="1550"/>
      <point x="294" y="1585"/>
      <point x="355" y="1585" type="curve" smooth="yes"/>
      <point x="452" y="1585"/>
      <point x="447" y="1475"/>
      <point x="322" y="1475" type="curve" smooth="yes"/>
      <point x="217" y="1475"/>
      <point x="151" y="1520"/>
      <point x="95" y="1584" type="curve"/>
      <point x="72" y="1582"/>
      <point x="35" y="1569"/>
      <point x="18" y="1555" type="curve"/>
      <point x="20" y="1538"/>
      <point x="21" y="1507"/>
      <point x="21" y="1490" type="curve" smooth="yes"/>
      <point x="21" y="1436"/>
      <point x="14" y="1365"/>
      <point x="-26" y="1296" type="curve"/>
      <point x="-18" y="1295"/>
      <point x="-10" y="1292"/>
      <point x="-2" y="1292" type="curve" smooth="yes"/>
      <point x="19" y="1292"/>
      <point x="42" y="1295"/>
      <point x="73" y="1311" type="curve"/>
      <point x="93" y="1353"/>
      <point x="103" y="1417"/>
      <point x="107" y="1451" type="curve"/>
      <point x="170" y="1408"/>
      <point x="246" y="1389"/>
    </contour>
    <contour>
      <point x="587" y="1596" type="curve"/>
      <point x="595" y="1552"/>
      <point x="602" y="1502"/>
      <point x="602" y="1441" type="curve" smooth="yes"/>
      <point x="602" y="1291"/>
      <point x="538" y="1245"/>
      <point x="439" y="1209" type="curve"/>
      <point x="441" y="1190"/>
      <point x="457" y="1148"/>
      <point x="479" y="1133" type="curve"/>
      <point x="610" y="1185"/>
      <point x="687" y="1286"/>
      <point x="687" y="1445" type="curve" smooth="yes"/>
      <point x="687" y="1492"/>
      <point x="681" y="1554"/>
      <point x="670" y="1615" type="curve"/>
      <point x="637" y="1615"/>
      <point x="606" y="1606"/>
    </contour>
    <contour>
      <point x="301" y="1848" type="line"/>
      <point x="228" y="1771" type="line"/>
      <point x="234" y="1760"/>
      <point x="264" y="1725"/>
      <point x="309" y="1697" type="curve"/>
      <point x="317" y="1701"/>
      <point x="352" y="1733"/>
      <point x="381" y="1774" type="curve"/>
    </contour>
  </outline>
</glyph>
<glyph name="takhallusabove-ar" format="2">
  <unicode hex="0614"/>
  <outline>
    <contour>
      <point x="613" y="1675" type="curve"/>
      <point x="577" y="1673"/>
      <point x="546" y="1660"/>
      <point x="528" y="1647" type="curve"/>
      <point x="539" y="1623"/>
      <point x="548" y="1587"/>
      <point x="548" y="1557" type="curve" smooth="yes"/>
      <point x="548" y="1526"/>
      <point x="539" y="1502"/>
      <point x="512" y="1502" type="curve" smooth="yes"/>
      <point x="487" y="1502"/>
      <point x="460" y="1540"/>
      <point x="451" y="1604" type="curve"/>
      <point x="424" y="1602"/>
      <point x="392" y="1594"/>
      <point x="371" y="1584" type="curve"/>
      <point x="347" y="1511"/>
      <point x="293" y="1479"/>
      <point x="163" y="1479" type="curve" smooth="yes"/>
      <point x="106" y="1479"/>
      <point x="61" y="1484"/>
      <point x="13" y="1491" type="curve"/>
      <point x="18" y="1463"/>
      <point x="35" y="1415"/>
      <point x="66" y="1398" type="curve"/>
      <point x="87" y="1394"/>
      <point x="108" y="1394"/>
      <point x="142" y="1394" type="curve" smooth="yes"/>
      <point x="279" y="1394"/>
      <point x="361" y="1421"/>
      <point x="401" y="1480" type="curve"/>
      <point x="428" y="1433"/>
      <point x="468" y="1411"/>
      <point x="512" y="1411" type="curve" smooth="yes"/>
      <point x="593" y="1411"/>
      <point x="635" y="1476"/>
      <point x="635" y="1561" type="curve" smooth="yes"/>
      <point x="635" y="1597"/>
      <point x="628" y="1636"/>
    </contour>
  </outline>
</glyph>
<glyph name="alefLamYehabove-ar" format="2">
  <unicode hex="0616"/>
  <anchor x="11" y="1185" name="_diaA"/>
  <anchor x="-139" y="1804" name="alef"/>
  <anchor x="60" y="1952" name="diaA"/>
  <outline>
    <contour>
      <point x="245" y="1305" type="curve" smooth="yes"/>
      <point x="257" y="1310"/>
      <point x="267" y="1350"/>
      <point x="267" y="1372" type="curve"/>
      <point x="83" y="1327"/>
      <point x="-208" y="1324"/>
      <point x="-208" y="1364" type="curve" smooth="yes"/>
      <point x="-208" y="1412"/>
      <point x="4" y="1386"/>
      <point x="4" y="1500" type="curve" smooth="yes"/>
      <point x="4" y="1574"/>
      <point x="6" y="1743"/>
      <point x="6" y="1785" type="curve" smooth="yes"/>
      <point x="6" y="1820"/>
      <point x="6" y="1881"/>
      <point x="5" y="1891" type="curve"/>
      <point x="-25" y="1890"/>
      <point x="-89" y="1869"/>
      <point x="-99" y="1849" type="curve"/>
      <point x="-97" y="1849"/>
      <point x="-89" y="1630"/>
      <point x="-85" y="1518" type="curve" smooth="yes"/>
      <point x="-83" y="1466"/>
      <point x="-317" y="1498"/>
      <point x="-317" y="1361" type="curve" smooth="yes"/>
      <point x="-317" y="1207"/>
      <point x="25" y="1213"/>
    </contour>
    <contour>
      <point x="70" y="1394" type="curve"/>
      <point x="111" y="1394"/>
      <point x="141" y="1411"/>
      <point x="151" y="1431" type="curve"/>
      <point x="158" y="1551"/>
      <point x="157" y="1732"/>
      <point x="157" y="1801" type="curve" smooth="yes"/>
      <point x="157" y="1846"/>
      <point x="154" y="1873"/>
      <point x="154" y="1894" type="curve"/>
      <point x="102" y="1887"/>
      <point x="75" y="1873"/>
      <point x="50" y="1854" type="curve"/>
      <point x="61" y="1688"/>
      <point x="67" y="1563"/>
    </contour>
  </outline>
</glyph>
<glyph name="zainabove-ar" format="2">
  <unicode hex="0617"/>
  <anchor x="5" y="1111" name="_diaA"/>
  <anchor x="-97" y="1784" name="alef"/>
  <anchor x="26" y="1823" name="diaA"/>
  <outline>
    <component base="_dot1" xScale="0.51316" yScale="0.51316" xOffset="39" yOffset="1717"/>
    <contour>
      <point x="-92" y="1133" type="curve"/>
      <point x="39" y="1185"/>
      <point x="116" y="1286"/>
      <point x="116" y="1445" type="curve" smooth="yes"/>
      <point x="116" y="1492"/>
      <point x="110" y="1554"/>
      <point x="99" y="1615" type="curve"/>
      <point x="66" y="1615"/>
      <point x="35" y="1606"/>
      <point x="16" y="1596" type="curve"/>
      <point x="24" y="1552"/>
      <point x="31" y="1502"/>
      <point x="31" y="1441" type="curve" smooth="yes"/>
      <point x="31" y="1291"/>
      <point x="-33" y="1245"/>
      <point x="-132" y="1209" type="curve"/>
      <point x="-130" y="1190"/>
      <point x="-114" y="1148"/>
    </contour>
  </outline>
</glyph>
<glyph name="semicolon-ar" format="2">
  <advance width="565"/>
  <unicode hex="061B"/>
  <anchor x="280" y="890" name="diaA"/>
  <anchor x="262" y="-548" name="diaB"/>
  <outline>
    <contour>
      <point x="435" y="168" type="curve"/>
      <point x="435" y="304" type="line"/>
      <point x="275" y="304" type="line"/>
      <point x="275" y="444"/>
      <point x="333" y="572"/>
      <point x="408" y="666" type="curve"/>
      <point x="323" y="730" type="line"/>
      <point x="156" y="547"/>
      <point x="105" y="384"/>
      <point x="105" y="244" type="curve" smooth="yes"/>
      <point x="105" y="106"/>
      <point x="201" y="40"/>
      <point x="279" y="40" type="curve" smooth="yes"/>
      <point x="352" y="40"/>
      <point x="418" y="86"/>
    </contour>
    <contour>
      <point x="424" y="-286" type="curve" smooth="yes"/>
      <point x="424" y="-206"/>
      <point x="360" y="-139"/>
      <point x="279" y="-139" type="curve" smooth="yes"/>
      <point x="199" y="-139"/>
      <point x="133" y="-206"/>
      <point x="133" y="-286" type="curve" smooth="yes"/>
      <point x="133" y="-366"/>
      <point x="199" y="-435"/>
      <point x="279" y="-435" type="curve" smooth="yes"/>
      <point x="360" y="-435"/>
      <point x="424" y="-366"/>
    </contour>
  </outline>
</glyph>
<glyph name="threedots-ar" format="2">
  <advance width="663"/>
  <unicode hex="061E"/>
  <outline>
    <contour>
      <point x="309" y="196" type="curve"/>
      <point x="326" y="201"/>
      <point x="373" y="251"/>
      <point x="437" y="338" type="curve"/>
      <point x="273" y="470" type="line"/>
      <point x="159" y="330" type="line"/>
      <point x="170" y="308"/>
      <point x="228" y="256"/>
    </contour>
    <contour>
      <point x="184" y="-53" type="curve"/>
      <point x="201" y="-46"/>
      <point x="248" y="2"/>
      <point x="312" y="89" type="curve"/>
      <point x="148" y="221" type="line"/>
      <point x="34" y="82" type="line"/>
      <point x="45" y="58"/>
      <point x="102" y="7"/>
    </contour>
    <contour>
      <point x="499" y="-35" type="curve"/>
      <point x="516" y="-29"/>
      <point x="563" y="19"/>
      <point x="627" y="105" type="curve"/>
      <point x="463" y="239" type="line"/>
      <point x="349" y="99" type="line"/>
      <point x="358" y="77"/>
      <point x="418" y="25"/>
    </contour>
  </outline>
</glyph>
<glyph name="yehKashmiri-ar" format="2">
  <advance width="1140"/>
  <unicode hex="0620"/>
  <anchor x="719" y="756" name="above"/>
  <anchor x="345" y="433" name="alef"/>
  <anchor x="715" y="760" name="diaA"/>
  <anchor x="532" y="-401" name="diaB"/>
  <outline>
    <contour>
      <point x="271" y="-373" type="curve"/>
      <point x="619" y="-327"/>
      <point x="1011" y="-226"/>
      <point x="1011" y="62" type="curve" smooth="yes"/>
      <point x="1011" y="345"/>
      <point x="621" y="213"/>
      <point x="621" y="359" type="curve" smooth="yes"/>
      <point x="621" y="434"/>
      <point x="770" y="548"/>
      <point x="884" y="548" type="curve" smooth="yes"/>
      <point x="921" y="548"/>
      <point x="951" y="542"/>
      <point x="985" y="529" type="curve"/>
      <point x="1028" y="571"/>
      <point x="1050" y="634"/>
      <point x="1055" y="678" type="curve"/>
      <point x="1013" y="717"/>
      <point x="954" y="726"/>
      <point x="907" y="726" type="curve" smooth="yes"/>
      <point x="719" y="726"/>
      <point x="445" y="551"/>
      <point x="445" y="335" type="curve" smooth="yes"/>
      <point x="445" y="51"/>
      <point x="835" y="149"/>
      <point x="835" y="44" type="curve" smooth="yes"/>
      <point x="835" y="-139"/>
      <point x="357" y="-195"/>
      <point x="142" y="-204" type="curve"/>
      <point x="154" y="-286"/>
      <point x="216" y="-352"/>
    </contour>
  </outline>
</glyph>
<glyph name="hamza-ar" format="2">
  <advance width="839"/>
  <unicode hex="0621"/>
  <anchor x="435" y="784" name="above"/>
  <anchor x="8" y="516" name="alef"/>
  <anchor x="413" y="-59" name="below"/>
  <anchor x="392" y="787" name="diaA"/>
  <anchor x="402" y="-101" name="diaB"/>
  <outline>
    <contour>
      <point x="98" y="-20" type="curve"/>
      <point x="241" y="-9"/>
      <point x="519" y="7"/>
      <point x="674" y="7" type="curve"/>
      <point x="706" y="44"/>
      <point x="740" y="139"/>
      <point x="748" y="202" type="curve"/>
      <point x="547" y="251"/>
      <point x="280" y="317"/>
      <point x="280" y="444" type="curve" smooth="yes"/>
      <point x="280" y="498"/>
      <point x="327" y="538"/>
      <point x="395" y="538" type="curve" smooth="yes"/>
      <point x="469" y="538"/>
      <point x="525" y="505"/>
      <point x="587" y="443" type="curve"/>
      <point x="635" y="463"/>
      <point x="708" y="501"/>
      <point x="730" y="567" type="curve"/>
      <point x="678" y="639"/>
      <point x="553" y="720"/>
      <point x="410" y="720" type="curve" smooth="yes"/>
      <point x="200" y="720"/>
      <point x="83" y="583"/>
      <point x="83" y="442" type="curve" smooth="yes"/>
      <point x="83" y="329"/>
      <point x="158" y="214"/>
      <point x="321" y="162" type="curve"/>
      <point x="226" y="159"/>
      <point x="152" y="151"/>
      <point x="58" y="140" type="curve"/>
      <point x="63" y="93"/>
      <point x="75" y="5"/>
    </contour>
  </outline>
</glyph>
<glyph name="alef-ar" format="2">
  <advance width="415"/>
  <unicode hex="0627"/>
  <anchor x="207" y="1153" name="above"/>
  <anchor x="-5" y="887" name="alef"/>
  <anchor x="211" y="-100" name="below"/>
  <anchor x="208" y="1161" name="diaA"/>
  <anchor x="205" y="-109" name="diaB"/>
  <outline>
    <contour>
      <point x="266" y="1112"/>
      <point x="126" y="1082"/>
      <point x="103" y="1005" type="curve"/>
      <point x="103" y="974"/>
      <point x="134" y="433"/>
      <point x="134" y="92" type="curve" smooth="yes"/>
      <point x="134" y="33"/>
      <point x="133" y="-20"/>
      <point x="132" y="-63" type="curve"/>
      <point x="181" y="-57"/>
      <point x="271" y="-37"/>
      <point x="298" y="-2" type="curve"/>
      <point x="309" y="210"/>
      <point x="315" y="811"/>
      <point x="315" y="976" type="curve" smooth="yes"/>
      <point x="315" y="988"/>
      <point x="314" y="1095"/>
      <point x="310" y="1119" type="curve"/>
    </contour>
  </outline>
</glyph>
<glyph name="hah-ar" format="1">
  <advance width="983"/>
  <unicode hex="062D"/>
  <outline>
    <contour>
      <point x="745" y="368"/>
      <point x="614" y="609"/>
      <point x="434" y="609" type="curve" smooth="yes"/>
      <point x="306" y="609"/>
      <point x="199" y="518"/>
      <point x="105" y="395" type="curve"/>
      <point x="115" y="384"/>
      <point x="137" y="354"/>
      <point x="166" y="335" type="curve"/>
      <point x="239" y="389"/>
      <point x="301" y="418"/>
      <point x="363" y="418" type="curve" smooth="yes"/>
      <point x="453" y="418"/>
      <point x="542" y="359"/>
      <point x="667" y="237" type="curve"/>
      <point x="640" y="240"/>
      <point x="613" y="241"/>
      <point x="577" y="241" type="curve" smooth="yes"/>
      <point x="205" y="241"/>
      <point x="16" y="-15"/>
      <point x="16" y="-256" type="curve" smooth="yes"/>
      <point x="16" y="-506"/>
      <point x="198" y="-727"/>
      <point x="536" y="-727" type="curve" smooth="yes"/>
      <point x="595" y="-727"/>
      <point x="649" y="-723"/>
      <point x="687" y="-717" type="curve"/>
      <point x="731" y="-669"/>
      <point x="756" y="-622"/>
      <point x="758" y="-553" type="curve"/>
      <point x="690" y="-560"/>
      <point x="635" y="-563"/>
      <point x="566" y="-563" type="curve" smooth="yes"/>
      <point x="309" y="-563"/>
      <point x="188" y="-405"/>
      <point x="188" y="-231" type="curve" smooth="yes"/>
      <point x="188" y="-73"/>
      <point x="317" y="98"/>
      <point x="560" y="98" type="curve" smooth="yes"/>
      <point x="713" y="98"/>
      <point x="790" y="65"/>
      <point x="872" y="46" type="curve"/>
      <point x="909" y="61"/>
      <point x="952" y="118"/>
      <point x="968" y="152" type="curve"/>
    </contour>
    <contour>
      <point x="408" y="644" type="move" name="above"/>
    </contour>
    <contour>
      <point x="12" y="470" type="move" name="alef"/>
    </contour>
    <contour>
      <point x="546" y="-224" type="move" name="center"/>
    </contour>
    <contour>
      <point x="401" y="681" type="move" name="diaA"/>
    </contour>
    <contour>
      <point x="502" y="-788" type="move" name="diaB"/>
    </contour>
  </outline>
</glyph>
<glyph name="dal-ar" format="2">
  <advance width="828"/>
  <unicode hex="062F"/>
  <anchor x="269" y="913" name="above"/>
  <anchor x="42" y="676" name="alef"/>
  <anchor x="431" y="-41" name="below"/>
  <anchor x="307" y="947" name="diaA"/>
  <anchor x="431" y="-91" name="diaB"/>
  <anchor x="451" y="64" name="ring"/>
  <outline>
    <contour>
      <point x="321" y="2" type="curve" smooth="yes"/>
      <point x="526" y="2"/>
      <point x="743" y="40"/>
      <point x="743" y="237" type="curve" smooth="yes"/>
      <point x="743" y="406"/>
      <point x="591" y="604"/>
      <point x="360" y="871" type="curve"/>
      <point x="306" y="833"/>
      <point x="261" y="726"/>
      <point x="261" y="653" type="curve"/>
      <point x="453" y="482"/>
      <point x="568" y="332"/>
      <point x="568" y="255" type="curve" smooth="yes"/>
      <point x="568" y="200"/>
      <point x="463" y="180"/>
      <point x="324" y="180" type="curve" smooth="yes"/>
      <point x="215" y="180"/>
      <point x="137" y="186"/>
      <point x="90" y="196" type="curve"/>
      <point x="87" y="174"/>
      <point x="85" y="153"/>
      <point x="85" y="131" type="curve" smooth="yes"/>
      <point x="85" y="91"/>
      <point x="92" y="51"/>
      <point x="110" y="13" type="curve"/>
      <point x="160" y="6"/>
      <point x="230" y="2"/>
    </contour>
  </outline>
</glyph>
<glyph name="reh-ar" format="2">
  <advance width="531"/>
  <unicode hex="0631"/>
  <anchor x="301" y="483" name="above"/>
  <anchor x="282" y="469" name="alef"/>
  <anchor x="316" y="-594" name="below"/>
  <anchor x="25" y="-89" name="center"/>
  <anchor x="337" y="506" name="diaA"/>
  <anchor x="264" y="-636" name="diaB"/>
  <anchor x="393" y="-456" name="ring"/>
  <anchor x="370" y="-165" name="through"/>
  <outline>
    <contour>
      <point x="240" y="373" type="curve"/>
      <point x="262" y="262"/>
      <point x="283" y="134"/>
      <point x="283" y="20" type="curve" smooth="yes"/>
      <point x="283" y="-213"/>
      <point x="198" y="-427"/>
      <point x="-127" y="-540" type="curve"/>
      <point x="-115" y="-593"/>
      <point x="-90" y="-661"/>
      <point x="-21" y="-706" type="curve"/>
      <point x="341" y="-563"/>
      <point x="463" y="-258"/>
      <point x="463" y="27" type="curve" smooth="yes"/>
      <point x="463" y="151"/>
      <point x="451" y="308"/>
      <point x="421" y="431" type="curve"/>
      <point x="357" y="429"/>
      <point x="278" y="407"/>
    </contour>
  </outline>
</glyph>
<glyph name="seen-ar" format="2">
  <advance width="1817"/>
  <unicode hex="0633"/>
  <anchor x="1210" y="562" name="above"/>
  <anchor x="330" y="247" name="alef"/>
  <anchor x="1322" y="-89" name="below"/>
  <anchor x="1184" y="613" name="diaA"/>
  <anchor x="479" y="-654" name="diaB"/>
  <outline>
    <contour>
      <point x="467" y="-565" type="curve" smooth="yes"/>
      <point x="732" y="-565"/>
      <point x="904" y="-384"/>
      <point x="904" y="-66" type="curve" smooth="yes"/>
      <point x="904" y="-43"/>
      <point x="904" y="-1"/>
      <point x="902" y="36" type="curve"/>
      <point x="945" y="1"/>
      <point x="998" y="-20"/>
      <point x="1060" y="-20" type="curve" smooth="yes"/>
      <point x="1155" y="-20"/>
      <point x="1232" y="46"/>
      <point x="1269" y="123" type="curve"/>
      <point x="1325" y="28"/>
      <point x="1398" y="-10"/>
      <point x="1482" y="-10" type="curve" smooth="yes"/>
      <point x="1621" y="-10"/>
      <point x="1732" y="112"/>
      <point x="1732" y="282" type="curve" smooth="yes"/>
      <point x="1732" y="357"/>
      <point x="1716" y="476"/>
      <point x="1687" y="563" type="curve"/>
      <point x="1637" y="557"/>
      <point x="1550" y="530"/>
      <point x="1511" y="510" type="curve"/>
      <point x="1542" y="423"/>
      <point x="1556" y="348"/>
      <point x="1556" y="290" type="curve" smooth="yes"/>
      <point x="1556" y="213"/>
      <point x="1530" y="168"/>
      <point x="1483" y="168" type="curve" smooth="yes"/>
      <point x="1410" y="168"/>
      <point x="1362" y="267"/>
      <point x="1316" y="489" type="curve"/>
      <point x="1256" y="487"/>
      <point x="1182" y="467"/>
      <point x="1137" y="445" type="curve"/>
      <point x="1141" y="427"/>
      <point x="1147" y="392"/>
      <point x="1154" y="360" type="curve" smooth="yes"/>
      <point x="1163" y="317"/>
      <point x="1161" y="304"/>
      <point x="1161" y="292" type="curve" smooth="yes"/>
      <point x="1161" y="214"/>
      <point x="1125" y="155"/>
      <point x="1060" y="155" type="curve" smooth="yes"/>
      <point x="954" y="155"/>
      <point x="905" y="261"/>
      <point x="866" y="458" type="curve"/>
      <point x="797" y="454"/>
      <point x="729" y="430"/>
      <point x="689" y="411" type="curve"/>
      <point x="714" y="293"/>
      <point x="738" y="122"/>
      <point x="738" y="-40" type="curve" smooth="yes"/>
      <point x="738" y="-234"/>
      <point x="673" y="-391"/>
      <point x="487" y="-391" type="curve" smooth="yes"/>
      <point x="337" y="-391"/>
      <point x="258" y="-298"/>
      <point x="258" y="-161" type="curve" smooth="yes"/>
      <point x="258" y="-90"/>
      <point x="278" y="-11"/>
      <point x="331" y="69" type="curve"/>
      <point x="312" y="98"/>
      <point x="270" y="135"/>
      <point x="239" y="144" type="curve"/>
      <point x="134" y="37"/>
      <point x="85" y="-88"/>
      <point x="85" y="-203" type="curve" smooth="yes"/>
      <point x="85" y="-399"/>
      <point x="227" y="-565"/>
    </contour>
  </outline>
</glyph>
